<mxfile modified="2024-03-18T19:12:26.765Z" host="app.diagrams.net" agent="Mozilla/5.0 (Windows NT 10.0; Win64; x64) AppleWebKit/537.36 (KHTML, like Gecko) Chrome/122.0.0.0 Safari/537.36" etag="rJm5w21hsI_1mTQUGpVB" version="24.0.2" type="device">
  <diagram id="WI9T0HZ2pTsCkuznbFz-" name="Page-1">
    <mxGraphModel dx="2074" dy="1098" grid="1" gridSize="10" guides="1" tooltips="1" connect="1" arrows="1" fold="1" page="1" pageScale="1" pageWidth="827" pageHeight="1169" math="0" shadow="0">
      <root>
        <mxCell id="0" />
        <mxCell id="1" parent="0" />
        <mxCell id="UsUYvDEnflECevkJwkC9-147" value="" style="rounded=0;whiteSpace=wrap;html=1;fillColor=none;strokeColor=#2a5ba4;dashed=1;" vertex="1" parent="1">
          <mxGeometry x="680" y="1040" width="870" height="580" as="geometry" />
        </mxCell>
        <mxCell id="yIlqXNv4PA9Dnh1hxRCn-74" value="" style="rounded=0;whiteSpace=wrap;html=1;fillColor=#EAEDED;fontSize=22;fontColor=#FFFFFF;strokeColor=none;labelBackgroundColor=none;" parent="1" vertex="1">
          <mxGeometry x="1790" y="1147.25" width="539" height="349" as="geometry" />
        </mxCell>
        <mxCell id="yIlqXNv4PA9Dnh1hxRCn-75" value="&lt;span&gt;Client TLS session terminates with frontend certificate on Application Gateway and backend certificate on ingress controller on AKS&amp;nbsp;&lt;/span&gt;" style="text;html=1;align=left;verticalAlign=top;spacingTop=-4;fontSize=14;labelBackgroundColor=none;whiteSpace=wrap;" parent="1" vertex="1">
          <mxGeometry x="1860" y="1158.25" width="449" height="48" as="geometry" />
        </mxCell>
        <mxCell id="yIlqXNv4PA9Dnh1hxRCn-82" value="1" style="ellipse;whiteSpace=wrap;html=1;aspect=fixed;fillColor=#4D9900;strokeColor=none;labelBackgroundColor=none;" parent="1" vertex="1">
          <mxGeometry x="1810" y="1164.75" width="23" height="23" as="geometry" />
        </mxCell>
        <mxCell id="yIlqXNv4PA9Dnh1hxRCn-95" value="&lt;span&gt;Incoming requests can be limited with WAF policies by Client IP and Header API Key values&lt;/span&gt;" style="text;html=1;align=left;verticalAlign=top;spacingTop=-4;fontSize=14;labelBackgroundColor=none;whiteSpace=wrap;" parent="1" vertex="1">
          <mxGeometry x="1860" y="1228.75" width="449" height="72" as="geometry" />
        </mxCell>
        <mxCell id="yIlqXNv4PA9Dnh1hxRCn-96" value="2" style="ellipse;whiteSpace=wrap;html=1;aspect=fixed;fillColor=#4D9900;strokeColor=none;labelBackgroundColor=none;" parent="1" vertex="1">
          <mxGeometry x="1810" y="1235.25" width="23" height="23" as="geometry" />
        </mxCell>
        <mxCell id="yIlqXNv4PA9Dnh1hxRCn-97" value="&lt;span&gt;By adding Private IP to AGW and configuring corresponding rules, some services can be accessible only from vnet&amp;nbsp;&amp;nbsp;&lt;/span&gt;" style="text;html=1;align=left;verticalAlign=top;spacingTop=-4;fontSize=14;labelBackgroundColor=none;whiteSpace=wrap;" parent="1" vertex="1">
          <mxGeometry x="1860" y="1300.75" width="449" height="72" as="geometry" />
        </mxCell>
        <mxCell id="yIlqXNv4PA9Dnh1hxRCn-98" value="3" style="ellipse;whiteSpace=wrap;html=1;aspect=fixed;fillColor=#4D9900;strokeColor=none;labelBackgroundColor=none;" parent="1" vertex="1">
          <mxGeometry x="1810" y="1307.25" width="23" height="23" as="geometry" />
        </mxCell>
        <mxCell id="yIlqXNv4PA9Dnh1hxRCn-99" value="&lt;span&gt;With&amp;nbsp; Express route virtual network could be connected to On-prem for accessing resources based in internal network;&lt;br&gt;Might be required to whitelist some IPs at on-prem firewall.&lt;/span&gt;" style="text;html=1;align=left;verticalAlign=top;spacingTop=-4;fontSize=14;labelBackgroundColor=none;whiteSpace=wrap;" parent="1" vertex="1">
          <mxGeometry x="1860" y="1370.75" width="449" height="72" as="geometry" />
        </mxCell>
        <mxCell id="yIlqXNv4PA9Dnh1hxRCn-100" value="4" style="ellipse;whiteSpace=wrap;html=1;aspect=fixed;fillColor=#4D9900;strokeColor=none;labelBackgroundColor=none;" parent="1" vertex="1">
          <mxGeometry x="1810" y="1377.25" width="23" height="23" as="geometry" />
        </mxCell>
        <mxCell id="yIlqXNv4PA9Dnh1hxRCn-101" value="&lt;span&gt;Control over access to On-prem resources and Internet resources could be obtained with Azure Firewall and Network Security Groups;&lt;/span&gt;" style="text;html=1;align=left;verticalAlign=top;spacingTop=-4;fontSize=14;labelBackgroundColor=none;whiteSpace=wrap;" parent="1" vertex="1">
          <mxGeometry x="1860" y="1440.75" width="449" height="72" as="geometry" />
        </mxCell>
        <mxCell id="yIlqXNv4PA9Dnh1hxRCn-102" value="5" style="ellipse;whiteSpace=wrap;html=1;aspect=fixed;fillColor=#4D9900;strokeColor=none;labelBackgroundColor=none;" parent="1" vertex="1">
          <mxGeometry x="1810" y="1447.25" width="23" height="23" as="geometry" />
        </mxCell>
        <mxCell id="UsUYvDEnflECevkJwkC9-168" value="Public Client" style="points=[[0.35,0,0],[0.98,0.51,0],[1,0.71,0],[0.67,1,0],[0,0.795,0],[0,0.65,0]];verticalLabelPosition=bottom;sketch=0;html=1;verticalAlign=top;aspect=fixed;align=center;pointerEvents=1;shape=mxgraph.cisco19.user;fillColor=#005073;strokeColor=none;" vertex="1" parent="1">
          <mxGeometry x="580" y="1273.5" width="50" height="50" as="geometry" />
        </mxCell>
        <mxCell id="UsUYvDEnflECevkJwkC9-169" style="edgeStyle=orthogonalEdgeStyle;rounded=0;orthogonalLoop=1;jettySize=auto;html=1;entryX=0.04;entryY=0.492;entryDx=0;entryDy=0;entryPerimeter=0;" edge="1" parent="1" source="UsUYvDEnflECevkJwkC9-168" target="UsUYvDEnflECevkJwkC9-155">
          <mxGeometry relative="1" as="geometry">
            <mxPoint x="610" y="1355" as="targetPoint" />
          </mxGeometry>
        </mxCell>
        <mxCell id="UsUYvDEnflECevkJwkC9-2" value="" style="rounded=0;whiteSpace=wrap;html=1;fillColor=none;strokeColor=#6c8ebf;dashed=1;" vertex="1" parent="1">
          <mxGeometry x="770" y="1110" width="660" height="500" as="geometry" />
        </mxCell>
        <mxCell id="UsUYvDEnflECevkJwkC9-1" value="vnet" style="shape=image;verticalLabelPosition=bottom;labelBackgroundColor=#ffffff;verticalAlign=top;aspect=fixed;imageAspect=0;image=data:image/svg+xml,PHN2ZyB4bWxuczpkYz0iaHR0cDovL3B1cmwub3JnL2RjL2VsZW1lbnRzLzEuMS8iIHhtbG5zOmNjPSJodHRwOi8vY3JlYXRpdmVjb21tb25zLm9yZy9ucyMiIHhtbG5zOnJkZj0iaHR0cDovL3d3dy53My5vcmcvMTk5OS8wMi8yMi1yZGYtc3ludGF4LW5zIyIgeG1sbnM6c3ZnPSJodHRwOi8vd3d3LnczLm9yZy8yMDAwL3N2ZyIgeG1sbnM9Imh0dHA6Ly93d3cudzMub3JnLzIwMDAvc3ZnIiB4bWxuczpzb2RpcG9kaT0iaHR0cDovL3NvZGlwb2RpLnNvdXJjZWZvcmdlLm5ldC9EVEQvc29kaXBvZGktMC5kdGQiIHhtbG5zOmlua3NjYXBlPSJodHRwOi8vd3d3Lmlua3NjYXBlLm9yZy9uYW1lc3BhY2VzL2lua3NjYXBlIiB2ZXJzaW9uPSIxLjEiIGlkPSJzdmcxMDEzMjkiIGlua3NjYXBlOnZlcnNpb249IjAuOTIuMyAoMjQwNTU0NiwgMjAxOC0wMy0xMSkiIHNvZGlwb2RpOmRvY25hbWU9InZpcnR1YWxfbmV0d29ya192bmV0LnN2ZyIgeD0iMHB4IiB5PSIwcHgiIHZpZXdCb3g9IjAgMCAxNDguMTExMyA4NC45MzA2NDgiIHhtbDpzcGFjZT0icHJlc2VydmUiIHdpZHRoPSIxNDguMTExMyIgaGVpZ2h0PSI4NC45MzA2NDkiPjxtZXRhZGF0YSBpZD0ibWV0YWRhdGE0MTk0Ij48cmRmOlJERj48Y2M6V29yayByZGY6YWJvdXQ9IiI+PGRjOmZvcm1hdD5pbWFnZS9zdmcreG1sPC9kYzpmb3JtYXQ+PGRjOnR5cGUgcmRmOnJlc291cmNlPSJodHRwOi8vcHVybC5vcmcvZGMvZGNtaXR5cGUvU3RpbGxJbWFnZSIvPjxkYzp0aXRsZS8+PC9jYzpXb3JrPjwvcmRmOlJERj48L21ldGFkYXRhPjxkZWZzIGlkPSJkZWZzNDE5MiI+JiN4YTsJJiN4YTsmI3hhOwkmI3hhOyYjeGE7CSYjeGE7JiN4YTsJJiN4YTsmI3hhOwkmI3hhOyYjeGE7CQkmI3hhOwkmI3hhOwkJJiN4YTsJJiN4YTsJCSYjeGE7CSYjeGE7CQkmI3hhOwkmI3hhOwkJJiN4YTsJPC9kZWZzPiYjeGE7PGZpbHRlciBpZD0iZmlsdGVyXzIiPiYjeGE7CTxmZUdhdXNzaWFuQmx1ciBpZD0iZmVHYXVzc2lhbkJsdXIxMDEyNzgiIHN0ZERldmlhdGlvbj0iMiIvPiYjeGE7PC9maWx0ZXI+JiN4YTs8c29kaXBvZGk6bmFtZWR2aWV3IGJvcmRlcmNvbG9yPSIjNjY2NjY2IiBib3JkZXJvcGFjaXR5PSIxIiBmaXQtbWFyZ2luLWJvdHRvbT0iMCIgZml0LW1hcmdpbi1sZWZ0PSIwIiBmaXQtbWFyZ2luLXJpZ2h0PSIwIiBmaXQtbWFyZ2luLXRvcD0iMCIgZ3JpZHRvbGVyYW5jZT0iMTAiIGd1aWRldG9sZXJhbmNlPSIxMCIgaWQ9Im5hbWVkdmlldzEwMTMzMSIgaW5rc2NhcGU6Y3VycmVudC1sYXllcj0ic3ZnMTAxMzI5IiBpbmtzY2FwZTpjeD0iNDAuMTgyNTg3IiBpbmtzY2FwZTpjeT0iMTguNTU3ODYzIiBpbmtzY2FwZTpwYWdlb3BhY2l0eT0iMCIgaW5rc2NhcGU6cGFnZXNoYWRvdz0iMiIgaW5rc2NhcGU6d2luZG93LWhlaWdodD0iMTAxNyIgaW5rc2NhcGU6d2luZG93LW1heGltaXplZD0iMSIgaW5rc2NhcGU6d2luZG93LXdpZHRoPSIxOTIwIiBpbmtzY2FwZTp3aW5kb3cteD0iLTgiIGlua3NjYXBlOndpbmRvdy15PSItOCIgaW5rc2NhcGU6em9vbT0iMi45NzE3MDUzIiBvYmplY3R0b2xlcmFuY2U9IjEwIiBwYWdlY29sb3I9IiNmZmZmZmYiIHNob3dncmlkPSJmYWxzZSI+JiN4YTsJPC9zb2RpcG9kaTpuYW1lZHZpZXc+JiN4YTsmI3hhOzxwYXRoIGlkPSJwYXRoMTAxMjkxIiBpbmtzY2FwZTpjb25uZWN0b3ItY3VydmF0dXJlPSIwIiBzdHlsZT0iZmlsbDojMzk5OWM2IiBkPSJtIDE0Ny4xMTA2NSw0NC41OSBjIDEuNDgsLTEuNDggMS4xOCwtMy44NCAwLC01LjMyIGwgLTcuMSwtNy4xIC0zMS45NCwtMzEuMDYgYyAtMS40OCwtMS40OCAtMy41NSwtMS40OCAtNS4wMywwIC0xLjQ4LDEuNDggLTEuNzcsMy44NSAwLDUuMzMgbCAzMy40MiwzMi44MyBjIDEuNDgsMS40OCAxLjQ4LDMuODQgMCw1LjMyIGwgLTM0LjAxLDM0LjAxIGMgLTEuNDgsMS40OCAtMS40OCwzLjg1IDAsNS4zMyAxLjQ4LDEuNDggMy44NCwxLjE4IDUuMDMsMCBsIDMxLjY0LC0zMS4zNSBjIDAsMCAwLDAgMC4zLC0wLjMgeiIvPiYjeGE7JiN4YTs8cGF0aCBpZD0icGF0aDEwMTI5OSIgaW5rc2NhcGU6Y29ubmVjdG9yLWN1cnZhdHVyZT0iMCIgc3R5bGU9ImZpbGw6IzM5OTljNiIgZD0ibSAxLjAwMDY1MjEsNDQuNTkgYyAtMS40OCwtMS40OCAtMS4xOCwtMy44NCAwLC01LjMyIGwgNy4xLC03LjEgTCA0MC4wNDA2NTIsMS4xMSBjIDEuNDgsLTEuNDggMy41NSwtMS40OCA1LjAzLDAgMS40OCwxLjQ4IDEuNzcsMy44NSAwLDUuMzMgbCAtMzIuODMsMzIuODMgYyAtMS40OCwxLjQ4IC0xLjQ4LDMuODQgMCw1LjMyIGwgMzMuNDIsMzQuMDEgYyAxLjQ4LDEuNDggMS40OCwzLjg1IDAsNS4zMyAtMS40OCwxLjQ4IC0zLjg0LDEuMTggLTUuMDMsMCBMIDguMzkwNjUyMSw1Mi44NyBjIDAsMCAwLDAgLTAuMjksLTAuMjkgeiIvPiYjeGE7JiN4YTs8cGF0aCBpZD0icGF0aDEwMTMwNyIgaW5rc2NhcGU6Y29ubmVjdG9yLWN1cnZhdHVyZT0iMCIgc3R5bGU9ImZpbGw6IzdmYmEwMCIgZD0ibSA1My45NDA2NTIsNDEuOTMgYyAwLDUuNjIgLTQuNzMsOS43NiAtOS43Niw5Ljc2IC01LjAzLDAgLTEwLjM1LC00Ljc0IC0xMC4zNSwtOS43NiAwLC01LjAzIDQuMTQsLTkuNzYgMTAuMzUsLTkuNzYgNS45MiwwIDkuNzYsNC43MyA5Ljc2LDkuNzYgeiIvPiYjeGE7JiN4YTs8cGF0aCBpZD0icGF0aDEwMTMxNSIgaW5rc2NhcGU6Y29ubmVjdG9yLWN1cnZhdHVyZT0iMCIgc3R5bGU9ImZpbGw6IzdmYmEwMCIgZD0ibSA4My44MTA2NTIsNDEuOTMgYyAwLDUuNjIgLTQuNzMsOS43NiAtOS43Niw5Ljc2IC01LjAzLDAgLTEwLjM1LC00Ljc0IC0xMC4zNSwtOS43NiAwLC01LjAzIDQuNzMsLTkuNzYgMTAuMzUsLTkuNzYgNS42MiwwIDkuNzYsNC43MyA5Ljc2LDkuNzYgeiIvPiYjeGE7JiN4YTs8Y2lyY2xlIGlkPSJlbGxpcHNlMTAxMzIzIiBzdHlsZT0iZmlsbDojN2ZiYTAwIiBjeD0iMTA0LjIyMDY1IiBjeT0iNDEuOTMiIHI9IjkuNzYwMDAwMiIvPiYjeGE7PC9zdmc+;imageBackground=default;" vertex="1" parent="1">
          <mxGeometry x="770" y="1090" width="69.65" height="40" as="geometry" />
        </mxCell>
        <mxCell id="UsUYvDEnflECevkJwkC9-6" value="" style="group" vertex="1" connectable="0" parent="1">
          <mxGeometry x="1050" y="1250" width="610" height="400" as="geometry" />
        </mxCell>
        <mxCell id="UsUYvDEnflECevkJwkC9-4" value="" style="rounded=0;whiteSpace=wrap;html=1;fillColor=none;strokeColor=#82b366;dashed=1;" vertex="1" parent="UsUYvDEnflECevkJwkC9-6">
          <mxGeometry x="10" y="-30" width="320" height="330" as="geometry" />
        </mxCell>
        <mxCell id="UsUYvDEnflECevkJwkC9-3" value="aks-subnet" style="shape=image;verticalLabelPosition=bottom;labelBackgroundColor=#ffffff;verticalAlign=top;aspect=fixed;imageAspect=0;image=data:image/svg+xml,PHN2ZyB4bWxuczpjYz0iaHR0cDovL2NyZWF0aXZlY29tbW9ucy5vcmcvbnMjIiB4bWxuczpkYz0iaHR0cDovL3B1cmwub3JnL2RjL2VsZW1lbnRzLzEuMS8iIHhtbG5zOmlua3NjYXBlPSJodHRwOi8vd3d3Lmlua3NjYXBlLm9yZy9uYW1lc3BhY2VzL2lua3NjYXBlIiB4bWxuczpyZGY9Imh0dHA6Ly93d3cudzMub3JnLzE5OTkvMDIvMjItcmRmLXN5bnRheC1ucyMiIHhtbG5zOnNvZGlwb2RpPSJodHRwOi8vc29kaXBvZGkuc291cmNlZm9yZ2UubmV0L0RURC9zb2RpcG9kaS0wLmR0ZCIgeG1sbnM6c3ZnPSJodHRwOi8vd3d3LnczLm9yZy8yMDAwL3N2ZyIgeG1sbnM9Imh0dHA6Ly93d3cudzMub3JnLzIwMDAvc3ZnIiB4bWxuczp4bGluaz0iaHR0cDovL3d3dy53My5vcmcvMTk5OS94bGluayIgdmVyc2lvbj0iMS4xIiBpZD0ic3ZnOTkyNDkiIGlua3NjYXBlOnZlcnNpb249IjAuOTIuMyAoMjQwNTU0NiwgMjAxOC0wMy0xMSkiIHNvZGlwb2RpOmRvY25hbWU9InN1Ym5ldHMuc3ZnIiB4PSIwcHgiIHk9IjBweCIgdmlld0JveD0iMCAwIDM0Ljg0IDIxLjYxIiBzdHlsZT0iZW5hYmxlLWJhY2tncm91bmQ6bmV3IDAgMCAzNC44NCAyMS42MTsiIHhtbDpzcGFjZT0icHJlc2VydmUiPiYjeGE7PHNvZGlwb2RpOm5hbWVkdmlldyBib3JkZXJjb2xvcj0iIzY2NjY2NiIgYm9yZGVyb3BhY2l0eT0iMSIgZml0LW1hcmdpbi1ib3R0b209IjAiIGZpdC1tYXJnaW4tbGVmdD0iMCIgZml0LW1hcmdpbi1yaWdodD0iMCIgZml0LW1hcmdpbi10b3A9IjAiIGdyaWR0b2xlcmFuY2U9IjEwIiBndWlkZXRvbGVyYW5jZT0iMTAiIGlkPSJuYW1lZHZpZXc5OTI1MSIgaW5rc2NhcGU6Y3VycmVudC1sYXllcj0ic3ZnOTkyNDkiIGlua3NjYXBlOmN4PSI0MC45MTcxNDUiIGlua3NjYXBlOmN5PSIwLjYzNzUyNTg2IiBpbmtzY2FwZTpwYWdlb3BhY2l0eT0iMCIgaW5rc2NhcGU6cGFnZXNoYWRvdz0iMiIgaW5rc2NhcGU6d2luZG93LWhlaWdodD0iMTAxNyIgaW5rc2NhcGU6d2luZG93LW1heGltaXplZD0iMSIgaW5rc2NhcGU6d2luZG93LXdpZHRoPSIxOTIwIiBpbmtzY2FwZTp3aW5kb3cteD0iLTgiIGlua3NjYXBlOndpbmRvdy15PSItOCIgaW5rc2NhcGU6em9vbT0iMTAuNjM5NDk0IiBvYmplY3R0b2xlcmFuY2U9IjEwIiBwYWdlY29sb3I9IiNmZmZmZmYiIHNob3dncmlkPSJmYWxzZSI+JiN4YTsJPC9zb2RpcG9kaTpuYW1lZHZpZXc+JiN4YTs8ZyBpZD0iZzk5MjQ3IiB0cmFuc2Zvcm09InRyYW5zbGF0ZSgtNC4yMzMxNzQ5ZS01KSI+JiN4YTsJPHRpdGxlIGlkPSJ0aXRsZTk5MjI3Ij5QYWdlLTE8L3RpdGxlPiYjeGE7CTxnIGlkPSJncm91cDQ2NTQtMSI+JiN4YTsJCTx0aXRsZSBpZD0idGl0bGU5OTIyOSI+U3VibmV0czwvdGl0bGU+JiN4YTsJCTxnIGlkPSJzaGFwZTQ2NTUtMiIgdHJhbnNmb3JtPSJ0cmFuc2xhdGUoMjIuNjEzKSI+JiN4YTsJCQk8dGl0bGUgaWQ9InRpdGxlOTkyMzEiPlNoZWV0LjQ2NTU8L3RpdGxlPiYjeGE7CQkJPHBhdGggaWQ9InBhdGg5OTIzMyIgaW5rc2NhcGU6Y29ubmVjdG9yLWN1cnZhdHVyZT0iMCIgc3R5bGU9ImZpbGw6IzM5OTlDNjsiIGQ9Ik0xMi4yMywxMC42OEw5Ljg0LDguMjlMMS4zOSwwTDAsMS4yNmw5LjU4LDkuNDIgICAgIEwwLDIwLjM1bDEuMzksMS4yNmw4LjQ1LTguM0wxMi4yMywxMC42OHoiLz4mI3hhOwkJPC9nPiYjeGE7CQk8ZyBpZD0ic2hhcGU0NjU2LTQiPiYjeGE7CQkJPHRpdGxlIGlkPSJ0aXRsZTk5MjM2Ij5TaGVldC40NjU2PC90aXRsZT4mI3hhOwkJCTxwYXRoIGlkPSJwYXRoOTkyMzgiIGlua3NjYXBlOmNvbm5lY3Rvci1jdXJ2YXR1cmU9IjAiIHN0eWxlPSJmaWxsOiMzOTk5QzY7IiBkPSJNMCwxMC42OGwyLjM5LTIuMzlMMTAuODQsMGwxLjM5LDEuMjYgICAgIGwtOS41OCw5LjQybDkuNTgsOS42N2wtMS4zOSwxLjI2bC04LjQ1LTguM0wwLDEwLjY4eiIvPiYjeGE7CQk8L2c+JiN4YTsJCTxnIGlkPSJzaGFwZTQ2NTctNiIgdHJhbnNmb3JtPSJ0cmFuc2xhdGUoMTQuODY4NSwtOC41MzE5NykiPiYjeGE7CQkJPHRpdGxlIGlkPSJ0aXRsZTk5MjQxIj5TaGVldC40NjU3PC90aXRsZT4mI3hhOwkJCTxwYXRoIGlkPSJwYXRoOTkyNDMiIGlua3NjYXBlOmNvbm5lY3Rvci1jdXJ2YXR1cmU9IjAiIHN0eWxlPSJmaWxsOiM3RkJBMDA7IiBkPSJNNC45MSwxOS4yMWMwLDEuMzgtMS4xMywyLjQtMi4zOSwyLjQgICAgIFMwLDIwLjQ2LDAsMTkuMjFjMC0xLjI2LDEuMTMtMi4zOCwyLjUyLTIuMzhTNC45MSwxNy45NSw0LjkxLDE5LjIxeiIvPiYjeGE7CQk8L2c+JiN4YTsJPC9nPiYjeGE7PC9nPiYjeGE7PC9zdmc+;imageBackground=default;" vertex="1" parent="UsUYvDEnflECevkJwkC9-6">
          <mxGeometry x="10" y="-50" width="63.64" height="40" as="geometry" />
        </mxCell>
        <mxCell id="UsUYvDEnflECevkJwkC9-38" value="" style="rounded=0;whiteSpace=wrap;html=1;fillColor=none;strokeColor=#9673a6;dashed=1;" vertex="1" parent="UsUYvDEnflECevkJwkC9-6">
          <mxGeometry x="19.16" y="35" width="300.84" height="255" as="geometry" />
        </mxCell>
        <mxCell id="UsUYvDEnflECevkJwkC9-18" value="AKS" style="image;aspect=fixed;html=1;points=[];align=center;fontSize=12;image=img/lib/azure2/compute/Kubernetes_Services.svg;imageBackground=default;" vertex="1" parent="UsUYvDEnflECevkJwkC9-6">
          <mxGeometry x="19.160000000000004" y="20" width="45.33" height="40" as="geometry" />
        </mxCell>
        <mxCell id="UsUYvDEnflECevkJwkC9-16" value="aks-nsg" style="image;aspect=fixed;html=1;points=[];align=center;fontSize=12;image=img/lib/azure2/networking/Network_Security_Groups.svg;" vertex="1" parent="UsUYvDEnflECevkJwkC9-6">
          <mxGeometry x="92.66000000000003" y="-50" width="32.94" height="40" as="geometry" />
        </mxCell>
        <mxCell id="UsUYvDEnflECevkJwkC9-159" value="" style="group" vertex="1" connectable="0" parent="UsUYvDEnflECevkJwkC9-6">
          <mxGeometry x="60" y="90" width="238.03" height="170" as="geometry" />
        </mxCell>
        <mxCell id="UsUYvDEnflECevkJwkC9-37" value="" style="aspect=fixed;sketch=0;html=1;dashed=0;whitespace=wrap;fillColor=#2875E2;strokeColor=#ffffff;points=[[0.005,0.63,0],[0.1,0.2,0],[0.9,0.2,0],[0.5,0,0],[0.995,0.63,0],[0.72,0.99,0],[0.5,1,0],[0.28,0.99,0]];shape=mxgraph.kubernetes.icon2;prIcon=ns" vertex="1" parent="UsUYvDEnflECevkJwkC9-159">
          <mxGeometry width="41.67" height="40" as="geometry" />
        </mxCell>
        <mxCell id="UsUYvDEnflECevkJwkC9-39" value="" style="rounded=0;whiteSpace=wrap;html=1;fillColor=none;strokeColor=#4578e0;dashed=1;" vertex="1" parent="UsUYvDEnflECevkJwkC9-159">
          <mxGeometry y="20" width="238.03" height="150" as="geometry" />
        </mxCell>
        <mxCell id="UsUYvDEnflECevkJwkC9-40" value="AGIC" style="aspect=fixed;sketch=0;html=1;dashed=0;whitespace=wrap;fillColor=#2875E2;strokeColor=#ffffff;points=[[0.005,0.63,0],[0.1,0.2,0],[0.9,0.2,0],[0.5,0,0],[0.995,0.63,0],[0.72,0.99,0],[0.5,1,0],[0.28,0.99,0]];shape=mxgraph.kubernetes.icon2;prIcon=ing;labelPosition=center;verticalLabelPosition=bottom;align=center;verticalAlign=top;" vertex="1" parent="UsUYvDEnflECevkJwkC9-159">
          <mxGeometry x="19.020000000000003" y="50" width="41.67" height="40" as="geometry" />
        </mxCell>
        <mxCell id="UsUYvDEnflECevkJwkC9-41" value="FE and BE Certificates" style="image;sketch=0;aspect=fixed;html=1;points=[];align=center;fontSize=12;image=img/lib/mscae/Certificate.svg;" vertex="1" parent="UsUYvDEnflECevkJwkC9-159">
          <mxGeometry x="16.049999999999983" y="120" width="47.62" height="40" as="geometry" />
        </mxCell>
        <mxCell id="UsUYvDEnflECevkJwkC9-42" value="" style="aspect=fixed;sketch=0;html=1;dashed=0;whitespace=wrap;fillColor=#2875E2;strokeColor=#ffffff;points=[[0.005,0.63,0],[0.1,0.2,0],[0.9,0.2,0],[0.5,0,0],[0.995,0.63,0],[0.72,0.99,0],[0.5,1,0],[0.28,0.99,0]];shape=mxgraph.kubernetes.icon2;prIcon=svc" vertex="1" parent="UsUYvDEnflECevkJwkC9-159">
          <mxGeometry x="170.7" y="50" width="41.67" height="40" as="geometry" />
        </mxCell>
        <mxCell id="UsUYvDEnflECevkJwkC9-43" value="" style="aspect=fixed;sketch=0;html=1;dashed=0;whitespace=wrap;fillColor=#2875E2;strokeColor=#ffffff;points=[[0.005,0.63,0],[0.1,0.2,0],[0.9,0.2,0],[0.5,0,0],[0.995,0.63,0],[0.72,0.99,0],[0.5,1,0],[0.28,0.99,0]];shape=mxgraph.kubernetes.icon2;prIcon=svc" vertex="1" parent="UsUYvDEnflECevkJwkC9-159">
          <mxGeometry x="129.03" y="50" width="41.67" height="40" as="geometry" />
        </mxCell>
        <mxCell id="UsUYvDEnflECevkJwkC9-57" style="edgeStyle=orthogonalEdgeStyle;rounded=0;orthogonalLoop=1;jettySize=auto;html=1;exitX=0.5;exitY=1;exitDx=0;exitDy=0;exitPerimeter=0;" edge="1" parent="UsUYvDEnflECevkJwkC9-159" source="UsUYvDEnflECevkJwkC9-44" target="UsUYvDEnflECevkJwkC9-50">
          <mxGeometry relative="1" as="geometry" />
        </mxCell>
        <mxCell id="UsUYvDEnflECevkJwkC9-44" value="" style="aspect=fixed;sketch=0;html=1;dashed=0;whitespace=wrap;fillColor=#2875E2;strokeColor=#ffffff;points=[[0.005,0.63,0],[0.1,0.2,0],[0.9,0.2,0],[0.5,0,0],[0.995,0.63,0],[0.72,0.99,0],[0.5,1,0],[0.28,0.99,0]];shape=mxgraph.kubernetes.icon2;prIcon=svc" vertex="1" parent="UsUYvDEnflECevkJwkC9-159">
          <mxGeometry x="87.36" y="50" width="41.67" height="40" as="geometry" />
        </mxCell>
        <mxCell id="UsUYvDEnflECevkJwkC9-46" style="edgeStyle=orthogonalEdgeStyle;rounded=0;orthogonalLoop=1;jettySize=auto;html=1;exitX=0.5;exitY=0;exitDx=0;exitDy=0;exitPerimeter=0;entryX=0.5;entryY=0;entryDx=0;entryDy=0;entryPerimeter=0;" edge="1" parent="UsUYvDEnflECevkJwkC9-159" source="UsUYvDEnflECevkJwkC9-40" target="UsUYvDEnflECevkJwkC9-44">
          <mxGeometry relative="1" as="geometry" />
        </mxCell>
        <mxCell id="UsUYvDEnflECevkJwkC9-47" style="edgeStyle=orthogonalEdgeStyle;rounded=0;orthogonalLoop=1;jettySize=auto;html=1;exitX=0.5;exitY=0;exitDx=0;exitDy=0;exitPerimeter=0;entryX=0.5;entryY=0;entryDx=0;entryDy=0;entryPerimeter=0;" edge="1" parent="UsUYvDEnflECevkJwkC9-159" source="UsUYvDEnflECevkJwkC9-40" target="UsUYvDEnflECevkJwkC9-43">
          <mxGeometry relative="1" as="geometry" />
        </mxCell>
        <mxCell id="UsUYvDEnflECevkJwkC9-48" style="edgeStyle=orthogonalEdgeStyle;rounded=0;orthogonalLoop=1;jettySize=auto;html=1;exitX=0.5;exitY=0;exitDx=0;exitDy=0;exitPerimeter=0;entryX=0.5;entryY=0;entryDx=0;entryDy=0;entryPerimeter=0;" edge="1" parent="UsUYvDEnflECevkJwkC9-159" source="UsUYvDEnflECevkJwkC9-40" target="UsUYvDEnflECevkJwkC9-42">
          <mxGeometry relative="1" as="geometry" />
        </mxCell>
        <mxCell id="UsUYvDEnflECevkJwkC9-50" value="" style="aspect=fixed;sketch=0;html=1;dashed=0;whitespace=wrap;fillColor=#2875E2;strokeColor=#ffffff;points=[[0.005,0.63,0],[0.1,0.2,0],[0.9,0.2,0],[0.5,0,0],[0.995,0.63,0],[0.72,0.99,0],[0.5,1,0],[0.28,0.99,0]];shape=mxgraph.kubernetes.icon2;prIcon=rs" vertex="1" parent="UsUYvDEnflECevkJwkC9-159">
          <mxGeometry x="87.36" y="110" width="41.67" height="40" as="geometry" />
        </mxCell>
        <mxCell id="UsUYvDEnflECevkJwkC9-55" value="" style="aspect=fixed;sketch=0;html=1;dashed=0;whitespace=wrap;fillColor=#2875E2;strokeColor=#ffffff;points=[[0.005,0.63,0],[0.1,0.2,0],[0.9,0.2,0],[0.5,0,0],[0.995,0.63,0],[0.72,0.99,0],[0.5,1,0],[0.28,0.99,0]];shape=mxgraph.kubernetes.icon2;prIcon=rs" vertex="1" parent="UsUYvDEnflECevkJwkC9-159">
          <mxGeometry x="129.03" y="110" width="41.67" height="40" as="geometry" />
        </mxCell>
        <mxCell id="UsUYvDEnflECevkJwkC9-56" value="" style="aspect=fixed;sketch=0;html=1;dashed=0;whitespace=wrap;fillColor=#2875E2;strokeColor=#ffffff;points=[[0.005,0.63,0],[0.1,0.2,0],[0.9,0.2,0],[0.5,0,0],[0.995,0.63,0],[0.72,0.99,0],[0.5,1,0],[0.28,0.99,0]];shape=mxgraph.kubernetes.icon2;prIcon=rs" vertex="1" parent="UsUYvDEnflECevkJwkC9-159">
          <mxGeometry x="170.69999999999985" y="110" width="41.67" height="40" as="geometry" />
        </mxCell>
        <mxCell id="UsUYvDEnflECevkJwkC9-58" style="edgeStyle=orthogonalEdgeStyle;rounded=0;orthogonalLoop=1;jettySize=auto;html=1;exitX=0.5;exitY=1;exitDx=0;exitDy=0;exitPerimeter=0;entryX=0.5;entryY=0;entryDx=0;entryDy=0;entryPerimeter=0;" edge="1" parent="UsUYvDEnflECevkJwkC9-159" source="UsUYvDEnflECevkJwkC9-43" target="UsUYvDEnflECevkJwkC9-55">
          <mxGeometry relative="1" as="geometry" />
        </mxCell>
        <mxCell id="UsUYvDEnflECevkJwkC9-59" style="edgeStyle=orthogonalEdgeStyle;rounded=0;orthogonalLoop=1;jettySize=auto;html=1;exitX=0.5;exitY=1;exitDx=0;exitDy=0;exitPerimeter=0;entryX=0.5;entryY=0;entryDx=0;entryDy=0;entryPerimeter=0;" edge="1" parent="UsUYvDEnflECevkJwkC9-159" source="UsUYvDEnflECevkJwkC9-42" target="UsUYvDEnflECevkJwkC9-56">
          <mxGeometry relative="1" as="geometry" />
        </mxCell>
        <mxCell id="UsUYvDEnflECevkJwkC9-200" value="1" style="ellipse;whiteSpace=wrap;html=1;aspect=fixed;fillColor=#4D9900;strokeColor=none;labelBackgroundColor=none;" vertex="1" parent="UsUYvDEnflECevkJwkC9-159">
          <mxGeometry y="100" width="23" height="23" as="geometry" />
        </mxCell>
        <mxCell id="UsUYvDEnflECevkJwkC9-161" value="ExpressRoute" style="shape=image;verticalLabelPosition=bottom;labelBackgroundColor=#ffffff;verticalAlign=top;aspect=fixed;imageAspect=0;image=data:image/svg+xml,PHN2ZyB4bWxuczpjYz0iaHR0cDovL2NyZWF0aXZlY29tbW9ucy5vcmcvbnMjIiB4bWxuczpkYz0iaHR0cDovL3B1cmwub3JnL2RjL2VsZW1lbnRzLzEuMS8iIHhtbG5zOmlua3NjYXBlPSJodHRwOi8vd3d3Lmlua3NjYXBlLm9yZy9uYW1lc3BhY2VzL2lua3NjYXBlIiB4bWxuczpyZGY9Imh0dHA6Ly93d3cudzMub3JnLzE5OTkvMDIvMjItcmRmLXN5bnRheC1ucyMiIHhtbG5zOnNvZGlwb2RpPSJodHRwOi8vc29kaXBvZGkuc291cmNlZm9yZ2UubmV0L0RURC9zb2RpcG9kaS0wLmR0ZCIgeG1sbnM6c3ZnPSJodHRwOi8vd3d3LnczLm9yZy8yMDAwL3N2ZyIgeG1sbnM9Imh0dHA6Ly93d3cudzMub3JnLzIwMDAvc3ZnIiB4bWxuczp4bGluaz0iaHR0cDovL3d3dy53My5vcmcvMTk5OS94bGluayIgdmVyc2lvbj0iMS4xIiBpZD0ic3ZnMTUzNDg0IiBpbmtzY2FwZTp2ZXJzaW9uPSIwLjkyLjMgKDI0MDU1NDYsIDIwMTgtMDMtMTEpIiBzb2RpcG9kaTpkb2NuYW1lPSJleHByZXNzX3JvdXRlLnN2ZyIgeD0iMHB4IiB5PSIwcHgiIHZpZXdCb3g9IjAgMCA0MS4xNCAyNS4xNCIgc3R5bGU9ImVuYWJsZS1iYWNrZ3JvdW5kOm5ldyAwIDAgNDEuMTQgMjUuMTQ7IiB4bWw6c3BhY2U9InByZXNlcnZlIj4mI3hhOzxzb2RpcG9kaTpuYW1lZHZpZXcgYm9yZGVyY29sb3I9IiM2NjY2NjYiIGJvcmRlcm9wYWNpdHk9IjEiIGZpdC1tYXJnaW4tYm90dG9tPSIwIiBmaXQtbWFyZ2luLWxlZnQ9IjAiIGZpdC1tYXJnaW4tcmlnaHQ9IjAiIGZpdC1tYXJnaW4tdG9wPSIwIiBncmlkdG9sZXJhbmNlPSIxMCIgZ3VpZGV0b2xlcmFuY2U9IjEwIiBpZD0ibmFtZWR2aWV3MTUzNDg2IiBpbmtzY2FwZTpjdXJyZW50LWxheWVyPSJzdmcxNTM0ODQiIGlua3NjYXBlOmN4PSIyNy40MjI4NzEiIGlua3NjYXBlOmN5PSIxNi43NjMwMjgiIGlua3NjYXBlOnBhZ2VvcGFjaXR5PSIwIiBpbmtzY2FwZTpwYWdlc2hhZG93PSIyIiBpbmtzY2FwZTp3aW5kb3ctaGVpZ2h0PSIxMDE3IiBpbmtzY2FwZTp3aW5kb3ctbWF4aW1pemVkPSIxIiBpbmtzY2FwZTp3aW5kb3ctd2lkdGg9IjE5MjAiIGlua3NjYXBlOndpbmRvdy14PSItOCIgaW5rc2NhcGU6d2luZG93LXk9Ii04IiBpbmtzY2FwZTp6b29tPSIyNS44Njk5NDciIG9iamVjdHRvbGVyYW5jZT0iMTAiIHBhZ2Vjb2xvcj0iI2ZmZmZmZiIgc2hvd2dyaWQ9ImZhbHNlIj4mI3hhOwk8L3NvZGlwb2RpOm5hbWVkdmlldz4mI3hhOzxnIGlkPSJnMTUzNDgyIiB0cmFuc2Zvcm09InRyYW5zbGF0ZSgtNC4yODYyMDEzZS01LDAuMDAxMykiPiYjeGE7CTx0aXRsZSBpZD0idGl0bGUxNTM0NDIiPlBhZ2UtMTwvdGl0bGU+JiN4YTsJPGcgaWQ9Imdyb3VwOTQ3OC0xIj4mI3hhOwkJPHRpdGxlIGlkPSJ0aXRsZTE1MzQ0NCI+RXhwcmVzcyBSb3V0ZTwvdGl0bGU+JiN4YTsJCTxnIGlkPSJzaGFwZTk0NzktMiI+JiN4YTsJCQk8dGl0bGUgaWQ9InRpdGxlMTUzNDQ2Ij5TaGVldC45NDc5PC90aXRsZT4mI3hhOwkJCTxwYXRoIGlkPSJwYXRoMTUzNDQ4IiBpbmtzY2FwZTpjb25uZWN0b3ItY3VydmF0dXJlPSIwIiBzdHlsZT0iZmlsbDojNjgyMTdBOyIgZD0iTTM2LjQ5LDE1Ljg5Yy0wLjY1LDAtMS4zMSwwLjE2LTEuOSwwLjQ2ICAgICBsLTkuOC05LjgxYzAuMjYtMC41NSwwLjQtMS4yLDAuNC0xLjkxYzAtMi41Ni0yLjA3LTQuNjMtNC42LTQuNjNjLTIuNTcsMC00LjY0LDIuMDctNC42NCw0LjYzYzAsMC43MSwwLjIxLDEuMzYsMC40NiwxLjkxICAgICBMNi41NiwxNi40Yy0wLjU5LTAuMzEtMS4yNi0wLjQ2LTEuOTYtMC40NkMyLjA3LDE1Ljk0LDAsMTgsMCwyMC41MmMwLDIuNTYsMi4wNyw0LjYyLDQuNiw0LjYyYzIuMDIsMCwzLjY4LTEuMjUsNC4zNC0zLjAxSDMyLjIgICAgIGMwLjY3LDEuNzEsMi4zMywyLjk2LDQuMjksMi45NmMyLjU5LDAsNC42NC0yLjA1LDQuNjQtNC42M0M0MS4xMywxNy45NiwzOS4wOCwxNS44OSwzNi40OSwxNS44OXogTTQuNiwyMi4wMiAgICAgYy0wLjgxLDAtMS41MS0wLjY1LTEuNTEtMS41YzAtMC44LDAuNy0xLjUxLDEuNTEtMS41MWMwLjg1LDAsMS41MiwwLjcxLDEuNTIsMS41MUM2LjEyLDIxLjM3LDUuNDUsMjIuMDIsNC42LDIyLjAyeiBNMjAuNTksMy4xMyAgICAgYzAuODIsMCwxLjUyLDAuNjUsMS41MiwxLjVjMCwwLjgtMC43LDEuNS0xLjUyLDEuNWMtMC44NSwwLTEuNTEtMC43LTEuNTEtMS41QzE5LjA4LDMuNzgsMTkuNzQsMy4xMywyMC41OSwzLjEzeiBNMzIuMTYsMTguOTYgICAgIEg4Ljk0Yy0wLjA1LTAuMTEtMC4xLTAuMjYtMC4xNi0wLjM1bDkuOTEtOS44MWMwLjU1LDAuMjYsMS4yLDAuNDEsMS45LDAuNDFjMC43MiwwLDEuMzItMC4xNSwxLjkzLTAuNDFsOS44Myw5Ljc1ICAgICBDMzIuMjYsMTguNywzMi4yLDE4LjgxLDMyLjE2LDE4Ljk2eiBNMzYuNDksMjEuOThjLTAuOCwwLTEuNDYtMC42Ni0xLjQ2LTEuNTJjMC0wLjgsMC42Ni0xLjQ1LDEuNDYtMS40NSAgICAgYzAuODcsMCwxLjUyLDAuNjUsMS41MiwxLjQ1QzM4LjAxLDIxLjMyLDM3LjM2LDIxLjk4LDM2LjQ5LDIxLjk4eiIvPiYjeGE7CQk8L2c+JiN4YTsJCTxnIGlkPSJzaGFwZTk0ODAtNCIgdHJhbnNmb3JtPSJ0cmFuc2xhdGUoMTUuODA0MywtMTUuNjAxMykiPiYjeGE7CQkJPHRpdGxlIGlkPSJ0aXRsZTE1MzQ1MSI+U2hlZXQuOTQ4MDwvdGl0bGU+JiN4YTsJCQk8cGF0aCBpZD0icGF0aDE1MzQ1MyIgaW5rc2NhcGU6Y29ubmVjdG9yLWN1cnZhdHVyZT0iMCIgc3R5bGU9ImZpbGw6IzdGQkEwMDsiIGQ9Ik0wLDIwLjM3YzAtMi42MywyLjE0LTQuNzcsNC43Ni00Ljc3ICAgICBjMi42NCwwLDQuNzcsMi4xNCw0Ljc3LDQuNzdjMCwyLjY0LTIuMTMsNC43Ny00Ljc3LDQuNzdDMi4xNCwyNS4xNCwwLDIzLjAxLDAsMjAuMzd6Ii8+JiN4YTsJCTwvZz4mI3hhOwkJPGcgaWQ9InNoYXBlOTQ4MS02Ij4mI3hhOwkJCTx0aXRsZSBpZD0idGl0bGUxNTM0NTYiPlNoZWV0Ljk0ODE8L3RpdGxlPiYjeGE7CQkJPHBhdGggaWQ9InBhdGgxNTM0NTgiIGlua3NjYXBlOmNvbm5lY3Rvci1jdXJ2YXR1cmU9IjAiIHN0eWxlPSJmaWxsOiM3RkJBMDA7IiBkPSJNMCwyMC40OGMwLTIuNTgsMi4xNC00LjY2LDQuNzYtNC42NiAgICAgYzIuNjQsMCw0Ljc3LDIuMDgsNC43Nyw0LjY2YzAsMi41Ny0yLjEzLDQuNjYtNC43Nyw0LjY2QzIuMTQsMjUuMTQsMCwyMy4wNSwwLDIwLjQ4eiIvPiYjeGE7CQk8L2c+JiN4YTsJCTxnIGlkPSJzaGFwZTk0ODItOCIgdHJhbnNmb3JtPSJ0cmFuc2xhdGUoMzEuNjA4NikiPiYjeGE7CQkJPHRpdGxlIGlkPSJ0aXRsZTE1MzQ2MSI+U2hlZXQuOTQ4MjwvdGl0bGU+JiN4YTsJCQk8cGF0aCBpZD0icGF0aDE1MzQ2MyIgaW5rc2NhcGU6Y29ubmVjdG9yLWN1cnZhdHVyZT0iMCIgc3R5bGU9ImZpbGw6IzdGQkEwMDsiIGQ9Ik0wLDIwLjQ4YzAtMi41OCwyLjE0LTQuNjYsNC43Ni00LjY2ICAgICBjMi42NCwwLDQuNzcsMi4wOCw0Ljc3LDQuNjZjMCwyLjU3LTIuMTMsNC42Ni00Ljc3LDQuNjZDMi4xNCwyNS4xNCwwLDIzLjA1LDAsMjAuNDh6Ii8+JiN4YTsJCTwvZz4mI3hhOwkJPGcgaWQ9InNoYXBlOTQ4My0xMCIgdHJhbnNmb3JtPSJ0cmFuc2xhdGUoMTguNzI3LC0xOC41MjY1KSI+JiN4YTsJCQk8dGl0bGUgaWQ9InRpdGxlMTUzNDY2Ij5TaGVldC45NDgzPC90aXRsZT4mI3hhOwkJCTxwYXRoIGlkPSJwYXRoMTUzNDY4IiBpbmtzY2FwZTpjb25uZWN0b3ItY3VydmF0dXJlPSIwIiBzdHlsZT0iZmlsbDojRkZGRkZGOyIgZD0iTTAsMjMuMjljMC0xLjAxLDAuODMtMS44NCwxLjg0LTEuODQgICAgIGMxLjAzLDAsMS44NCwwLjgzLDEuODQsMS44NGMwLDEuMDMtMC44MSwxLjg1LTEuODQsMS44NUMwLjgzLDI1LjE0LDAsMjQuMzIsMCwyMy4yOXoiLz4mI3hhOwkJPC9nPiYjeGE7CQk8ZyBpZD0ic2hhcGU5NDg0LTEyIiB0cmFuc2Zvcm09InRyYW5zbGF0ZSgyLjgxNDQ2LC0yLjgxNjg5KSI+JiN4YTsJCQk8dGl0bGUgaWQ9InRpdGxlMTUzNDcxIj5TaGVldC45NDg0PC90aXRsZT4mI3hhOwkJCTxwYXRoIGlkPSJwYXRoMTUzNDczIiBpbmtzY2FwZTpjb25uZWN0b3ItY3VydmF0dXJlPSIwIiBzdHlsZT0iZmlsbDojRkZGRkZGOyIgZD0iTTAsMjMuMjljMC0xLjAxLDAuODMtMS44NCwxLjg0LTEuODQgICAgIGMxLjAzLDAsMS44NCwwLjgzLDEuODQsMS44NGMwLDEuMDMtMC44MSwxLjg1LTEuODQsMS44NUMwLjgzLDI1LjE0LDAsMjQuMzIsMCwyMy4yOXoiLz4mI3hhOwkJPC9nPiYjeGE7CQk8ZyBpZD0ic2hhcGU5NDg1LTE0IiB0cmFuc2Zvcm09InRyYW5zbGF0ZSgzNC41MzEzLC0yLjgxNjg5KSI+JiN4YTsJCQk8dGl0bGUgaWQ9InRpdGxlMTUzNDc2Ij5TaGVldC45NDg1PC90aXRsZT4mI3hhOwkJCTxwYXRoIGlkPSJwYXRoMTUzNDc4IiBpbmtzY2FwZTpjb25uZWN0b3ItY3VydmF0dXJlPSIwIiBzdHlsZT0iZmlsbDojRkZGRkZGOyIgZD0iTTAsMjMuMjljMC0xLjAxLDAuODMtMS44NCwxLjg0LTEuODQgICAgIGMxLjAzLDAsMS44NCwwLjgzLDEuODQsMS44NGMwLDEuMDMtMC44MSwxLjg1LTEuODQsMS44NUMwLjgzLDI1LjE0LDAsMjQuMzIsMCwyMy4yOXoiLz4mI3hhOwkJPC9nPiYjeGE7CTwvZz4mI3hhOzwvZz4mI3hhOzwvc3ZnPg==;" vertex="1" parent="UsUYvDEnflECevkJwkC9-6">
          <mxGeometry x="420.0000000000001" y="50" width="65.6" height="40" as="geometry" />
        </mxCell>
        <mxCell id="UsUYvDEnflECevkJwkC9-183" style="edgeStyle=orthogonalEdgeStyle;rounded=0;orthogonalLoop=1;jettySize=auto;html=1;entryX=0;entryY=0.5;entryDx=0;entryDy=0;startArrow=classic;startFill=1;" edge="1" parent="UsUYvDEnflECevkJwkC9-6" source="UsUYvDEnflECevkJwkC9-160" target="UsUYvDEnflECevkJwkC9-161">
          <mxGeometry relative="1" as="geometry" />
        </mxCell>
        <mxCell id="UsUYvDEnflECevkJwkC9-160" value="Firewall" style="image;aspect=fixed;html=1;points=[];align=center;fontSize=12;image=img/lib/azure2/networking/Firewalls.svg;" vertex="1" parent="UsUYvDEnflECevkJwkC9-6">
          <mxGeometry x="330" y="290" width="47.33" height="40" as="geometry" />
        </mxCell>
        <mxCell id="UsUYvDEnflECevkJwkC9-180" style="edgeStyle=orthogonalEdgeStyle;rounded=0;orthogonalLoop=1;jettySize=auto;html=1;startArrow=classic;startFill=1;" edge="1" parent="UsUYvDEnflECevkJwkC9-6" source="UsUYvDEnflECevkJwkC9-50" target="UsUYvDEnflECevkJwkC9-160">
          <mxGeometry relative="1" as="geometry">
            <Array as="points">
              <mxPoint x="168" y="310" />
            </Array>
          </mxGeometry>
        </mxCell>
        <mxCell id="UsUYvDEnflECevkJwkC9-181" style="edgeStyle=orthogonalEdgeStyle;rounded=0;orthogonalLoop=1;jettySize=auto;html=1;entryX=0.001;entryY=0.499;entryDx=0;entryDy=0;entryPerimeter=0;startArrow=classic;startFill=1;" edge="1" parent="UsUYvDEnflECevkJwkC9-6" source="UsUYvDEnflECevkJwkC9-55" target="UsUYvDEnflECevkJwkC9-160">
          <mxGeometry relative="1" as="geometry">
            <Array as="points">
              <mxPoint x="210" y="310" />
            </Array>
          </mxGeometry>
        </mxCell>
        <mxCell id="UsUYvDEnflECevkJwkC9-182" style="edgeStyle=orthogonalEdgeStyle;rounded=0;orthogonalLoop=1;jettySize=auto;html=1;entryX=0.005;entryY=0.499;entryDx=0;entryDy=0;entryPerimeter=0;startArrow=classic;startFill=1;" edge="1" parent="UsUYvDEnflECevkJwkC9-6" source="UsUYvDEnflECevkJwkC9-56" target="UsUYvDEnflECevkJwkC9-160">
          <mxGeometry relative="1" as="geometry">
            <Array as="points">
              <mxPoint x="250" y="310" />
            </Array>
          </mxGeometry>
        </mxCell>
        <mxCell id="UsUYvDEnflECevkJwkC9-206" value="5" style="ellipse;whiteSpace=wrap;html=1;aspect=fixed;fillColor=#4D9900;strokeColor=none;labelBackgroundColor=none;" vertex="1" parent="UsUYvDEnflECevkJwkC9-6">
          <mxGeometry x="320" y="270" width="23" height="23" as="geometry" />
        </mxCell>
        <mxCell id="UsUYvDEnflECevkJwkC9-151" value="" style="group" vertex="1" connectable="0" parent="1">
          <mxGeometry x="790" y="1200" width="260" height="250" as="geometry" />
        </mxCell>
        <mxCell id="UsUYvDEnflECevkJwkC9-12" value="agw-nsg" style="image;aspect=fixed;html=1;points=[];align=center;fontSize=12;image=img/lib/azure2/networking/Network_Security_Groups.svg;" vertex="1" parent="UsUYvDEnflECevkJwkC9-151">
          <mxGeometry x="79.99999999999994" width="32.94" height="40" as="geometry" />
        </mxCell>
        <mxCell id="UsUYvDEnflECevkJwkC9-54" value="" style="rounded=0;whiteSpace=wrap;html=1;fillColor=none;strokeColor=#548de0;dashed=1;" vertex="1" parent="UsUYvDEnflECevkJwkC9-151">
          <mxGeometry x="20" y="100" width="130" height="90" as="geometry" />
        </mxCell>
        <mxCell id="UsUYvDEnflECevkJwkC9-10" value="" style="rounded=0;whiteSpace=wrap;html=1;fillColor=none;strokeColor=#82b366;dashed=1;" vertex="1" parent="UsUYvDEnflECevkJwkC9-151">
          <mxGeometry y="20" width="260" height="230" as="geometry" />
        </mxCell>
        <mxCell id="UsUYvDEnflECevkJwkC9-11" value="agw-subnet" style="shape=image;verticalLabelPosition=bottom;labelBackgroundColor=#ffffff;verticalAlign=top;aspect=fixed;imageAspect=0;image=data:image/svg+xml,PHN2ZyB4bWxuczpjYz0iaHR0cDovL2NyZWF0aXZlY29tbW9ucy5vcmcvbnMjIiB4bWxuczpkYz0iaHR0cDovL3B1cmwub3JnL2RjL2VsZW1lbnRzLzEuMS8iIHhtbG5zOmlua3NjYXBlPSJodHRwOi8vd3d3Lmlua3NjYXBlLm9yZy9uYW1lc3BhY2VzL2lua3NjYXBlIiB4bWxuczpyZGY9Imh0dHA6Ly93d3cudzMub3JnLzE5OTkvMDIvMjItcmRmLXN5bnRheC1ucyMiIHhtbG5zOnNvZGlwb2RpPSJodHRwOi8vc29kaXBvZGkuc291cmNlZm9yZ2UubmV0L0RURC9zb2RpcG9kaS0wLmR0ZCIgeG1sbnM6c3ZnPSJodHRwOi8vd3d3LnczLm9yZy8yMDAwL3N2ZyIgeG1sbnM9Imh0dHA6Ly93d3cudzMub3JnLzIwMDAvc3ZnIiB4bWxuczp4bGluaz0iaHR0cDovL3d3dy53My5vcmcvMTk5OS94bGluayIgdmVyc2lvbj0iMS4xIiBpZD0ic3ZnOTkyNDkiIGlua3NjYXBlOnZlcnNpb249IjAuOTIuMyAoMjQwNTU0NiwgMjAxOC0wMy0xMSkiIHNvZGlwb2RpOmRvY25hbWU9InN1Ym5ldHMuc3ZnIiB4PSIwcHgiIHk9IjBweCIgdmlld0JveD0iMCAwIDM0Ljg0IDIxLjYxIiBzdHlsZT0iZW5hYmxlLWJhY2tncm91bmQ6bmV3IDAgMCAzNC44NCAyMS42MTsiIHhtbDpzcGFjZT0icHJlc2VydmUiPiYjeGE7PHNvZGlwb2RpOm5hbWVkdmlldyBib3JkZXJjb2xvcj0iIzY2NjY2NiIgYm9yZGVyb3BhY2l0eT0iMSIgZml0LW1hcmdpbi1ib3R0b209IjAiIGZpdC1tYXJnaW4tbGVmdD0iMCIgZml0LW1hcmdpbi1yaWdodD0iMCIgZml0LW1hcmdpbi10b3A9IjAiIGdyaWR0b2xlcmFuY2U9IjEwIiBndWlkZXRvbGVyYW5jZT0iMTAiIGlkPSJuYW1lZHZpZXc5OTI1MSIgaW5rc2NhcGU6Y3VycmVudC1sYXllcj0ic3ZnOTkyNDkiIGlua3NjYXBlOmN4PSI0MC45MTcxNDUiIGlua3NjYXBlOmN5PSIwLjYzNzUyNTg2IiBpbmtzY2FwZTpwYWdlb3BhY2l0eT0iMCIgaW5rc2NhcGU6cGFnZXNoYWRvdz0iMiIgaW5rc2NhcGU6d2luZG93LWhlaWdodD0iMTAxNyIgaW5rc2NhcGU6d2luZG93LW1heGltaXplZD0iMSIgaW5rc2NhcGU6d2luZG93LXdpZHRoPSIxOTIwIiBpbmtzY2FwZTp3aW5kb3cteD0iLTgiIGlua3NjYXBlOndpbmRvdy15PSItOCIgaW5rc2NhcGU6em9vbT0iMTAuNjM5NDk0IiBvYmplY3R0b2xlcmFuY2U9IjEwIiBwYWdlY29sb3I9IiNmZmZmZmYiIHNob3dncmlkPSJmYWxzZSI+JiN4YTsJPC9zb2RpcG9kaTpuYW1lZHZpZXc+JiN4YTs8ZyBpZD0iZzk5MjQ3IiB0cmFuc2Zvcm09InRyYW5zbGF0ZSgtNC4yMzMxNzQ5ZS01KSI+JiN4YTsJPHRpdGxlIGlkPSJ0aXRsZTk5MjI3Ij5QYWdlLTE8L3RpdGxlPiYjeGE7CTxnIGlkPSJncm91cDQ2NTQtMSI+JiN4YTsJCTx0aXRsZSBpZD0idGl0bGU5OTIyOSI+U3VibmV0czwvdGl0bGU+JiN4YTsJCTxnIGlkPSJzaGFwZTQ2NTUtMiIgdHJhbnNmb3JtPSJ0cmFuc2xhdGUoMjIuNjEzKSI+JiN4YTsJCQk8dGl0bGUgaWQ9InRpdGxlOTkyMzEiPlNoZWV0LjQ2NTU8L3RpdGxlPiYjeGE7CQkJPHBhdGggaWQ9InBhdGg5OTIzMyIgaW5rc2NhcGU6Y29ubmVjdG9yLWN1cnZhdHVyZT0iMCIgc3R5bGU9ImZpbGw6IzM5OTlDNjsiIGQ9Ik0xMi4yMywxMC42OEw5Ljg0LDguMjlMMS4zOSwwTDAsMS4yNmw5LjU4LDkuNDIgICAgIEwwLDIwLjM1bDEuMzksMS4yNmw4LjQ1LTguM0wxMi4yMywxMC42OHoiLz4mI3hhOwkJPC9nPiYjeGE7CQk8ZyBpZD0ic2hhcGU0NjU2LTQiPiYjeGE7CQkJPHRpdGxlIGlkPSJ0aXRsZTk5MjM2Ij5TaGVldC40NjU2PC90aXRsZT4mI3hhOwkJCTxwYXRoIGlkPSJwYXRoOTkyMzgiIGlua3NjYXBlOmNvbm5lY3Rvci1jdXJ2YXR1cmU9IjAiIHN0eWxlPSJmaWxsOiMzOTk5QzY7IiBkPSJNMCwxMC42OGwyLjM5LTIuMzlMMTAuODQsMGwxLjM5LDEuMjYgICAgIGwtOS41OCw5LjQybDkuNTgsOS42N2wtMS4zOSwxLjI2bC04LjQ1LTguM0wwLDEwLjY4eiIvPiYjeGE7CQk8L2c+JiN4YTsJCTxnIGlkPSJzaGFwZTQ2NTctNiIgdHJhbnNmb3JtPSJ0cmFuc2xhdGUoMTQuODY4NSwtOC41MzE5NykiPiYjeGE7CQkJPHRpdGxlIGlkPSJ0aXRsZTk5MjQxIj5TaGVldC40NjU3PC90aXRsZT4mI3hhOwkJCTxwYXRoIGlkPSJwYXRoOTkyNDMiIGlua3NjYXBlOmNvbm5lY3Rvci1jdXJ2YXR1cmU9IjAiIHN0eWxlPSJmaWxsOiM3RkJBMDA7IiBkPSJNNC45MSwxOS4yMWMwLDEuMzgtMS4xMywyLjQtMi4zOSwyLjQgICAgIFMwLDIwLjQ2LDAsMTkuMjFjMC0xLjI2LDEuMTMtMi4zOCwyLjUyLTIuMzhTNC45MSwxNy45NSw0LjkxLDE5LjIxeiIvPiYjeGE7CQk8L2c+JiN4YTsJPC9nPiYjeGE7PC9nPiYjeGE7PC9zdmc+;imageBackground=default;" vertex="1" parent="UsUYvDEnflECevkJwkC9-151">
          <mxGeometry width="63.64" height="40" as="geometry" />
        </mxCell>
        <mxCell id="UsUYvDEnflECevkJwkC9-5" value="AGW" style="image;sketch=0;aspect=fixed;html=1;points=[];align=center;fontSize=12;image=img/lib/mscae/Application_Gateway.svg;" vertex="1" parent="UsUYvDEnflECevkJwkC9-151">
          <mxGeometry x="180" y="79.5" width="40" height="40" as="geometry" />
        </mxCell>
        <mxCell id="UsUYvDEnflECevkJwkC9-52" value="Client IP rate limit" style="image;sketch=0;aspect=fixed;html=1;points=[];align=left;fontSize=12;image=img/lib/mscae/Policy.svg;labelPosition=right;verticalLabelPosition=middle;verticalAlign=middle;" vertex="1" parent="UsUYvDEnflECevkJwkC9-151">
          <mxGeometry x="30" y="140" width="18" height="20" as="geometry" />
        </mxCell>
        <mxCell id="UsUYvDEnflECevkJwkC9-53" value="API Key rate limit" style="image;sketch=0;aspect=fixed;html=1;points=[];align=left;fontSize=12;image=img/lib/mscae/Policy.svg;labelPosition=right;verticalLabelPosition=middle;verticalAlign=middle;" vertex="1" parent="UsUYvDEnflECevkJwkC9-151">
          <mxGeometry x="30.00000000000003" y="160" width="18" height="20" as="geometry" />
        </mxCell>
        <mxCell id="UsUYvDEnflECevkJwkC9-34" value="FE and BE Certificates" style="image;sketch=0;aspect=fixed;html=1;points=[];align=center;fontSize=12;image=img/lib/mscae/Certificate.svg;" vertex="1" parent="UsUYvDEnflECevkJwkC9-151">
          <mxGeometry x="176.19000000000005" y="150" width="47.62" height="40" as="geometry" />
        </mxCell>
        <mxCell id="UsUYvDEnflECevkJwkC9-157" style="edgeStyle=orthogonalEdgeStyle;rounded=0;orthogonalLoop=1;jettySize=auto;html=1;" edge="1" parent="UsUYvDEnflECevkJwkC9-151" source="UsUYvDEnflECevkJwkC9-17" target="UsUYvDEnflECevkJwkC9-5">
          <mxGeometry relative="1" as="geometry" />
        </mxCell>
        <mxCell id="UsUYvDEnflECevkJwkC9-17" value="WAF" style="image;aspect=fixed;html=1;points=[];align=center;fontSize=12;image=img/lib/azure2/networking/Web_Application_Firewall_Policies_WAF.svg;" vertex="1" parent="UsUYvDEnflECevkJwkC9-151">
          <mxGeometry x="24.64" y="79.5" width="39" height="39" as="geometry" />
        </mxCell>
        <mxCell id="UsUYvDEnflECevkJwkC9-166" value="Private IP" style="image;aspect=fixed;html=1;points=[];align=center;fontSize=12;image=img/lib/azure2/networking/Public_IP_Addresses_Classic.svg;" vertex="1" parent="UsUYvDEnflECevkJwkC9-151">
          <mxGeometry x="200" width="49.23" height="40" as="geometry" />
        </mxCell>
        <mxCell id="UsUYvDEnflECevkJwkC9-186" value="1" style="ellipse;whiteSpace=wrap;html=1;aspect=fixed;fillColor=#4D9900;strokeColor=none;labelBackgroundColor=none;" vertex="1" parent="UsUYvDEnflECevkJwkC9-151">
          <mxGeometry x="159.99999999999994" y="138.5" width="23" height="23" as="geometry" />
        </mxCell>
        <mxCell id="UsUYvDEnflECevkJwkC9-201" value="2" style="ellipse;whiteSpace=wrap;html=1;aspect=fixed;fillColor=#4D9900;strokeColor=none;labelBackgroundColor=none;" vertex="1" parent="UsUYvDEnflECevkJwkC9-151">
          <mxGeometry x="7" y="113.5" width="23" height="23" as="geometry" />
        </mxCell>
        <mxCell id="UsUYvDEnflECevkJwkC9-204" value="3" style="ellipse;whiteSpace=wrap;html=1;aspect=fixed;fillColor=#4D9900;strokeColor=none;labelBackgroundColor=none;" vertex="1" parent="UsUYvDEnflECevkJwkC9-151">
          <mxGeometry x="170" y="20" width="23" height="23" as="geometry" />
        </mxCell>
        <mxCell id="UsUYvDEnflECevkJwkC9-158" style="edgeStyle=orthogonalEdgeStyle;rounded=0;orthogonalLoop=1;jettySize=auto;html=1;entryX=0.005;entryY=0.63;entryDx=0;entryDy=0;entryPerimeter=0;" edge="1" parent="1" source="UsUYvDEnflECevkJwkC9-5" target="UsUYvDEnflECevkJwkC9-40">
          <mxGeometry relative="1" as="geometry">
            <Array as="points">
              <mxPoint x="1050" y="1300" />
              <mxPoint x="1050" y="1415" />
            </Array>
          </mxGeometry>
        </mxCell>
        <mxCell id="UsUYvDEnflECevkJwkC9-26" value="" style="group" vertex="1" connectable="0" parent="1">
          <mxGeometry x="781" y="1510" width="260" height="250" as="geometry" />
        </mxCell>
        <mxCell id="UsUYvDEnflECevkJwkC9-152" value="" style="group" vertex="1" connectable="0" parent="UsUYvDEnflECevkJwkC9-26">
          <mxGeometry x="10" y="-50" width="180" height="140" as="geometry" />
        </mxCell>
        <mxCell id="UsUYvDEnflECevkJwkC9-27" value="" style="rounded=0;whiteSpace=wrap;html=1;fillColor=none;strokeColor=#82b366;dashed=1;" vertex="1" parent="UsUYvDEnflECevkJwkC9-152">
          <mxGeometry y="20" width="180" height="120" as="geometry" />
        </mxCell>
        <mxCell id="UsUYvDEnflECevkJwkC9-28" value="kv-subnet" style="shape=image;verticalLabelPosition=bottom;labelBackgroundColor=#ffffff;verticalAlign=top;aspect=fixed;imageAspect=0;image=data:image/svg+xml,PHN2ZyB4bWxuczpjYz0iaHR0cDovL2NyZWF0aXZlY29tbW9ucy5vcmcvbnMjIiB4bWxuczpkYz0iaHR0cDovL3B1cmwub3JnL2RjL2VsZW1lbnRzLzEuMS8iIHhtbG5zOmlua3NjYXBlPSJodHRwOi8vd3d3Lmlua3NjYXBlLm9yZy9uYW1lc3BhY2VzL2lua3NjYXBlIiB4bWxuczpyZGY9Imh0dHA6Ly93d3cudzMub3JnLzE5OTkvMDIvMjItcmRmLXN5bnRheC1ucyMiIHhtbG5zOnNvZGlwb2RpPSJodHRwOi8vc29kaXBvZGkuc291cmNlZm9yZ2UubmV0L0RURC9zb2RpcG9kaS0wLmR0ZCIgeG1sbnM6c3ZnPSJodHRwOi8vd3d3LnczLm9yZy8yMDAwL3N2ZyIgeG1sbnM9Imh0dHA6Ly93d3cudzMub3JnLzIwMDAvc3ZnIiB4bWxuczp4bGluaz0iaHR0cDovL3d3dy53My5vcmcvMTk5OS94bGluayIgdmVyc2lvbj0iMS4xIiBpZD0ic3ZnOTkyNDkiIGlua3NjYXBlOnZlcnNpb249IjAuOTIuMyAoMjQwNTU0NiwgMjAxOC0wMy0xMSkiIHNvZGlwb2RpOmRvY25hbWU9InN1Ym5ldHMuc3ZnIiB4PSIwcHgiIHk9IjBweCIgdmlld0JveD0iMCAwIDM0Ljg0IDIxLjYxIiBzdHlsZT0iZW5hYmxlLWJhY2tncm91bmQ6bmV3IDAgMCAzNC44NCAyMS42MTsiIHhtbDpzcGFjZT0icHJlc2VydmUiPiYjeGE7PHNvZGlwb2RpOm5hbWVkdmlldyBib3JkZXJjb2xvcj0iIzY2NjY2NiIgYm9yZGVyb3BhY2l0eT0iMSIgZml0LW1hcmdpbi1ib3R0b209IjAiIGZpdC1tYXJnaW4tbGVmdD0iMCIgZml0LW1hcmdpbi1yaWdodD0iMCIgZml0LW1hcmdpbi10b3A9IjAiIGdyaWR0b2xlcmFuY2U9IjEwIiBndWlkZXRvbGVyYW5jZT0iMTAiIGlkPSJuYW1lZHZpZXc5OTI1MSIgaW5rc2NhcGU6Y3VycmVudC1sYXllcj0ic3ZnOTkyNDkiIGlua3NjYXBlOmN4PSI0MC45MTcxNDUiIGlua3NjYXBlOmN5PSIwLjYzNzUyNTg2IiBpbmtzY2FwZTpwYWdlb3BhY2l0eT0iMCIgaW5rc2NhcGU6cGFnZXNoYWRvdz0iMiIgaW5rc2NhcGU6d2luZG93LWhlaWdodD0iMTAxNyIgaW5rc2NhcGU6d2luZG93LW1heGltaXplZD0iMSIgaW5rc2NhcGU6d2luZG93LXdpZHRoPSIxOTIwIiBpbmtzY2FwZTp3aW5kb3cteD0iLTgiIGlua3NjYXBlOndpbmRvdy15PSItOCIgaW5rc2NhcGU6em9vbT0iMTAuNjM5NDk0IiBvYmplY3R0b2xlcmFuY2U9IjEwIiBwYWdlY29sb3I9IiNmZmZmZmYiIHNob3dncmlkPSJmYWxzZSI+JiN4YTsJPC9zb2RpcG9kaTpuYW1lZHZpZXc+JiN4YTs8ZyBpZD0iZzk5MjQ3IiB0cmFuc2Zvcm09InRyYW5zbGF0ZSgtNC4yMzMxNzQ5ZS01KSI+JiN4YTsJPHRpdGxlIGlkPSJ0aXRsZTk5MjI3Ij5QYWdlLTE8L3RpdGxlPiYjeGE7CTxnIGlkPSJncm91cDQ2NTQtMSI+JiN4YTsJCTx0aXRsZSBpZD0idGl0bGU5OTIyOSI+U3VibmV0czwvdGl0bGU+JiN4YTsJCTxnIGlkPSJzaGFwZTQ2NTUtMiIgdHJhbnNmb3JtPSJ0cmFuc2xhdGUoMjIuNjEzKSI+JiN4YTsJCQk8dGl0bGUgaWQ9InRpdGxlOTkyMzEiPlNoZWV0LjQ2NTU8L3RpdGxlPiYjeGE7CQkJPHBhdGggaWQ9InBhdGg5OTIzMyIgaW5rc2NhcGU6Y29ubmVjdG9yLWN1cnZhdHVyZT0iMCIgc3R5bGU9ImZpbGw6IzM5OTlDNjsiIGQ9Ik0xMi4yMywxMC42OEw5Ljg0LDguMjlMMS4zOSwwTDAsMS4yNmw5LjU4LDkuNDIgICAgIEwwLDIwLjM1bDEuMzksMS4yNmw4LjQ1LTguM0wxMi4yMywxMC42OHoiLz4mI3hhOwkJPC9nPiYjeGE7CQk8ZyBpZD0ic2hhcGU0NjU2LTQiPiYjeGE7CQkJPHRpdGxlIGlkPSJ0aXRsZTk5MjM2Ij5TaGVldC40NjU2PC90aXRsZT4mI3hhOwkJCTxwYXRoIGlkPSJwYXRoOTkyMzgiIGlua3NjYXBlOmNvbm5lY3Rvci1jdXJ2YXR1cmU9IjAiIHN0eWxlPSJmaWxsOiMzOTk5QzY7IiBkPSJNMCwxMC42OGwyLjM5LTIuMzlMMTAuODQsMGwxLjM5LDEuMjYgICAgIGwtOS41OCw5LjQybDkuNTgsOS42N2wtMS4zOSwxLjI2bC04LjQ1LTguM0wwLDEwLjY4eiIvPiYjeGE7CQk8L2c+JiN4YTsJCTxnIGlkPSJzaGFwZTQ2NTctNiIgdHJhbnNmb3JtPSJ0cmFuc2xhdGUoMTQuODY4NSwtOC41MzE5NykiPiYjeGE7CQkJPHRpdGxlIGlkPSJ0aXRsZTk5MjQxIj5TaGVldC40NjU3PC90aXRsZT4mI3hhOwkJCTxwYXRoIGlkPSJwYXRoOTkyNDMiIGlua3NjYXBlOmNvbm5lY3Rvci1jdXJ2YXR1cmU9IjAiIHN0eWxlPSJmaWxsOiM3RkJBMDA7IiBkPSJNNC45MSwxOS4yMWMwLDEuMzgtMS4xMywyLjQtMi4zOSwyLjQgICAgIFMwLDIwLjQ2LDAsMTkuMjFjMC0xLjI2LDEuMTMtMi4zOCwyLjUyLTIuMzhTNC45MSwxNy45NSw0LjkxLDE5LjIxeiIvPiYjeGE7CQk8L2c+JiN4YTsJPC9nPiYjeGE7PC9nPiYjeGE7PC9zdmc+;imageBackground=default;" vertex="1" parent="UsUYvDEnflECevkJwkC9-152">
          <mxGeometry width="63.64" height="40" as="geometry" />
        </mxCell>
        <mxCell id="UsUYvDEnflECevkJwkC9-19" value="kv" style="image;aspect=fixed;html=1;points=[];align=center;fontSize=12;image=img/lib/azure2/security/Key_Vaults.svg;" vertex="1" parent="UsUYvDEnflECevkJwkC9-152">
          <mxGeometry x="70" y="74" width="40" height="40" as="geometry" />
        </mxCell>
        <mxCell id="UsUYvDEnflECevkJwkC9-31" value="kv-nsg" style="image;aspect=fixed;html=1;points=[];align=center;fontSize=12;image=img/lib/azure2/networking/Network_Security_Groups.svg;" vertex="1" parent="UsUYvDEnflECevkJwkC9-152">
          <mxGeometry x="80" width="32.94" height="40" as="geometry" />
        </mxCell>
        <mxCell id="UsUYvDEnflECevkJwkC9-45" style="edgeStyle=orthogonalEdgeStyle;rounded=0;orthogonalLoop=1;jettySize=auto;html=1;" edge="1" parent="1" source="UsUYvDEnflECevkJwkC9-19" target="UsUYvDEnflECevkJwkC9-41">
          <mxGeometry relative="1" as="geometry" />
        </mxCell>
        <mxCell id="UsUYvDEnflECevkJwkC9-36" style="edgeStyle=orthogonalEdgeStyle;rounded=0;orthogonalLoop=1;jettySize=auto;html=1;" edge="1" parent="1" source="UsUYvDEnflECevkJwkC9-19" target="UsUYvDEnflECevkJwkC9-34">
          <mxGeometry relative="1" as="geometry" />
        </mxCell>
        <mxCell id="UsUYvDEnflECevkJwkC9-60" value="Azure Cloud" style="shape=image;verticalLabelPosition=bottom;labelBackgroundColor=default;verticalAlign=top;aspect=fixed;imageAspect=0;image=data:image/png,iVBORw0KGgoAAAANSUhEUgAABLAAAASwCAYAAADrIbPPAAAABGdBTUEAALGPC/xhBQAAACBjSFJNAAB6JgAAgIQAAPoAAACA6AAAdTAAAOpgAAA6mAAAF3CculE8AAAABmJLR0QA/wD/AP+gvaeTAAEUdklEQVR42uzdh5uddZn4/6FIydQg1u+qu7ZVEUhIIwlgaIE0CISEJBCIi6JUUToIhBYIJAQSEggtkAYMgVADCBoFRXHZr7v61S3qb22E9BDAivD8rjll5jlnzkymnPI557ze13Vf/gNceZ7n5X2fqamRJEmSJEmSJEmSJEmSJEmSJEmSJEmSJEmSJEmSJEmSJEmSJEmSJEmSJEmSJEmSJEmSJEmSJEmSJEmSJEmSJEmSJEmSJEmSJEmSJEmSJEmSJEmSJEmSJEmSJEmSJEmSJEmSJEmSJEmSJEmSJEmSJEmSJEmSJEmSJEmSJEmSJEmSJEmSJEmSJEmSJEmSJEmSJEmSJEmSJEmSJEmSJEmSJEmSJEmSJEmSJEmSJEmSJEmSJEmSJEmSJEmSJEmSJEmSJEmSJEmSJEmSJEmSJEmSJEmSJEmSJEmSJEmSJEmSJEmSJEmSJEmSJEmSJEmSJEmSJEmSJEmSJEmSJEmSJEmSJEmSJEmSJEmSJEmSJEmSJEmSJEmSJEmSJEmSJEmSJEmSJEmSJEmSJEmSJEmSJEmSJEmSJEmSJEmSJEmSJEmSJEmSJEmSJEmSJEmSJEmSJEmSJEmSJEmSJEmSJEmSJEmSJEmSJEmSJEmSJEmSJEmSJEmSJEmSJEmSJEmSJEmSJEmSJEmSJEmSJEmSJEmSJEmSJEmSJEmSJEmSJEmSJEmSJEmSJEmSJEmSJEmSJEmSJEmSJEmSJEmSJEmSJEmSJEmSJEmSJEmSJEmSJEmSJEmSJEmSJEmSJEmSJEmSJEmSJEmSJEmSJEmSJEmSJEmSJEmSJEmSJEmSJEmSJEmSJEmSJEmSJEmSJEmSJEmSJEmSJEmSJEmSJEmSJEmSJEmSJEmSJEmSJEmSJEmSJEmSJEmSJEmSJEmSJEmSJElSefWBkefV1o2a+b6Gw6/+VN+RMz7fcMQ1g7PnfZMXHvjh0+447B8vfeToT1752MRP37Tm5FzzqTnfnp4xNz73xe3OrMz55HXP/kvGzHz6lE9e+9SXWuYTVz/2ZWOMKfb0W/zdw/f/zu+HHPBvfxzQ6fyotHPQj7Z96qCX//xPB7z4et+hL0W7e8JJkiRJKq9mzNixBaeaDr9qetMRV97cdPjVjzUdfuVPmg6/alPT4VdFTYdfmZzD0jMja65ITOOhlyem7+hrovdPnRd95Ix7o49f+kj02XkvRvs98j/RsB++Hh3wr28ZY0z1zI+Dng0H/Otbrxzw4zcfOeBf35pzwL++Ne3AH735uYnN0U4ejJIkSZICKNqhceR1A5oOv/qypiOufaFp5NVvNY28OmqdBFrFp3uA1TaXJeeQ5DQdfkX0gRPnRZ+Y8XjUb8X/A1rGGHAV1LyZnJfffHP4j9/83vB/feOSA1/54341UbSD56YkSZKkoqFV05HXjWg64pq7G0deu67piGuippHpuTrKB2BtH7G+mZpLo8aDL436HjEj+ofTF0efv/PlaPhLW33wGmOgVanQKjXDs+flxKwb9vJbdx/wwzdH1ETRjp6nkiRJkvJe42EzPt73iOuuaTri2t80HXFtlJxrokzAyh9idQewGg++JDkjLor2OPKK6J8ufCDab+V/+Qg2xkCrIsJVB2jVwbzxm2E/evPq/X+49R89YSVJkiT1uqbDr+3X98iZy5qOmPl20xEzo+RkAdYRxQasyzoArIsTiJWYL1wYfeCEudFet78UDf/xGz6OjTHgqrjbVl2dd4a9/NYTB/xw2xBPXEmSJEndruHI6wY1HTHzW21oFZ/CA1aPtrDigDXiwgRiNXzhguh9x82K9r7z5eTHlg9mYwy0KjVa5Z4fv/mtYT/+4yBPYEmSJEnbbY9Rs/6h6Yjr7mw68rq/Nx15XdQ5YIV5RpgNWIk56PzERla/B3/u49kYA60KfiLY43l3+MtvNh/08uv/5IksSZIkqX0DFr2nafR1M/oeed2f+rbAVXxKtIWVjzPCOGAl57zoI2cvjvZfs84HtTEGXJVq22r78+cDXn5zxl4/j3bxgJYkSZKUqO+RN+7T98jr/63vkddHLXjVPcC6tgCANSPvZ4RxwGqZviMvjT4377s+ro0x0CoctMo1Pxv+8h8HelJLkiRJ1dyMGTs2HXndFX1HXf+3JF61AVbfXgFWuGeEacBqOPDcqOHAb0QfOf2uaOj3NvrgNsZUPVwFhFbZ8/bwH7955cTmaCcPbkmSJKnKqj9m5nv7Hnn9s31HXR8l5sj4dHcLq/zOCJOI9Y3EvHfsjGi/lf/p49sYY9sqLLjKmGEvv/ndET9+64Oe4JIkSVKV9N7RM4f0HTXrt31HzYryA1jleUaY3sJqOODrUdOI86PPzndSaIyBVoHP7w744bYhnuSSJElShdc0+saj+46a9ackXsUAa1R7wCrvM8KLu3xGmEaslvn4xQ9GB7z8pg90Y4y/Ihju/OWAl9+c6IkuSZIkVSxe3TC976hZb7fhVRZiVfEZYRqwGg44J/rY1+6Nhv9omw92Y4xtq3Dn78NffvOrnuySJElShdV31A2X9B11w7vt8coZYSZinRM1DD8n+odTF0bDfrjVx7sx0ApahTo/ejMa9sM3L/WElyRJkiqkptE3nt131A1RcjoBLGeEyRneglhfi/7PqbfZxDIGWjkRDAytsmfYy29c4EkvSZIklT1e3TC97+iWzavOAMsZYfYZYQti1Q8/O/rIV2+Phv/4DR/3xoAr21YBoVXWvOucUJIkSSrj9hhzw8S+o294p+/oNF51YQur5GeEVwZzRtiyhVU/7Kzony5Y4iPfGGgFrcKDq/i8M/yHb07y5JckSZLKrKaxc/btO/rGtxJ4lR5nhN0+I6wfdnZUP/SM6DM3Peej3xhw5UQwLLTKnj8Pf/mPA70BSJIkSWVSwxE37dF39A2/7jv6xqjrgFUpZ4TfzPsZYf3QM6OG4WdF/Vb8BwAwBlrZtgoLrTLnh2/+dtgP3ny/NwFJkiQp9CY277TH6Bu/ncSr9GQDljPC7p4R1g89Pep72HnR4Of+AASMgVbQKjS4ypw1E5ujnbwQSJIkSQHXd/QNF2XiVXe2sKrxjPD8Lp8R1u9/WvThk25MfmBCAmPAlRPBkNAqa9642BuBJEmSFGh7HHH9Xn1H3/jnrgHWDc4Iu3lGWL//6VH9kK9Gn5nzDCgwBlrZtgoOrTLmbwf86I8DvBlIkiRJoTVq3q59R9/47+3xqszOCA8P+4ywBbAaDjgzGvTU/4IDY6AVtAoPruLzH6NWR7t6QZAkSZICqu+o2Zd0jFfOCPN5Rlg/5NToQyfOggjGgCsnguGhlVNCSZIkKdTef9TNH+g7+sZt3QesKj0jHNH7M8K6wV+O9r7rJaBgDLSybfWjoOfN4d//44e9KUiSJEkBtMeoG+/tHK+cEebvjPCMFGCdGu0x6qJo2A+3AgZjoJUTwZDnh2/c601BkiRJKnGN427Yr+/oG9/pFmA5I+zeGeEBuc4IvxLVDfpS9OnrHocNxoAraBX2vOsH3SVJkqQSt8foGx/uGl45I+ztGWECsbLOCJsOOSca9tIW8GCMbSsngmHPw94YJEmSpBL13nGzP9P17av8nRH2LegZ4VVldUbYsoX1mTnPQAhjoBW4CnwLa/iP39zLm4MkSZJUgvqOvvG+7uGVM8JCnBHuMfLcaPiPtkEJY5wIQqsgfwMrPX4LS5IkSSp6ex4x90N9R9/4t/wAljPCDrewunBGWDfolOjzi16EE8bYtoJWwaFVxvxtxI/f+qA3CEmSJKmI9R01+4K+o2dHbeOMsJRnhB8+6UZQYQy0AlfhoVXmvPTG+d4gJEmSpGIC1ugbf5EJWN2BrGo5I7ysaGeEdYNPiQY/+ztwYcCVE0FoFSJcpedHb/5XTRTt4C1CkiRJKkJ7jL1xaG686g5mOSPM9xnhp65cCTAMtLJtBa1CQ6usGfaDN4Z6k5AkSZKKUN/Rsxd0DbA6wyxnhB1vYfXsjPC9oy+EGQZaQStwFSBaxeeAH7650JuEJEmSVOgmNu/UNHr2uu4DVjZmleiM8IgKPSNs2cIa+C/RgFX/BTcMuHIiCK0ChKvYbBixJtrZC4UkSZJUwBrHzjm0d3iVA7KcEfbsjHBY+zPCj196P+Qw0Mq2FbQKD60y5sCX3jrUG4UkSZJUwPqOmb2o75jZUev0GrBujPqOSk+JzwgLhlgFPiPc/7TWM8I9jrwg+dEMPgy0glbgKii0yvgdrJfeXOSNQpIkSSpUI2bsvMfY2eszAKtXmHVjB4h1gzPCXpwR7rfyFwDEgCsngtAqQLiKzcYBr0Tv8WIhSZIkFaA9xt0wskO86jFmZQPWjVknhTc4I+zuGeEly0GIgVa2raBVeGgVDf/hG60z9KVtR3izkCRJkgpQ05g5d3UZsLqMWV0BrBsyt7GcEXZ+RjjyXGeEBlpBK3AVDFplwlVs7vJmIUmSJOW7AYve03fM7E09AqxOMauzM8IOftz9yPQ4I+zwjPChn0MSA66cCEKrHwWHVvHZstfPo128YEiSJEl5rO+o2aN6jVcdYlY3t7COjE9yG8sZYdYZ4cVLYYmBVratoFV4aNU6w1r+90fbRnvDkCRJkvLYHmNmL847YLVCVnfPCNsDVhKxUuOMMNrjcGeEBlpBKyeCocHVsKwZ+sM37vWGIUmSJOWriTN26Ttm9uaCAdaYG9smL4B1XWyq94yw/4M/AykGXDkRtG0VyLZVzvnRG1tHrY529aIhSZIk5aG+Y28cVzi8ykKsjN/E6u4ZYUeIlZ6AzggPKcAZ4dDMM8J/uuA+oGKglW0raBUaWmXNAT98Y5w3DUmSJCkvgDV7SUkAa/QNbdOrLazsbayZOQDrmoo5I6wfkjwj7HvoOdEBLzsjNNDKiSC0KtWJ4HbnpcT/LvWmIUmSJPW2UfN27Ttm9utFA6wxHQBW6/QGsDo4KayEM8LhOc4IB50S9V/xH7DFgCtoBa4C2bZqRavMeWPoS9HuXjgkSZKkXtQ0bvb4wuNVF7ew4og1OjdiNXV5CysOWOm5puLOCP/xvMXQxdi2ciIIrUqNVrnhqnWGvvTGeG8ckiRJUi/qO2b2imABK76NNaonZ4TZgHVt+5PCcj8jPOScaPiP34AwBlrZtoJWpToR7NK8ucIbhyRJktTD/nHEjN36jpm9reiANaaHgJWaplE9OSPMBVjXRE2HX52a8j0j7Lf8J0DGOBGEVuCqdCeC252hL73x1sj/WFfrzUOSJEnqQXuMnjOh75g5UXICPiPMQqym+ByZL8CKQ1ZxzghbEau3Z4Tn3g1mjG0raAWtSngi2KX5wZsTvHlIkiRJPajvmNkPtgFWsSCrl2eE2YjVAljx6fYZYUeIdVXUdNhVZXFG2HTw2dHwl50RGmgFrpwIBodWGVtY2x705iFJkiR1sw+PW9Sn75g5b7UHrEJjVh7PCHMBVuv0dgsrDVhX5djGKtUZ4TkdnhHuu+zfoI1xIgitbFuV6ESwi7+D9ccRazbUeQORJEmSutEeo2+a1DleFRKzCnBGmAuwjgwBsIpzRvixc+6CN9DKthW0glaBbFt1NMN/+Obx3kAkSZKkbtQ0ds7K7gFWPjGrwGeEccDKRqwj8oVYyen2GWECsQpwRjjiLGeE0ApagSsnggGiVcb88I2V3kAkSZKkLvaBkTfWbv98sJCYVcQzwlyAlZhrktNrwLoiNsU8Izyz/Rnhfa+AHXDlRBBa2bYKDa0y589DfrS5wZuIJEmS1IX6jp49JT941RvMKtEZYTZgtUJWPgDrisxNrCKfEX70a3cAHmhl2wpaQasw4Sr+Y+5TvYlIkiRJXQKsOasKA1jdwawSnxF2hFjpyQdiHXJ5J1tY+T8jbPzCGdHwH74OfKAVtAJXTgQDQ6usedSbiCRJkrSd9jxqVn3fMXP+VHjA2h5m5fmMMF9bWBlzVXJ6BVgxxDr4mwU/I9xn8cvwB1w5EYRWTgTDnr8MeGVLozcSSZIkqZOaRs+eVly86gyzAjwjzAVY6U2sw7t7RhgHrDRipbawRlxSmDPCM2+HQNDKthW0ciIY+vxg2zRvJJIkSVIn9R09+/HSAlZ8ivFj7jPzj1iJ6e4ZYXwL69LYFlZqEytfZ4QHnRENe8kZIbSCVuDKiWDg84Q3EkmSJKmDmsbPbeo7Zs5fwgGs2DZW6GeEuQArNt07I4xvYaUB66KoIYFYF/b+jPCeHwIicOVEEFo5EQx7/jb0pW17eDORJEmScgHW6DnTw8GrLMQaHZ/AzwhzAdZhV7TNdrewsgErC7EO6uC3sLp6Rnj6QlAErWxbQSsngqHPD9+Y7s1EkiRJylHfsTetDhawMhAr10lhoGeEHSFWYrp7RhjfwoqdEh6YjVhxwDq73Rlhw/DTomEvbQFH0Mq2lRNBJ4JB/v5Vcoa+9MZqbyaSJElSVo1jruvbd8ycv5YfYMUhK/AzwlyA1Q6xOjojvLgDwDo/BljnRg0HfCM12WeEp2ecEe595w8gEriCVratnAgGhlZZ87fBL7/xXm8okiRJUgZg3XRK05g5UVNwgNXRGWFHiHVD1HfUDeGfEeZCrEMvS06PzgjPywKsr0cNw7+e44zw1ARgfeS0W2EStHIiCK2cCIYJV60z/PtvnOINRZIkSYrVd/ScZ9OAFZ/y28KKI9YNuRErtDPCXICVmJ6cEcYQKwFY56TOCM9sf0b4/c1wCVrZtoJWTgQDQ6vMefNZbyiSJElSqvpxs/dsGjPn7VyAFQZm9Qaw2raxmhIT8BlhGrHigHXIJUnEOrgnZ4TJLaz6li2soWdF9fufkbGF9fk7nBGCK2gFrmxbhYdWGfP2sB+8+X5vKpIkSVLifHD2qU1j50SJGdO1KY8zwlyAlZojrw//jDAbsA5ObWGN6MkZ4VnJH3MfclpUN/griS2sfzh1PnCCVk4EoRW0ChOuYj/m/uZXvKlIkiRJNTU1TWPnPN8KWPEJCrN6e0aYhVgJwLo+C7ICPSM8JAdgjbgwOV/oyRlhC2B9OWoY5owQWtm2glZOBENEq8zZ9rw3FUmSJFV9daPmva9p7E1v5wSsoDArn2eE2YiVYxMr1DPCFGJlANYXzk/OQT04I1z0IoxyIgitwJW/IhgcWmXM34f86K0PeGORJElSVdd3zJzTmsbeFLXNnChczCrEGWEHv4d1xMzU5B+wur+F1cEZYS7ASkwLYnXxjPDLt0Ap21bQClo5EQwTruI/5n66NxZJkiRVdU1jb1qTCVghY1YxzghzIdbM8M8I2wFWCrEOTCNWB2eE+381GvbiJkjlrwiCKyeC0Co4tMqY73pjkSRJUtX2vtE3fLBp7E1/7xiwQsOsYp4RZgNWHLICPyPMBqwDv55ArPr0FlbWGeFeC74HrJwIQivbVk4Ew0Or+Lwz/Pt//LA3F0mSJFVlTWPmntU1vAoJs4p4RpgTsbJ+Fyv0M8IYYDUccE5UPzx1Rrj/aVHdkOQZ4f/50s3QyokgtIJWtq3ChKv4j7mf5c1FkiRJ1QlYY296oWeAVUrMKuUZYUeIdU1qAj8jTADW2VH9sNgZ4eCWv0b4lWjoC5uglW0rcOVEEFoFh1YZ86I3F0mSJFVdex4x90NNY296p/eAVWzMCuWMMBdgxSEr8DPCxBZW2xnh525dA66gFbSybVW9cPWDsph3D/j+lo96g5EkSVJV1TRmzjn5xavCYFZ5nBHmAqyry+eMcPCXog//y03QyokgtIJWtq0Cn6EvbTvHG4wkSZKqqsaxN71UWMAqJGaFfEbYEWKlJ8wzwvr9T42Gfm8DtLJtBa4qHK6gVfmhVda85A1GkiRJVdMeR8/5SNPYm94tHmDlG7O6Clg3lviMMBdgXZmxkRXUGeH8b4MraAWtbFs5EQz8jHDYD7Z+zJuMJEmSqqKmMTedWxq8yidmzU5O2ZwRdoRYV0aNh80I44zw5NnQyokgtIJW4Crk+f4b0bAX3zjXm4wkSZKqA7DG3vRyGIDVG8yanYFYySmXM8JcgBWfrpwRXlKYM8LvrodWtq3AlRNBaBUiXH2/FbBe9iYjSZKkiq/vuFs+WrrzwXxiVm7Aik95nBHmAqzUJtahVxT/jPDm58AVtIJWtq2gVWholT0/eP0T3mgkSZJU0TWOnXtB2HjVHcyanZzRHSNWcsrljLAzxLq8l2eE5+Y4Izy73Rnhh066AVo5EYRW0ApchYhWmVtYF3qjkSRJUkXXNHbuK+UFWJ1h1uy2GdM5YLVO2ZwR5gKsDn4Lq7dnhENPbzsjHPLlaP9vvwatbFuBKyeC0CpEuGqdN1/xRiNJkqSKrXHM3I+Hfz7YHczKAqzE3JicjhBrVHzK5Yww1xbWpVHjwZdmIFavzwiHJM8IPzv3WXAFraCVbStoFRxaxWdbNOR72z7lzUaSJEkVWd+xcy6uDLzKAVljciBWBmblBqyWaUxNz7awin1GeFkOwLokahxxcWLyckZ44vXQyokgtIJW4CpAtIrP8O+/fok3G0mSJFVkTWNv+kllAlb8rxTmAKzE3JCc0e0BK45YjUden5jyOCOMIVYrYKV/C+vCnp8RDv5ytP93XoNWtq3AlRNBaBUgXLXNG//uzUaSJEkVV/3oOZ+uPLzKBVhzOt7EiiPW6NxbWHHEajzyusSUxxnhJTkA64LkHHR+t88IPzPnGXAFraCVbStoFRxaZc7+P3zzs95wJEmSVFE1jZl7WWUC1k05AGtO1knh7NyAlZhZickNWG2IlYFZwZ8RXpQDsFLbWAee16Uzwg+eMBNagStoBa3AVYBoFZ+h3992mTccSZIkVRZgjbvppxUPWGM7A6zZmZtYWYCVQKz0dAJYiTliZmLK44wwF2Cdu90zwrohX4qGPPeqE0FoBa6cCEKrAOGqbV7/mTccSZIkVUzvHTf7M01j50bJqRbA2g5iZfx1wizASmxkXZ+cTgArPuVxRpgFWCnEqh9+Ts4zwn++YbVtK2gFrWxbQavg0CpjAysa8sKbn/OmI0mSpIqoaezcGW2AFZ9qOyPMBVhtiJUTsBJzXXI6RaxrW6dTwMr7FlZvzgjTW1ip38IaemZUv//prWeEH5hyjRNBcAWtoBW4ChCt4jPsxW0zvOlIkiSpMgBrzE0/zw1YlYRZ3T0jzAas5DQmpgPAik+OLaw4YiWmHM4IW7ewYj/mPuSrUd3gUxOnhIOf/b0TQWgFrpwI2rYKEK5i81/edCRJklT29R19097bx6tKwKw5edjCSgNWakbN6hiwjpzZNp0AVnxCPiNM/BZW6xlh+sfcvxz986wnnQhCK2gFrqBVeGiVOS+9tbc3HkmSJJV1TePmXtV9wCpXzCoEYM3qGLLiiJWYzgErOVcnJtgzwmHxM8IvR++fdI0TQXAFraCVE8EQ0So2+/9g29XeeCRJklTWNY6d+4veAVY5YVY+zwhzAVbWWWE7wEohVnpyIlYSsBoPv6p1gjwjbNnCSp8RPv07J4LQClxBK9tWAcJV6+9gfX/bf3vjkSRJUtnWNHpuv/zhVTlg1pwCbmFd335af9S9A8BKINY1yekEsJJzZWKKc0Z4frfOCD8983EngtDKtpUTQWgVGFq1Q6wfbO3nzUeSJEllWePYuTMLB1ihYlbvAavrW1jXZ/5lwsR0AFjx2Q5itU53t7AKdUY48SonguAKWtm2glYBolViXkzNC2/M9OYjSZKksqxp7NxfFgewQsKsYp4R5gKs69pvY7VDrKuTMzLPgFWoM8JBX4oGP/UbJ4LQyokgtAJXocDViznn1zVRtIO3H0mSJJVVjWNuGdA0bm6UmLGlmkr7MffuAlb6rxRe2zFgxacDwGponRKeEV77qBNBaGXbyokgtApl26qDGfLi6wO8AUmSJKms6jt27qxWwIpPVWBWqc8IcwFWfDpBrJFXJqcTxEpMsc8Ij53hRBBcQSvbVtAqQLSKz7AXX5/lDUiSJEllVdO4ub/KCVhVgVkhnRF2hljXbB+wDu8YsJJzedRQpDPCQU/9rxNBaOVEEFqBq9KdCHZlfuuMUJIkSWVTw9ibBm8Xryoes0I8I8wFWFfHpgPAOnxG1JCeXICVQKxvpiZPZ4TDz253Rvipqx6xbQWtbFtBK2gVyLZVR7P/i9uGeBOSJElSWdQ07ubZ3QaskkPW3Co7I+wIsWKQ1RFiHX5FcjIA67I2xDr40qjh4EsS034Lq+dnhO875nJoBa6gFbiCVgGiVSZgvT7bm5AkSZLKoGiHpnFzf9NjwKoYzCqnM8JcgBX/64QdAFZ6G+uwLMA65NI2xErgVf7OCAc+/msngratnAhCK3AVGFpl/g7Wtt85I5QkSVLw7TF27tC84FVFYFY5nhHmAqzkJlZDYjoArJY5NAdgtSJWErDqv9AyvTgjnLHSthW0sm0FraBVgHCVMd97Y5g3IkmSJAVd07i5cwsCWGWJWd0ErDEFPiPMG2LFICsDsC5LItahacS6JOcWVgtgJeag8xPTnTPCPY/+JrRyIgitwBW0ChGtMudmb0SSJEkKuMT54G8LDlhlg1mVdEaYC7Dif50wB2AlpgWxLs65hZUGrPqDzovqD2yZrp4R/sqJoG0rJ4LQClyFh1bxWVsTRTt6L5IkSVKQ9R1z04FFxauywKxKPCPMBVhXZCJWHLDSiHVwFmDFESsFWPUHfiM5nZwRfvKKh7q+bQWtoJVtK2hl26okM/z7bxzozUiSJElB1jRu7rySAlaQmFXpZ4TZgJVGrPSPuscBK4ZYIy7ocAsrDVj1qS2suqwzwveOu9iJILSCVuAKWgWIVhnzwrb53owkSZIUXjNm7Ng07uZXgwGsIDCrGs8IswEr/ntYccBKI9b5qTkv5xZWErDOiuqGnhHVxc4IB6z6b2gFrpwIQisngmHPaxObo528IEmSJCmomsbOHdE07uYoc2BWBmRVzRnh5e0BK45YIy6KAVYMsVq2sA46N6o/KAZYB5wT1Q0/uw2whnwlqh385egTlz3grwhCK9tW0Mq2VeCz/4tbR3hDkiRJUlA1jrtlYXvAglkZJ4Vj0lNtZ4RZgBVHrMTvYcW2sNKIldjC+npyUmeEdakzwhbA2mPMReAKWkErcAWtAp9h39+20BuSJEmSwmli805N425e1zlgVTNm3dQBYs2p0jPCNGBlI9Z57bewDkxvYZ0V1Q1rOyOsHfSlaL+H/xNagSsngtDKiWDYs2HEmmhnL0qSJEkKosaxtxzadbyqVszKBqybsk4K51ThGWEcsC6InRGelwlYB6bOCFu2sIa2nRF+/JIV0ApagStoZdvqxaB/yD0a+sLrh3pTkiRJUhD1HTd3Uc8Bq1owqyuANSdzG6sst7B6ekaY/VtY8R90b9nCSp0RDj09qtv/q1HtkC9He4y6IBr+ozfAFbSCVk4EoVWQcJWa772xyJuSJEmSSt+IGTs3jbt5fX4Aq5Ixq7Mzwg5+3H10eqrpjDC+hXVuG2Klf8w9fUY45NSodvCXov4rfwGtwBW0sm3lRDA0tIrNsBe2bRzwSvQeL0ySJEkqaY3j5o3MP15VKmZ1cwtrdHyS21jVdUZ4bsYWVl3ix9zPSm5hDflq4ozwny5eDq2gFbiCVratAoSrrDnCG5MkSZJKWtO4m+8qPGBVCmZ194ywPWAlESs1VXVG+I3UGWELYCW3sGqHnBr1PeL8cM4IoRW0AlfQClrlnhdfv8sbkyRJkkrXqYve0zTu5k3FBaxyxqzenBHmAqwbYlONZ4TJH3Pv/+DPoRW4glbgClyFhlaZs2Wvn0e7eHGSJElSSeo7bu6o0uFVuWJWPs4IcyFWjm2sajkjvGgZtIJWTgShFbQKE65aZ/j3to325iRJkqSS1DTu5sXhAFa5YFa+zwhv6ACxUlMNZ4Qji3RGCK2gFbiCVtCqN3OvNydJkiQVv4kzdmkad/PmMAErZMwq5BlhLsC6PjYVfEZ4/8+glRNBaAWuwFV4aBWfraNWR7t6gZIkSVJR6zv2pnHh41WomHVTG2QV7IwwF2DFIasMzghbEWv7Z4T/eMFSaGXbClpBK2gVJly1zv4vvjHOG5QkSZKKWtO4uUvKD7BCwaybMjexElOsLazsbazryv6MsG7IqVHTYd9IQgi4glbgqozR6g1oVYFolQFYL2xb6g1KkiRJxWvUvF2bxt3yenkDVikx66YciDWnbboLWD3eworNETNTU75nhP1W/Ae0ciIIrWxbgavA0Cpr3hj6UrS7FylJkiQVpaZxc8dXDl6VCrM62MLKnoKeEXYGWNf2DrAOL/4Z4cfOuxda2baCVtAKWoUJV7F5Y7w3KUmSJBWlxnE3r6hcwCoWZnUTsAp+RtgRYl0bNY68pjzOCA/9RjTsR9ucCEIrcOVEEFq9EPSs8CYlSZKkgvePIxbv1jTu5m3VAViFxKztnBHmAqzWubGIW1hpwIpPD37MvUhnhPsu+4ltKyeC0Mq2lRPBsOetfZ5dV+uNSpIkSQWtcdzNE6oPrwqFWT3Ywooj1pgbo8YxpQCs1CbW4Vd3AFhXluyM8KPfuAda2baCVtDKtlXgM+yF1yd4o5IkSVJB6ztu7oMAK1+Q1cstrDhiJSDrhhIhVhtk5eeM8KIenxE2HnxONOylbdAKWoEraAWtQp4Xtz3ojUqSJEkF68PjFvVpOuqWt5rG3RIlB2L1DrPyDFhpxEpMKQDrqqihdUp3RrjPff8GrpwIQitwBa3Cnj+OWLOhzpuVJEmSClLjuFsmNR11S5QxMKuXmJWnM8JcgBWfogPWVW2bWMX+a4Tn3AWtbFtBK2gFrkKd772emP2/9/rx3qwkSZJUkJqOvmVlO8CCWb3ErAKcEXaEWAnIKiZipc4JW7ewCnFGeE77M8JDvlYeZ4TQClxBK2hVLWgVg6sYYK30ZiVJkqS894GRN9Ymzgc7AyyY1QPMKvAZYS7Aik9RAWtG1HDoFZ1sYfXmjPDMzDPCe/8VXDkRhFbgCloFhlZZ8+chP9rc4A1LkiRJea3vuHlTuoxXMKubmFWkM8JcgJWY65KTJ8DqHLGuaEOsQy7L/xnh/qm/Rnj2ndDKthW0glbgKjy0ypptU71hSZIkKa81HT1vVY8BC2ZtZ0pwRlhgxOoSYGUj1sGXdv2M8KDOzwgbvnBWNOz7W6EVtHIiWAK4gla2rboBWI96w5IkSVLe2vOoWfVNR93yp7wAFszqfBur24BVoC2sI2emppBnhHHAiv9FwkuihhEX9/qMcO+7XwZXTgRtW9m2glbBoVXG/GXAc1savWlJkiQpLzWNu2Va3vEKZuVGrLHxKeEZYRyw4rNdwLq6h2eE8S2sNGBd3MkW1vbPCD9y5iJoZdsKWkErcBUeWmXMsO9um+ZNS5IkSfkCrMcLDlhVj1lzcyBWjpPCYp4RdoRYR1yTnIKdEV6SiVhfiP8W1gVdPyMccVY0tJBnhNAKXDkRhFa2rXo/3936hDctSZIk9R6vxs9tajrqlr8UFbCqErO2B1ipGRPAFlYasFqnkGeE8S2sFGIddH5qztvuGeHn7/oRuIJW4Mq2FbQKDa1is//3Xv/b0Je27eGNS5IkSb0DrHHzppcMr6oOs3KdEXaEWHOyMKvEgJVGrJGFPCOMb2GlAasNsXKdEf7D6bdBKyeC0Apagavw0CpzXtg63RuXJEmSelXjUTevDgawKh6zurOFNScHZJXgjLAjxBp5VWIKd0aYawvr68ktrKFntp4R1h94RjT0xc1lhlZvQitw5UQQWlUHXLXNam9ckiRJ6jlejVnYt+moW/4aJGBVJGb1BrDatrGC2MJKA1Z6CnpGmEKsA+I/5n5GVDekZQvr1GivO15yIgitoBW4glbhoVV8/jb4+Tfe681LkiRJPQOscTefEjxeVRxm9eSMsDPAurFjwMqJWL0ErK4g1uHdOCM8+JJunhFm/ph77ZCvRP9w2kIngtAKWkErcBUeWmXM0O+9foo3L0mSJPWovkff8mzZAVbZY1ZvzwizEGt0fG4IYwurBbASc0UKsQp5RviVqOHAM6L9v7fZiSC4AlfQyrZVgHAVA6xnvXlJkiSp29WPm71n01G3vF3WgNUOsm6pHMDq9hZW9m9i3RAAYKW2sA67PDmHFu6M8PO3/8CJILSybQWuoFVgaJU1bw/7wZvv9wYmSZKkbtV41C2nVgRelSVmFeKMMBdgpWbUrNKcEca3sNKAdeg3k5PnM8L/c+qtTgShFbSCVk4Ew0Or7C2sr3gDkyRJUrdqOvqW5ysSsMoCswp9RpgLsOJTgjPC+BZWGrASk58zwvoDzoj2/+5mJ4LgyokgtLJtFSBcxeZ5b2CSJEnqcnWj5r2vYs4HyxKzinlGmAuwYhtZpTgjjG9htQBWArEujuoP7uVfI1z4ohNBaGXbyokgtAoPreLz9yHPv/UBb2KSJEnqUn2PmndaVeFVkD/+XoozwlyAlZ7rughY1+T3jDCGWAnAOviiqH7Ehcnp5hnhh788z4kgtIJWtq2gVXhoFe3/3bYZ8t1tp3sTkyRJUpdqGjdvTdNR86KqRqySY1apzwg7QqwckFWMM8KMLawUYI1IAdYXunhGOOz0aOiajU4EwZUTQWgFrkKAq+92MN97/bvexCRJkrTd3jd6wQebjpr39yRgxQdmFRezQjojzAVYsZPCYp8RttvCOj8157UhVgdnhJ+79btOBKGVbSsngtAqkG2rDuad4d/f+GFvZJIkSeq0pnG3nNUer2BWaTCrUGeEN/bijDAbsGZGjUdcm5oSnBHGt7DSgHXQuVH9QS1bWDn+GuG/3OJEEFpBK3AFrcJDq6zZdpY3MkmSJHUOWEfNe2H7gAWzioNZoZ8R5kKs9JTgjLAVsVKAdWDqjHDYmVHd0PQZ4WnR0O9sdCIIrpwIQitwFRxaZQDWi97IJEmS1GF9jp37ocaj5r3TeNS8qLFbiAWzCoNZ5XJGmAuwUptYI6/p+hnh4Xk8I2xBrBbAOuBrUd3w9BbWV6PaIadGn533HSeC0Mq2FbSCVkHCVeu8e8D3t3zUm5kkSZJy1jRu3jlpvMoemFUqzCq3M8KOEKsNsop+RtgCWMNif43wizc5EYRW0ApcQavw0Cpjhq7Zeo43M0mSJOWs8eh5L3UEWDCrVJhVzmeEuQDr6vydEbYiVjfOCPf/SlQ39KvR/t9eB63AlRNBaAWuAkOr+Az57usveTOTJElSu/Y4esFHGo+a925XAAtmFROz5hZwC6vUgJWeK4t/Rnjzt50IQivbVtAKWgUIV/EzwmHf3voxb2iSJEnKqOmoeed2F69gVrEwq0zOCHuNWCnIKsIZ4Yemz7ZtBa2gFbiCVuGhVeYW1ve2nusNTZIkSRk1jpv3cm8BC2YVCrMq+YwwF2DlQKxCnBE+/xq0AlflAVfQClxV4IlgF+dlb2iSJElqre+4Wz7ak/NBmFUszKqWM8JcW1hpxLosE7HycEb4z3Ofg1bQyrYVtIJWYcJV6wz79uuf8KYmSZKkRI1Hzb+gUHgFs/KFWTdX2RlhCrEyAOubqbm0h2eEZ2ecEX7wpBvBFbSCVuAKWgWIVhnzvdcv9KYmSZKkJGAdPe+VYgEWzOrp3JycFsgae3OVnRFengOwLo0aDr6kC2eE5+U4Izw9eUa4/1eiwc+thVbgyokgtHIiGDZgveJNTZIkSTWNE+Z+vPHoee82Hj0vah2YFS5gHRX7bayOIKuizwhjiNUKWBdH9SMuSk6HZ4TfyH1GOOdZaAWtbFtBK9tWgc+Q7237lDc2SZKkageso265OAOvsgdmhbmF1eFfKCzkFlaJzggP6+iM8NL2gJX4Laz072Ft/4zwAyfeAK6gFbQCV9Aq/LnEG5skSVK1A9bR83/SKWCVFWTNq74trPgPvKdnzE2pqaYzwotzAFZqE6uzM8IhX4kGP/sqtAJXTgRtWzkRDHv+3RubJElSFVd/zK2f7hJewayAAasDxGo9J4xjVpWcEY7IBVjnRfUHnhvVJbawss4Ib3gaWkEr21bQyrZVqLMmNd9787Pe3CRJkqq0hvHzL+sRYMGsMM8IcwFWBmS1bWPl/4zwukDPCGOA1XJKeEDLFtbXkltY+5+ePCOcej20glbQyokgtAoVrlIz5LvbLvPmJkmSVKU1Hj3vp70GLJgV5hlhrr9QOHZOcsbMiRoTiDW7ys4IUz/mngCs2BbW/l+JBj3ze3AFrqCVbSsngoGhVdb8zJubJElSFVY/bv5n8opXfvw9/C2sGGI1jp2dnARipaeazgjPTgFW8sfcP339amgFrcAVtLJtFR5aZW5hPf/m57zBSZIkVVlN4+fPKChgwaygAasdYrVCVo5trDI4I2xFrB6eEb5/8kxwBa1sW0EraBUoXLXN1hne4CRJkqoNsI6e//PGo+dHbQOzygez8nBGmAuwcv42VpWcEQ75SjTwqd9BK3AFrcCVE8Hg0Cq2gbXm9f/yBidJklRF9T16/t6ZeJU9MCt8zMrjGeHYHIAVn1E3pKbCzwivexJaQSsngtDKtlVgaJU9Q7+3ZW9vcpIkSVVS01Hzr+ocsGBW+JhVoDPCjhCr9ZwwPdmAdX35nxFOugZcQSvbVtAKWgUKV7Ezwqu9yUmSJFVJjUfP/0XXAQtmhYlZRTgjzAVYuX4bq1RnhK2Ilc8zwt9CKyeC0ApcQavg0Co23339v73JSZIkVUFN4xf06xlewazwMKuIZ4S5AGv0rOS0OyUs3zPCT137BLSybQWtoBW4Cg2tsmbYmq39vNFJkiRVeI3j58/MD2DBrNJjVonOCHMBVnxyQVaZnBG+b+LV4ApagStoBa0ChavWH3P/zuszvdFJkiRVOmAdPf+X+QcsmFUazArgjLAjxBp1XXLSZ4XlckY4+NRo4OP/a9vKiSC0AlfQKjC0yvgh9+++/uuaKNrBW50kSVKl4tX4WwYUFq9gVvExK6Azws4AK7GFlZ6wzwg/efVj0Mq2FbSCVuAqMLTKsYU1wJudJElSpQLWUfNnFRewYFbhMSuQM8KuIlbrSWEMskI7I5xwpRNBaAWuoJVtqyDhamvbfHfLLG92kiRJlQpYR8//VekAC2YVBrPK6Iww+8fdj7w2OSGeET72/9m2ciIIrcAVtAoRrloBa+tvnRFKkiRVYA3j5w0OA69gVv4xq4zOCHMBVvqcMLWN1ZBGrA7PCGcU/IzwE1c+Aq1sW0EraAWuQkOr7PnOtiHe8CRJkiqsxqNunR0mYMGs3mNWqc8I84xYR1wTNRxxdRKyDr+6uGeEQ5NnhHseMwNaQStwBa2gVYholTmzveFJkiRVVNEOjUfP/034gAWzeoZZFXBGmAuw0og18urYNlaRzgiHnBoNeOSX4MqJILRyIgitwoSr9PzOGaEkSVIFVX/MrUPLC69gVvcxq4LOCHMBVvp3sUamtrEOu7LwZ4SXPwytbFtBK9tW4Co8tIr2/07bDP325mHe9CRJkiqkhqPmzS1vwIJZ28esCj0jzIVYGeeEV7QhVp7PCN979OXQClqBK2gFrQKFqzbA2nqzNz1JkqSKKHE++NvKASyYlXuq4IwwF2AdfkXmOeEhl+X1jHC/UM8InQhCK3AFraoYrTIA6ztb19bMiHb0vidJklTm9T163oGViVclwKzgISu1jVUtZ4SJiQFW9o+6H3xpr88IP375Q9DKthW0sm0FrgJDq+wZ/PyWA73xSZIklXlNR8+fVx2ABbPaACs+1bKFlQVYh6Z/C6sFsS6J6kdc3KMzwj3GXQqtoJUTQWgFrQKFq9ZZs3W+Nz5JkqRybsaMHRuOnv9q9QFWtZ4Y3pIDsXJsY1XyGWErYrX9Flb9IZdkItYXOtrC6uCMcOV/gytoZdvKiSC0Cg2tYjPkO6+/NrE52smLnyRJUpnWNH7+iOrFq2rFrFxbWDe3n2o4I0whVitgpc8JD44j1gXbPyP8ZjO0AlfQyrYVuAoOrTJn/zVbR3jzkyRJKtMaj7p1YePRt0bJgVjVgVldBay5qanEH3O/rP0WVjZgtZwSJqYFsM5PzXntzghbtrD2GHMJtLJtBa2gFbQKFK7SM/g7ry/05idJklSOTWzeqfHoW9e1AVZ8IFblYtYtrdM1wIpPFZwR5gKs+DlhYgvr61HdsLMzzgj7N/8nuIJW4MqJILQKDK0yAWvrhhFrop29AEqSJJVZjeNvPTQ3XsGsysesFGKNa5uuI1ZyGyvsM8Kr83NGmAuwDjo3qjvw61HdAanfwto/+WPuH7/4AWjlRBBa2bZyIhgYWmXPoO+8fqg3QEmSpHIDrKNuXdQ1wIJZlYdZ7QGrcdzNrdMVwEoi1pzkVMMZYfwH3Vt+zL0FsIafFdUNS/4W1h6jLkoiELSybQWtoBW0Cg6u2mbLIm+AkiRJ5dSIGTs3jr91feP4W6PEHN2TgVjli1m35ECsm9tPVwErgVjpCfXH3PN4Rpjewmr5MfcWwBqa/DH3fg/+wokgtAJX0MqJYHBolTEbB7wSvceLoCRJUpnUOH7ByFa8yh6YVSWY1fkWVhyx0tP+jDAXYOXYxqr0M8Khp0e1+38l+qeLVti2glbQClzZtgoPrbJ+C2vbEd4EJUmSygew7uoQsGBWlWBW17ew2k+uM8KOECs15XJGeEjPzwj7HnlB+zNCaAWuoBW0sm0VBFylZ//vbL3Lm6AkSVI5dOqi9zSOv3VTlwALZlUwZvUOsNpme1tYacC6MTYVfEa44v85EYRW4ApaQavA0CprtuzVHO3ihVCSJCnwGsbPH9VtvIJZFYpZ3T8jbI9YbYDV0GXAikNWAQDriNKdEf7jBctsW0EraAWunAiGh1bZP+Y+2huhJElS8IB16+JeAxbMqhDMyu8WVgtgtU13EOuGqHHUrMo4IzzigmjYi9ugFbiCVtDKtlWQcNV6RnivN0JJkqSQmzhjl8bxt27OK2DBrDLGrPyfEcYBKz5dA6z4lPEZ4dKfOhGEVuAKWkGrwNAqY769deuo1dGuXgwlSZICre/RC8YVDK9gVpliVv7PCHMBVmJG35iYrgFWahPryOu7BVhd28Iq7Bnhx85batsKWkErcAWtwkOrjNn/21vGeTOUJEkKtKbxty4pGmDBrDLBrFvapgBnhB0hViZmdQWxckFWqc4IL+j0jLDp8POiYS9sg1bgClpBK3AVGFplzVJvhpIkSSE2at6ujeNvfb0kgAWzAsasGGC1nhR2FbB6voWVOTckpmuAFZ9wzwj3XfITJ4LQClx9D1pBqyDhKj1vDH3p97t7QZQkSQqspvHzx5ccr2BWoJiVDVgpxEpPAc4IcwFWw6hZrdM1wEptYh1xbXhnhOfeZ9sKWkErcAWtwkOrjBn8/Nbx3hAlSZICq3H8/BXBARbMCgSzOtjCyp5xhTkj7AixktMdxLq2FbNKfUbYeNi50dAXt0IrcAWtoBW4CgytMuf1Fd4QJUmSQmr64t0ax9+6LWjAglklxKxuAFZ8CryFlQasxByZnK4B1rVRQwKxrinpGeE+9/1fJ4LQClxBK2gVJFy1zlv7PLuu1ouiJElSIDWOnz+hbPAKZJUIs7ZzRtgRYiWmeIDVcOR1idkeYGUiVnpybGEV8Izwo1+/x7YVtIJW4ApahYdWmfOd1yd4U5QkSQoGsG59sCwBC2YVEbN6uIWVBqz0FOiMMBditWHW9raw0pPaxjr8quKcER7yjWjoC1uhlRPByoAraAWuKgmt4r+D9e0tD3pTlCRJCqAPj1vUp3H8rW+VPWDBrAJDVm8AK45Yc1qnWIDVcOTM5HQVsBKI1dkWVkdnhBd3+4xw78X/Bq1sW9m2glbQKkC4is0fnRFKkiQFUOP4Wyc1jl8QVRRgwawCYVYvzwizAWtsemZ3EbF6D1jx6doW1pVRw2FpxLqiF2eE5+U4I/xq9NGz7wZX0ApagStoFR5aZcz+33l9kjdGSZKkkgPWwpVJwIoPzIJZuSZPZ4TtACuFWOkp8BZW5nQBsBJbWCnEOvTyXp4RnpNxRthwyNej/bt7RmjbClpBK9tWTgSLO89vXemNUZIkqYR9YOSNtY3jF7zVHrBgFszazjZWvs4IcwFWK2QVH7DqOzwjjG9hpRDrkG8mpmdnhGe2nhF+/u5/hVbgClxBK2gVIly1zut/HrJ6c4M3R0mSpBLVMH7BlM7xCmbBrA4Q66j45OmMsCPESk8+AKuLiJWYDs8IYz/ongCsS6P6gy+NIVb3zgg/ctZdTgShFbRyIgitvh32DP7OlqneHCVJkkpU4/gFq7oHWDALZs3LgVg5Tgp7e0aYC7Bap/BbWGnAqj/8ytTkOiOMb2FdmrWFdVHXzwhHfC3a/7ubbVtBK2hl28qJYNizypujJElSCdrzqLvrG8cv+FPPAQtmVSdmbQ+wYpOvM8JcgJVArFnJKRRgJRCrDbDqD2uZKxLT/owwawsrAVgpxPrChds/I7zjZWgFrsAVtLJtFfIG1re3/mXAc1savUFKkiQVuYbxt07LD17BrOrDrFxnhLkA6+bY5OmMMBdgtc72AKuXW1gxwKo/9PKo/tDLEpP7jPDiLMBKb2Gdn/OM8B/OuANaQSto5UQQWoU/07xBSpIkFR2wFjxeGMCCWZWPWV3cwsoArDhk5emMsCPEyoCs/J4RtiJWDLDqE4DV0Rlh1hbWQedH9QeeG9UdkN7CajsjHLJmM7iqIrQaCq1sWzkRLLvZ/9tbn/AGKUmSVMSaxs9tahy/4C+FByyYVZmY1Z0zwo4Qa24HiJVHwErMdckpwBlhK2JlAFYSsepyAtYFmT/mPjy2hTXkq9Fet78ErWxbgStoZdsqxHm+df429Jlte3iTlCRJKhpgLZheXLyCWZWHWT05I+zonPCmqGHsTfk7I8wFWPEpwBlhLsBKzIiLEpN9RpjcwjonBVhnRLX7nxb9w2mLoBW0glZOBKFVmHDVOvt/e+t0b5KSJElFqnH8gtWlBSyYVf6Y1dszwkzESgJWJ5CVjy2sbMA6snBnhNmAVTfiwqjuCy2TfUb4teSPue9/WlR/0NnRkO9sAldOBKGVbSsngoGhVea8vtqbpCRJUjHwaszCvo3jb/1rOIAFs8oTs/J5RpiNWDl+F6tQgBWfTs8Ir+rRGWF7wLoggVh1HZwRfu62H0Ar21ZOBKGVbavg0CrzjHDw82+81xulJElSoQFr/IJTwsQrmFV+mFWIM8KOEGtO1DBmdv7PCLMR68hrklOAM8JMwGr5a4TnRrUHnBPVDjsrqk2dEf6fry6EVtDKthW0glZhwlXrDH7+9VO8UUqSJBUesJ4tD8CCWeFjVqHPCHMBVnwKsIWVBqzUNlb9ET09I7y00zPCNGC1nBHWDv9aVDvszARg1R94VjTk2xvBFbiCVuAKWgWGVhnz3JZnvVFKkiQVsPpxi/ZsHL/g7fIDLJgVJmYV84wwF2DFNrIKCVjpGVmYM8IkYLVsYSXPCD+78PvQClo5EYRW4Co0tMqct4c9++b7vVlKkiQVqMbxC08tb7yCWeFhVinOCHMB1g2xydMZYTZitQDWyCuTc3jhzgg/fOoCaAWtwBW0glZhwlVqtrTMqd4sJUmSCgVYxyx4vvGYBVFixlfawKzSYFapzwg7QqwYZOVrCysbsBLTglj5PiM8M/9nhODKiSC0AlfQKl9wlZj9v735eW+WkiRJBahu4rz3NR6z4O1WwIoPyIJZeQWseSU6I8wFWLOihlHpydMZYTvASiHWYS2IlaczwvkvQCvbVtAKWoGrwNAqa/4+5Pn1H/CGKUmSlOcax996Wk68qljIglnFw6wQzwhzAdas9ttYvd7CygKsNGIdemkKsXp4Rvil+dAKWoEraAWtSnsi2JU53RumJElSvgHrmIVrtgtYMAtkVeQZYWeAdV3+zggzAKsNseoOubjjLayOzgiHnxkNeW4DuHIiCK3AFbQKY9uqo1njDVOSJCmP1U5c8MHGYxb8vVuABbNgVkWeEeYCrFybWL08I4xvYR1ySQqxLkpOV84I9/9q9Jl534NWtq2gFbQCV+GhVXzeGf6tjR/2pilJkpSnGo5deFbjMQujtlkQwSyYlV/MCvyMsFuINTO/Z4StgJWFWCMuyPox96wzwlPmQStoBa6glW2r8NAq88fcn9t6ljdNSZKkfAHWMQtfyAQsmAWz8o1Z5X5GmA1YsW2sfJ4RZgBWHLFynBEOOyMa8tz6yoSrIqCVE0HbVk4EoVUh4So2L3rTlCRJykN9jl30ocZjFr7TMWDBLJiVD8yqpDPCbMBKTn0uxOr2GeHF7QFrxPlR3RdSZ4QHfC2qHR47I5z7HXBl2wpaQSsnguGhVXzeHfDclo9645QkSeplTccuPKdreAWzYFZvMSsfgDU3oDPCThBr5NX5OyNMAFZqC+vAc5KANeyMqHboadGHvngztIJWTgShlW2r8NAqc7699RxvnJIkSb2s8ZgFL/UMsGAWzOouZlXyGWEuwLoqOYdfmb8zwtYtrDMTgFV3wBnR4GdeA1dOBG1bORGEViHCVXqe2/KSN05JkqRetMfRCz7SeMzCd3sPWDALZnUVs6rhjDALsRKAlUKsfJ4RDkudEd70PLSybQWtbFtBq/DQKj7vDvv21o9585QkSephTcfedm5+8QpmwayuQFaIZ4RF2sI6LH5KeHlezgg/ePJN0ApaORGEVuAqPLTKnG9tPtebpyRJUg9rPGbhy4UFLJgFszo5KzxqfgWfEV6TA7Cyt7BaAOuy1Hyz52eEw08P84zQiSC0AlfQqjq3rToArK0ve/OUJEnqQX0nLvpo/s8HYRbM6gpmxQGrE8iq6DPCK3ICVhKxLun8jPCgb7Q7I/zn2c9BK3AFrWxbQavA0Gpw1gz49uuf8AYqSZLUzRrHL7igNHgFs2BWR4CVdVZYNWeEKcTKAKxsxMp1Rnh22xnhtNnQClo5EYRWTgRD2LTKAVet8/yWC7yBSpIkdRewjln4ShiABbOqD7Pm50Csee1n3C2pqbYzwmzAim1i5TwjPD2qG3ZaNGj1q+AKWtm2ciJo2yqQbasOAOsVb6CSJEndwasJCz9euvNBmAWzWqYrW1hxxIpjVrWcEV7SHrBiv4WVfUb46Ru+Ba3AFbSybQWtQkOrrBnyrW2f8iYqSZLUVcAav/DisPEKZlU+Zs1vQ6yjuwNYt2RtY1XTGWEasC5o28Ia/rWodljyx9w/cOIN0Mq2FbSCVk4EA4Wr1vnWlku8iUqSJHWxhmMW/qThmIVRemAWzCoZYMUR6+h5yekyYLVtY1XXGWELYJ0X1R0Y+zH3oWdEdUNPjwat/gO4glbgClrZtgoNrTLnJ95EJUmSulD9Mbd+Oo5X2QOzYFbJtrDiiBXHrO1uYaURKz3VdEYY+zH3/U+LPj3rGWjlRBBagStoFR5aZcz+z236rDdSSZKk7dRw7G2XdQZY5YlZC2BWWWJWFwDr6NRfJDyqK1tY8cmxjdURYBUcsfJ1RnjRds8I3z91FrSybVU1aGXbyolgucFVegY9v/Uyb6SSJEnbqfGY237aVcCCWTCrZGeEuQArPl0GrNhUwRlh7bDTooFP/t6JILSybQWtbFsFhlZZ8zNvpJIkSZ1UP2HRZ3qCVzALZgWzhZUxNycn5xlhLsCaE5vKPSP81HWrbVtBK2gFrqBVeGiV+dcIn9/8OW+mkiRJHdRw7IIZ+QAsmAWyggKso7qzhZUNWLMr74xw8vXQClxBK2hVnSeCz4UPV22zeYY3U0mSpI4A65iFP883YFUdZtnKCueMMBdgxafLW1ipGX1jcGeECcTq7IzwCznOCIeeFg147LdOBKEVuIJWtq2CQ6vYBtZzW/7Tm6kkSVKOao9etHfDMbdFyVlY8IFZMKtkZ4Stc1NyugVYN8Ygq3zPCD95zZO2raAVtAJX0CrwGfrclr29oUqSJGXVMP62q9oAKz4gC2aVGrPyfEaYC7HimNURYLVDrBhkldsZ4aSZ0ApcQSvbVv6KYOAz5LnNV3tDlSRJygasY277RW7Aglkwq9SYVcAzwmzASiDWnORsdwsrdlI4Kj3ldEb4GyeC0ApcQSvbVqHOt1pm6397Q5UkSYrVNH5Bv+3jFcyCWaXErAKfEeYCrMTMTk6XASu+iVWgM8JWxOrlGeHVj9u2glbQyokgtAoOrTJn0Le29vOmKkmSlKr+2IUzuw9YMAtmFROzinhGmIFYs9tPtxDr+qjhyOuDPCN833HXQCsngiVFK9tWTgTBVW60ygSsLTO9qUqSJKVqOPa2X/YOsGAWzCo0ZpXojDAXYo25sW26DFjX59jGKtIZ4YgOzgj3/2q036pfOxG0beVEEFrZtgoQrmLz65oo2sHbqiRJqvoaxy8ckD+8glkwq5CYVeIzwlyAlZgbktNlwIpDVonPCK98zLYVtHIiCK2gVXholTFDnn19gDdWSZIEsI69bVbDsYUCLJgFs/KJWQGdEXaEWK3bWN1BrJklOyPcc8JV0MqJoBNBcOVEMEC0yppZ3lglSVLV13Dsbb9KAFZ8YBbMChKzAj0jzAVYo2elpruAlZoinhH2f+TX0Mq2lRNBaGXbKky4Ss9vnRFKkqTqxqvxtw1uh1cwC2YFjVmBnxHmAqw0Yo3aPmC1IVbLb2Glfg+rR2eEF3f5jPDjV6wCV9DKiSC0glbhoVXGDHxm02BvrpIkqWprPPa22dsFLJgFs4LCrDI6I+wIsUZdl5xOt7BigJVArNQmVt7PCE+P9jzmSmjlRNC2lRNBcBUgWmX8Dta3ts725ipJkqq0aIeGY2/7TbcAC2bBrJJPfs8IS7KFlQasVsjq6IwwB2AlECt2SpivM8KH/gda2baCVratoFWAcBWb3zkjlCRJVVn9MbcP7TFewSyYFcJGVrmeEXYEWC1/kfDIjs4IswErdk6YjzPCy1aCK2jlRNC2FbQKD60yZtCzm4d5g5UkSVVXw7G3z80bYMEsmFUSwIpPmZ4RdoBY9Ynp6IwwG7BSm1iHfDMxPTkjfO/RV9i2gla2raAVuAoQrbIAa643WEmSVGUlzgd/WxDAglkwq5i/idUKWDm2scrxjDADsFKIdcTVycl5RhgDrDhiHZxGrG6cETb/N7QCV9DKiSC0ChCuYrO2Zka0o/dYSZJUNdUft/DAguNVUTFrIcyqOszKtYU1v/2U3Rlhji2sI1KINfKqqH7klcnJeUYY38K6tA2xRlyctYWV+4zwn775kBNBaAWubFtBq9DnmS0HepOVJElVU8OxC+cVHbBgFswq6hZWGrDmxaZMzwiPiG1hpRHr8Bmpyb2FlQFYid/CiiFWB2eEe4y9zLaVE0FoBa2cCIY/873JSpKk6mjGjB0bjr3t1ZICFswqL8g6ptIA65byPSOMb2HFAavlLxIe1tEZYRyw0oh1flR3YHoLq+2MsN8D/wWtbFtBKyeCtq1Cnme3vDaxOdrJC60kSar4mo67bUQweAWzYFZRzghzAVZqxt1cvmeE2VtYacBq+YuEh3Z0Rpi5hVV7QGwLa//To3+85CFoBa3AlW0raBX47P/c1hHeaCVJUsXXcOxtC4MFrAr58XeYVS5bWHHEujlqSEwZnxHGt7BaAOvQS5N/kfCQjs4Iz0/+mHsCsJJbWH3HXQaunAhCKyeCTgTD38Ja6I1WkiRVdhObd2o49vZ1wQMWzIJZJQCsNsS6uczOCGfkBKzkFlYKsA65OIlYB+c6I/x68sfchyZ/zH3fFb+AVratoJUTQdtW4aFVfDaMWBPt7MVWkiRVbI3H3X5ow7G3R5kDs2BWOf/4e77OCLMBK8dJYTEAqytbWN05I8zewmoBrIM7OiM8K3lGeNED0ApagStoBa3ChKvWGfSt1w/1ZitJkiq2+mNvX9QesGAWzCpnzCrEGWEuxEpNOZ8RZmxhXRjVjbggtYWVdUY45pIkqoArJ4K2rZwIQqug0KptNkeDnt28yJutJEmqzEbM2Lnh2NvXdw5YMKsUmNUIswI9I8wFWDfFpozPCA+OnRG2bGEdmDojHJY6I1z+c2hl2wpa2bYCV4GhVcY8s3mjM0JJklSRNR63aGTX8QpmwaxywqxinBHmAqysk8JinhEmECsPZ4QjLmgDrAO+FtUOb9nCOj362IUroBW0AlfQClqVHK42dzpDvrV5pDdcSZJUeYB17O139RywYBbMChmzin1GmAuwUjNmdvmeEaYBa9gZUd8jLyr+GSG0sm0FrcAVtOoSXMXmLm+4kiSpsjp10Xsajr19U34AC2bBrNAwq5RnhLkAKz6BnBG2IlYXzwiHnhbts/Rntq1sW0Er21bgKjy0is+WvZqjXbzoSpKkiqlh/B2j8o9XMAtmhYRZIZwR5gKs1CZWGZ4RfvSC5dDKiSC4glbQqoQngl2ZId/aMtqbriRJqhzAOvb2xYUHLJgFs0qJWaGdEXaGWDeEeUZ4UOYZYdORF+b3jBBa2baCVuAKWuUNrloB65nNi73pSpKkymhi8y4Nx96+ubiABbNgVrExK+QzwlyAFdvGCu2M8IC2M8K9l/yHbSsngtDKthW4CgytsmbrJ1dHu3rhlSRJZV/9hNvHlQ6vYBbMKiZmFfGMsLMtrG4DVnzyeUZ4ee//GuG5S6GVE0FwBa2gVQlPBLsyg57dMs4bryRJKvsajl20JBzAglkwq5CYVW5nhLkQK+uksMRnhI0jL0gCjBNB21bQClxBqxC2rXKfET67aak3XkmSVN6Nmrdrw7G3vx4mYMEsmJVvzLq1bToDrCB+zL0rgHV91HDkdakp4Rnh4n+3bQWtnAhCK3AVGFplzRtDX/r97l58JUlS2VY/YdH48PEKZsGsfGJWCrAytrHK7YywI8RKbmMV+4zwo99YAq2cCNq2gla2rcJDq6zZNN6bryRJKtsajrl9RfkBFsyCWb3BrFtzINb8tim7M8JcgJVCrCOu7WQLK49nhIefHw1ZswVa2baCVuAKWgUJV6l5ZvMKb76SJKk8m754t4Zjbt9W3oBVhpAFs0qMWdsBrPiU3RlhHLDSiJXawhp5dWHPCO/+v+DKtpUTQWjlRDDseWufZ9fVegGWJEllV+OE2yZUBl7BLJjVXczKcUaYC7COnpeaQM4Ie7yFdU1sC+uqqP7wK7t+RnhI184IP3LOvdAKWtm2KgBa2bZyIpjXH3N/ZvMEb8CSJKnsajjm9gcrE7BgVikgq6HsIKsLW1itgJVCrPSU3RlhfAsrC7HydUZ46LnRkG9vcSIIrWxbORG0bRXqPLM5GvTM5ge9AUuSpLLqw+MW9Wk49va3Kh+wYBbM2s5Z4fgFnZ8R5gKsVsgqxzPCOGBdmQKs9BbW5T08IzwzcUb4+btesW0FrqCVE0FoFR5axeePzgglSVJZ1TjhtknVhVcwC2Z1gFjj49MDwEpNw1E93MLqMmDdUIAzwvgW1hUpwEpvYX2z8zPCL5zX/ozw7HugFbRyIuhE0IlgAGiVA67iM8mbsCRJKpvqJyxa2TDh9qh1YBbMqjrMWpADsXKcFHZ0RpiFWA0ZU45nhJlbWEnAujQ1l3R8RnjgOa1nhA0FOSN0IgitbFtBK9tWPdy26mhWehOWJEll0QemLaltmLDorYYJi6Lk3B7BrDLErGNgVmEBKzbd2cJKA1Z8gjgjvLYbZ4SXZSFWC2BlIVZHZ4R3/Ni2FbSCVk4EoVV4aBWfPw9ZvbnBG7EkSQq+hgm3T2nDq+yBWTCrmjAr1xlhLsCan5p5XQSsHIiVgKxyPCPMtYWVRqwcZ4Rn3g2twJUTQWjlRLC0J4LbncHPbJnqjViSJAVf44RFqzoGLJgFs6oJs7q4hdUKWB2cFHYHsBJTDmeEl+UArBRijcixhZU+Izz469GQ5zc5EYRWlYtWTgRtW5XXtlXOGfjMllXeiCVJUtDtedTd9Y0TFv2pa4AFs2BWpWPWgh5uYWXNUbds/4wwA7BSiJWesjwjvCiq+8IFUd1BsS2sYcktrL1u/5FtK39F0LYVuIJWgaFV5mz6y4DntjR6M5YkScHWcOwd07qPVzALZpUes8I6I8wFWMlpSEwXt7AyEGt2csrujPD8qPbAb0S1B6R+zH3oGdE/nHEntLJt5a8IQisngiU8EezaFtamad6MJUlSuIA1YdHjvQcsmAWzKgmzentGmIlYDRlzc9cBK45YrZhVbmeEyR9zbxjx9Whw6xmhE0FoZdsKWtm2Ku22VYdbWE94M5YkSUHWNH5xU8OERX/JL2DBLJhV7pi1oEBbWLdk/SbWzZ2fEeYCrLE3JmdMkc4IWxGr92eEn1v4km0rJ4LQClxBq+DQKmP+NvSZbXt4Q5YkScFVf+wd0wuHVzALZpUzZhUKsHIh1s1Rw7i53Qes+AR4Rlh34LkZZ4T/5/Q7oJVtKyeC0MqJYAlPBLs0T2+a7g1ZkiQFV8OERauLB1gwC2aVE2YV+owwF2B1cE7YVcQaMys5pTwjPLjjM8L6L5wTDf7WRieC0Mq2FbSybRXGtlVHs9obsiRJCqrGqQv7NkxY9NfSABbMglmhY1YxzwjjgJV9UnhT9wErvYk1uoRnhC2IleOM8LMLfmDbClpBK3AFrcKevw1+/o33elOWJEnBVH/s7aeUHq9gFswKGbPyAFi92sJKA9ac2MQAq6uIlZ7ubmEV4ozwK7dBK3DlRBBaOREMfAY/vfkUb8qSJCmYGiYsejY8wIJZMCskzCr1GWFHiBWDrO4AVgKxrktOqc4IDzo7GvzMeieCtq1sW0Er21YBz8CnNz/rTVmSJAVR/ZRFezZMWPR22IAFs2BWqTErpDPCXIA1O2oYc2NquglYo2Ympn5UCc4I571o2wpaQStwBa3CnreHPbvu/d6YJUlSyWucsOjU8sErmAWzSolZCxIT1hlh1g+7tyJWenqCWNemEKvwZ4Qf/vJt0MqJoBNB21ZOBEOfp7ec6o1ZkiSVvIYJi54vX8DqALJgFswqCGYtaJvxyQnrjDAXYKW2sUbf0HXAakWsFGAdUcAzwgO3f0YIrWxbORG0bWXbqlRw1TrPe2OWJEklrW7iPe8rr/NBmAWzSo1ZmYCVnFsTE9YZYS7AuqH9JlangHVtG2AdcVVyRub/jPAzt3zPthW0glZOBKFVeGgVn78PeX79B7w5S5KkktU4YdFplYVXMKsiICtozOoYsOJT/DPCPCNWGrDiW1hpwErMjKj+8PgWVs/PCD/0pQXQyomgE0Engk4Ew0OrrNlyujdnSZJUsuon3LGmsgELZsGsfGPWghyI1R6wGo6e3zr5AaxCbmGl57rOzwjjW1hpwErM5a2I1aMzwgPOigY9vQ5a2bZyImjbyrZVkHDVClhrvDlLkqSSVDtxwQcbJiz6e/UAFsyCWfmCrK5tYbUh1rzWCfOMMA5Y10X16ensjDADsVKAddhlUf1hPTsj/OebvwuuoJUTQWgFrYJDq4x5p/+3Nn7YG7QkSSp6DcfeflZ14hXMglm9xayeA1YGZgV1RpgDsY6cmZprOz8jbEWsGGAdemlyunpG+C/zoZUTQSeCTgSdCIaHVhkzePWms7xBS5Kk4gPWhDteaJhwB8DqDLP8+DvMyolZ3T8jzIlY7fAqxC2sNGBdk5rtnBEedll7wErMds4Ih58VDVr9GrSybeVE0LaVbasA4aoVsJ7e/KI3aEmSVNT6HLvoQw0T7ngnCVjxgVgwC2Z1DbPysIWVA7DqgwSsmTHASm1ijbxq+2eEuQCrFbFynBHO+Q64glZOBKEVtAoMrbLm3QHPbfmoN2lJklS0Go6985z2eAWzYFaFYVbBIas7gNU9xEpPWGeEMcQaGTslPHzG9s8IE6eEKcA6+MKobkR6Cyt2Rjj9FmjlRNC2lRNBJ4LhoVXGDFy9+Rxv0pIkqZiA9dL2AQtmwSyY1aWzwvELCwZYrRPUGWHWFlYCsFKI1ZUzwjRgfSF1RnjA2VHt8DOjugPOigY+9Sq0sm0FrWxb2bYKEK5i85I3aUmSVJT2OPqejzRMuOPd7gEWzIJZMKtDxBofnwV5OSPMBVhtE9oZ4ZVZgJVGrMu2f0Z4UOqMsGULa9jp0advfB5cQStwBa2gVXholXFG2P+prR/zRi1Jkgpe/bGLzu05XsEsmAWztg9YWWeFedzCSgNWfAqOWF0+I8zewkpvYn0zqjvk0u2fEQ47I/rgyXNtWzkRhFZOBJ0IhodWmfPM5nO9UUuSpILXcOwdL+cPsGAWzKpmzFqYA7EWtJ+jb01NfrewMia4M8LLcwNWArEuTgHWBTnOCM+MBj75KrSybQWtbFvZtgoRrtrmZW/UkiSpoPWduOijvTsfhFkwC2Z1fwsrG7HmFwSw4lOwM8JWxOrOGWEuwLo4dUZ4flR70Dcyzwhv+JYTQWgFrqAVtAp8Bqx+/RPerCVJUsGqP3bRBYXHK5gFs6oJs7oLWNknhfPzckaYC7Hqx85OTHhnhCnASvwW1gWpM8LUb2ENOyP6wLSbbFs5EYRWTgSdCAY+g5/ZdIE3a0mSVLAaJtzxSvEBC2bBrErGrO6eEeYCrPlRw1HzUpO/Law0YNWPubF1in1G2PYXCXNtYcV+zP3Ati2suuFnRgMe/z20sm0FrWxb2bYKcjal5xVv1pIkqSA1Trjn48U5H4RZMKvaMKunZ4S5AKttCgFYybkhMWGdEZ4b1R7Q9mPun7r+WWgFrcAVtIJW4aFVxgz51oZPecOWJEn5B6zj7ri44bg7otaZENJALJhVzpiVjzPCjhDrltT07oywI8SqH52csM4Iz4zef+JscOVEEFo5EYRWAaJV66zeFA1cvekSb9iSJCnvNRx3x08yACtIzAJYMKscMWth2xxTKMC6pSBbWGnAqh89KzWBnBEOOzMa8NjvbFvZtoJWtq3AVUhwtTp7Nv/EG7YkScpr9cff8ekO8QpmwSyYlT/Eiv8m1jH5OCPMBVjxyT9gJWZUckp5RvjJmc9AK2gFrqAVtApk26qj2f/JTZ/1pi1JkvJWw3GLLusyYMEsmAWz8gdY8cnrGWF6cmxj5Rmx6jsFrAKeEU690YmgE0FoVYkngs86ESx3tMrawrrMm7YkScpbjcfd8dMeARbMKi/IglnhnBHmAqwEYt2anLxuYc3NnLE3FQ6wRl0X1eX9jPDinGeELVtY+z36O9tWtq2glW0rcFWyE8Euzc+8aUuSpLxUP2HRZ3qNVzALZsGs/GxhxRFr/PzkFASw4pNfwGrZwKpLzLVRXYHPCD9xzWpoBa2cCPpBdmgVzLZV7hmyevPnvHFLkqRe13Dcohl5ByyYBbNAVh4AK4ZYcczq1RlhR4iV2sbK0xlhHLCSc3VUV4AzwvdNnuVE0ImgE0HbVtAqQLSKz+CnNs7wxi1JkvIAWHf8vKCABbNgFszq2RlhLsBKINa85OR1CysNWLNj07szwnaAlUKsupFXRnX5PCN85H9tWzkRtG0FrcBV6U4Etz9PbfpPb9ySJKlX1U5ctHfR8ApmwSyY1fMzwlyAFZvCAFbsrLCXZ4TtACuFWHWHXxHV5TojTCBWJ2eEB8bOCK9+Elo5EYRWTgShVSDbVh3NgKe27O3NW5Ik9biG4+68qmSABbNgVlViVh7OCDtCrKNvSU6vzwg7Qqwb83JGmAlYbYhV19MzwknXORF0IuhEEFpBqwDRKmsL62pv3pIkqeeANeHOXzQcd2fUNiALZsGswmJWns8IcwHW0YXawooj1g1d3MLq/IwwE7DSiJUErNpunBH2f/h/bVs5EbRt5UQQXJXqRLBr89/evCVJUo+qnXhHv/oMvMoemAWzuoBZ/pJhOGeEuQArYxsr34CV2sQaNSsvZ4S5trBqD7kkOds7I7zqcWjlRBBaQStoFSZcxbawNvTzBi5Jkrpd/XF3zGwBrPjALJgFs4qBWUXYwsoFWEfNbZuCIFYWZOXhjLBlCysNWMm5KKrNdUY4caYTQdtWTgTBFbQKEa3i8/Smmd7AJUlSDwDrzl9mAxbMglkwqxiYVeQzwlyIVVDAik0ezgjjW1iJGXFhVJs6I+yTPiMcenrU76Ff2baCVratoJUTwaBn869romgHb+GSJKnLNU68c0BneAWzYBbMKjRmleiMMBuwxt3UNnkBrCzEOvK61BbWzLycEbYBVvKMsM+B50R9hp8V9Wk5I5zxGLQCV9DKD7Lbtgp8hjy5cYA3cUmS1OXqj7tjVncAC2bBLJiVb8wK6IwwjliJyeMWVgZgXZuaa/JyRlibOiNs2cLqM+zM6L3HXeNEEFo5EbRtBa0Cn4GrN83yJi5JkroOWBPu/FVPAQtmwSyYlY8J6IwwF2AlEGt2cnp9Rnhde8BKbGGlNrF6c0Z4UPKMMLGF1XJG+OCvbFtBK9tW0MqJYHhoFZ/fOiOUJEldqmHiXYPzgVcwC2bBrDxtZIV0RpgLsFpnO4DV5S2sLMBKIFZqE6vHZ4RnJ84IP375o9AKXEErJ4K2rcKEq7Z5YtNgb+SSJGm71R935+xCABbMglkwqxcnhcekJ6Azwo4QKwOyenNGmAOwEoiV2sQ6tLMtrNxnhHscc7UTQWjlRNCJILQKEa1a5qnkDHpy82xv5JIkaTtFO9Qfd+dvCg1Y24csmAWzYFZuwMqxjRXCGWEuwErMDcnp9RlhNmBlIla3zgjv/x/bVtDKtpUTQSeCgaFV1vzOGaEkSeq0+ol3Dy0WXsEsmAWzunNG2BFipSZ0wBozq216fUYYB6xsxLp0u2eE//TNh6EVuIJWTgRtW5USrp7a/gx6cvMwb+aSJKnD6o67c26pAKssTgxhFswKbgsrDVgLYhPQGWEuxGr9Tax8nBHGASsXYuU4Ixx/pRNBaOVEEFpBq3C2rXLP6o1zvZlLkqQOinaoO+7O34YAWDALZsGs3gBWjpPCkLaw4oAVn16fEcYBK3VKOOKiti2s+Bnhiv+2bQWtnAiCKyeCoaFV5qytmRHt6P1ckiS1q/64Ow8MDa9gFsiCWd05I8wFWKk5en4AgLUdxBp1XVQ3amZyen1GGAesC1JnhF+P+gxPbmH90yUPQStw5UQQWtm2KuGJYFdmvyc3HOgNXZIktavuuDvnhQ5YMAtmVSdm9XYLK45Y8zMwK4gzwlyAdeS1qcnHGeGFUe1B50W1B6Z+zH3YWVHfcVc4EYRWTgShFbQKZ9sq9zy5ab43dEmSlNmMGTvWH3fnq+UEWDALZlUPZhUCsJJT31XEKtYZYRqx4oDVsoWVmM7OCC/v4hlh6sfch54R7bv8P21bQSsnguDKiWBoaJU5r01sjnbyoi5JklqrO+7OEeWKVzALZuUVsiZU+hlhLsBKzVG3hHVGmAuwEptY3TwjbJkcZ4T/ePFD0ApcORGEVratSngi2KV5YuMIb+qSJKm1hgl3LqwUwIJZMKsyMavQW1hpwIpPQGeE2YA1MrWFdXg3zghbtrAyzggvdyIIrZwIQitoFc62Vc4Z9OSmhd7UJUlSsonNO9Ufd+e6SgQsmAWzKgezigBYORHrlvDOCLMBK41YienKGeHX284Il/3ctpUTQWgFrpwIBoZWWbNhxJpoZy/skiSppva4uw6tdLyCWTCrMjCrWGeEuTaxbo7qx93cS8C6Mb9nhCNzAdZlScQ69NLkbOeM8GMXPuBE0LaVE0FoZdsqPLTK3MJ6etOh3tglSVJN/YS7F9Ufd1eUnDsjmAWzYFaomFWKM8Ks38Ua1xFkBXBGmAFYMcQ65OLk5DgjbBp9WTTkuc1OBKGVbStoBa0ChKvWWb15kTd2SZKqvREzdq4/7u71bYAVH5gFs2BWWJjVRcAq+BbWzTnOCQM7I8wArEuSgHXwRVHtiPZnhPvc9zMngk4EoRW4ciIY9Gzc6IxQkqQqr/G4u0fWT7wrSsxxnQ3MCgazJsCs6sasEM4Ib+7497DGzskNWGNLeEaYBqzEFtYFUe0XUmeELVtYw8+MPnrBCieC0MqJILRyIhj4DFi9eaQ3d0mSqrj6iXfe1QpY8YFZMAtm5Q+zKvqMsCPEmhPDrIDOCA9OnREelDojHH5W1DjqkmjItzbbtnIiaNsKWtm2CnsL6y5v7pIkVWunLnpP/cS7NuUELJgFs2BWoJgV8hlhLsCKbWSFdkZ4YOqMcNgZ0d6LfwqtbFtBK3AFrQKeQU9t2rJXc7SLF3hJkqqwhuPuHrVdvIJZMAtmBYhZ5XBGmAOwuotYeTkj/GbXzgjPXe5E0LaVE0HbVk4EQ54nN0UDn9gw2hu8JElVWP3EuxZ3G7BgFsyCWQFgVrmdEebawopDVgBnhEdeEg3+1mZoBa1sW0Er21ahoVVsBjy5abE3eEmSqq2JzbvUT7xrc68AC2bBLJhVIsyqhDPCrE2s0ekpwRnhAckzws/f8+/QyokgtHIiCK0ChKvYbP3k6l/u6kVekqRq2r6adNe4vOEVzIJZMKsEmFWYM8Iub2F1G7C6g1ixbayinhEuA1e2rZwI2rZyIhgeWmXMoCc2jvMmL0lSNQHWxLuWFAywYBbMgllFwKxKOyPMBVizovpR10d1HW5hdXBG2IpY3TsjbBh5URhnhNDKthW0glZVeiLYxVnqTV6SpGpp1Lxd6yfe9XpRAAtmwSyYVSDMquQzwlm5EevImakp3BnhXnf9X2jlRNCJoBNBaBUmXKXnjaHNv9/dC70kSdWwfTXprvFFx6suYxbIglkwq+uYdVtyKvqMML6FlUasa6O6I65JTX7PCD/y9aXgyraVE0HbVk4Ew0OrzB9zf2LTeG/0kiRVQXXH3b2i5IAFs2AWzMoTZKUQq3Ubq5LPCONbWGnEujqqG3l1CrHycEZ4xIXRoG9tglZOBKEVtLJtFRhaZc7mFd7oJUmq9KYv3q1+4l3bggIsmFVeJ4YwK8yzwozfxVqYnIo+I4xvYaUR68qo7vAr2xCrp2eEd7wCrZwIgisngratgoSr1nlrn2fX1XqxlySpkrevJt09IVi8glkwC2b1HLHa/cD7wsyp6DPC+BZWGrBmRHWHXdGjM8J/+Nq94MqJILSybQWtwkOrzHlq8wRv9pIkVXANx935YNkAFsyCWSCrB1tYWT/wnsasYxa0TUWfEca3sGZk/BZW7aGX5djCan9GWH/YBdGgZzdBKyeC0ApaOREMDa3iv4P15MYHvdlLklShfXjcoj71E+96qywBC2bBLJjVDcDKhVjp38dqQaxb26aizwgzt7CSgJXewrq04zPC4WdGey36V3DlRBBcORG0bRUcXG2Mzx+dEUqSVKHVTbp7UtnjFcyCWTCrG2eEuQArvo0Vh6wCnhEWbAurO2eEWVtYh6S3sC6Jake0bGGdl3lGePZi21ZOBKGVbStoFR5aZcygpzZM8oYvSVIFVj/xrpUVB1gwC2bBrC6eEWb/hcIF7SGrBbHSU9FnhN/MRKyWLawvxLawtndGCK1sW0Grqt62ciJYerhqnSc2rfSGL0lShfWBaUtqK+J8EGbBLJiVhzPCbMCK/zbW/IypH19JZ4SXdwBYqR9zPyhzC+tzt//YiSC0AlfQyrZVaGiVOX8esnpzgzd9SZIqqIZJ90ypn3h3VDWABbNgVtVhVh4Aq90PvMcQKwFZIZ4RzszjGeH5UZ8D237M/f+cebdtKyeC0MqJILQKD60yZsBTG6d605ckqYKqn3j3qiRgxQdmwSyYVTmY1dszwo7/QmF96ybWLZlT0WeEZ0f1h5wXDXp6A7SybQWtnAg6EQwQrlrnqY2rvOlLklQh7XnU3fX1E+/+U3vAqmLMOg5mwaxKxKx8nRHmAqzUHJ0Dso6u4DPCBT9yIgitwBW0AlehoVXm/GXAc1savfFLklQBNUy8a1rneAWzYBbMqgzMKsQZYRZiHT0va1KAdXR8E6tyzgg/fPrdtq2cCEIrJ4LQKjy0Sv2Ie2oe3zTNG78kSRVQ/cR7Hu8eYMEsmBU4Zk2AWaU5I8wFWPPab2IlZm5yCrSFVawzwrpDzi2PM0IngtAKWtm2qtQTwY7QKjaDntj4hDd+SZLKvKbxi5vqJ979l54DFsyCWTCrvDCrWGeEHSBW64+7pwDrqJuSUzZnhBe2OyP87PyXnAhCK3DlrwiCq1C2rXLP34Y+s20Pb/6SJJX19tXd0/ODVzALZsGs8sCsUpwR5gKs+CZWARCrW2eEV3b7jLD2oNgZ4Wl32rZyImjbClpBq/DQKnML6/EN0735S5JU3oC1ujCABbNgFswKE7NKdUa4PcSK/y7WnLYphzPCEd+IBj61AVrZtoJWTgShVYlOBLs4q735S5JUpjVOXdi3fuLdfy08YMEsmAWzwsKsUM4IcwFW/Hex0ogV/hnhZ+Z934kgtHIiaNsKXAWybdXRGeHgR954ry8ASZLKc/vqlOLiFcyCWTArDMzqLmAtLPAZYWeIlT4rTCHW2BuTE9oZ4VcW2bZyImjbClpBq/DQKnMe33CKLwBJksqwuol3P1tawIJZMAtmlQazQj8j7OyvE8YQKzE9PSO8Jr9nhF84Jxr45Hpo5UTQtpUTQSeCoaFVxmx41heAJEnltn01ZdGe9RPvfjscwKpSyIJZMKtkmFUuZ4S5ACs+N7Qh1pjSnhH+883fdyLoRBBa2baybRUkXLXO2/s8su79vgQkSSonwJp4z6nh4RXMglkwq3iYFcoZYT4QK31WmIasWcnJ6xnhN7d7RvihL99m28qJoBNBaAWtwkOrzL9G+OTGU30JSJJURjVMvPv58AELZoGs7UEWzOo5ZpX7GeHs7fwu1qzWqRtdBmeETgShlW0rJ4JOBIs1z/sSkCSpTKqbeM/76ifd/Xb9pHICLJgFs2BW/jGrUs4IO/hh99ZNrOuTiJWArAKfEd70ghNBcAWtbFvZtgoTrtLz9yGPrf+ALwJJksoDsE5L4FX2wCyY5cSwyjCrEs8IcyBWy4+5JxDr+iRgJRDrmuTk+4zwSwucCEIrJ4LQClqFh1YZM+DxTaf7IpAkqQyqn3jPmpyABbNgFsyqMswqwhlhIFtYbYB1XW7EOuKqTrawunFGeNA50cAnXrNtBa1sWzkRrF64ChWtMmeNLwJJkgKvduLiD9ZPuvvv2wUsmAWzYFaFY1a1nRHm2sK6NjVpxLoyiVgju3lG+IXMM8JPz/kutAJX0Mq2lW2rMOEqPe/0f2zjh30ZSJIUcA3H331Wt/AKZsEsmFXhmLWotGeER5fijPC6DgArtomVQKwrorrDu3NGeE7ijPCD/3KrE0Fo5UQQWkGr8NAqc57ccJYvA0mSAq5+4l0v9AqwYBbMglkVhlmxk8JjF1XhGWEKsTIAKxdiXRbVHta1M8LaA8+JBj621rYVtLJt5UTQiWBoaJU5L/oykCQp0Pocu+hD9ZPufidvgAWzYBbMqhDMigNWJ5BVFWeEV2cBVhtiJQDrsBRgHbqdM8IbvwOtwBW0sm1l2ypMuErO4xvfHfDElo/6QpAkKcAajr/7nPpJ90Rtc3cEs2AWzIJZHQNW1llhVZ0RXpUFWMnfw8pErNQZ4cHtzwg/MH2+E0Fo5UQQWkGr0NAqCVets9/jG8/xhSBJUoDVT7rnpUzAKjBmTYRZMAtmlQdmLcqBWLe3n2NuS021nRHOyAKs9CnhN1OIdVFUO+L8qPYL50Z9DkqfEX4tGvDo721bQSsnguDKiWBgaBWfgY9veMkXgiRJgbX75Hs+Uj/pnnc7BiyYBbNgVnVjVle2sLIRa2GVnRFekQOwLo1tYZ2XBKwDU2eEs56HVuDKiSC0sm1VuhPBrsy7/Z/a+jFfCpIkBbV9dfe5XcMrmAWztgdZMKsyMau7gJV9Uriwys4IL8sCrJYtrAvafsz9gLOi9590sxNBaOVEEFpBq0C2rTqcxzae60tBkqSgAGvxyz0DLJgFs2BW2WBWUc8IcwHWwqhh/ILUVNMZYQtixX7M/aDkj7nXHnRONGDV721bORF0IgiunAiGhlaZ87IvBUmSAqnvxCUf7fr5IMyCWTCrejGrp2eEuQCrbSrtjLAVsXKeEZ4f9UlsYSV/zP1T1z8HrWxbORGEVratSnci2LVZtf4TvhgkSQpi++qeC/KLVzALZsGsysSsfJwRdoRYtyYn1DPCVsTK5xnh2dH7p811IgitnAhCK2gVzrZV7h9zf2zTBb4YJEkKA7BeKSxgwSyYBbMqA7PyfUaYA7ASiDU/NVVwRnjg16L9HvmdbSsngk4EwZUTwcDQKmte8cUgSVKJa5xwz8fzfz5YIsiCWTALZhUBswp1RpgLsOJTLMC6oehnhJ+c+Sy0ciJo2wpa2bYKD60ypt8TGz7ly0GSpNJuX11cfLyCWTALZpUvZhXjjDAXYMW2sSrsjPB9J85xIuhEEFpBK2gVKFylZ7/HN1ziy0GSpBLWMOmen5QesGAWzIJZ5YNZxT4jzIFYR6XnluL8mHuhzwgP+Fq038O/s23lRNCJILiCVoGhVcY8tvEnvhwkSSrV9tXx9306LLyCWTALZpUHZi1qg6yinhHmAqzYJlavAevG0p0RXvu0E0FoZdsKWoGr0NAqewvryU2f9QUhSVIJqpt092VhAxbMAlkwK0zMWpSJWIkp9hlhR4iVnlKcEV7Z8zPCKTc6EXQiCK2gFbQKFK5iW1iX+YKQJKkUG1iT7vlp+QAWzIJZMCsczOoAsOJT1DPCXICVdVIY+BlhC2L1X/kbJ4K2rZwIgitoFfRs+JkvCEmSio1XExZ/pjzxCmbBrK5gFsgqPGZlA1YOxEpAVgiANTeqH3tTasI9I/zE1audCEIr21bQyolg4NP/0c2f8yUhSVIRa5h094zKACyYBbNgVmkwqwtbWGnAap1inxF2hFjZ21ilOCO8OOcZIbRyImjbClrZtgp7Bj62cYYvCUmSirmBNemen1ceYMEsmAWzindi2EPAik/JtrDmZM3snp8RtiJWfs4I+z34/0Er21bQyokgtAp7/tOXhCRJRap24uK9KxuvYBbMglnFwaxunBHmAqwEYi1ITskBKzVjZpf0jPDjM54EV9DKiaBtKyeC4f6Ie3IeXbe3LwpJkopQw6TFV1UXYMEsmAWzCoNZedjCiiNWDLOKd0aYhVhjshGruGeEex4/C1o5EbRtBa1sW4WIVhmz6WpfFJIkFaH6Sff8onoBC2bBLJiVP8wqEGAdsyCqP+bW5BR7CysDsGKbWEU9I/w1tLJtBa2cCEKrIOGqdf7bF4UkSQWuduLifvWTFkfJgVgwC2bBrN5iVh7PCHMBVgKx5ienqGeEWYg1+oaoLhuxCnVGeMXj4ApaORG0beVEMDy0yphBqzb082UhSVJBt6/undkGWPGBWDALZsGsnmBWMbaw5refop0R5gKsNGJdV5AzwvdOug5aORGEVtDKtlWAaJU5G2b6spAkqbCA9cvcgAWzYBbMglk9wawiAFZHiDV+XnKKdkZ4Qw7Aim1i5euMcP+vrBu0ev3/QisnguDKiSC0ChGuEnjVMr+uiaIdfF1IklSAGifeO2D7eAWziopZE2EWzKoEzEptYxXjjDAXYLVuY/UWsHqwhZUBWNckp5dnhLv1n3r/wKc33gCunAhCK9tWTgSDQ6uM2W/VxgG+MCRJKsj21T2zug9YMAtmwSyYtT3Mip0UTkhPEc4I04CVjViJKfYZYQywWn8L66qo7vAru31GuMs/HzlxyLMbB0Arf0UQWkEr21bhoVUGYD22cZYvDEmSCgFYxy/+Ve8AC2bBLJjVNciqNsy6IzGZgJVjG6uQZ4S5ACuNWEcV84wwC7ASv4WV+j2sw67Y/hnhAWe9WlNTs2fLv9mDn9nyS2jlRBBcORGEVuHBVdus/60zQkmS8lzDxPsG1x+/OMoYmAWzYBbMyjNi1U9ITnvESk2pAOuouckp1hlh/C8SHh77QfcEYl0e1R56Wc4zwt0GnnxfTU3Nji3/bg96dstM21ZOBKGVbSsngqGhVeYMXLVpsC8NSZLyun11z+x2gAWzYBbMgln5BqwYYtVPWJSYTMC6PTZFOCPMhVjpKeoZYRZgxRHrkEtbzwj77HX0uPS/24O+tbUftLJtBa2glW2r8NAqawtrti8NSZLyVrRD/fGLf9MpYMEsmAWzYFaBACs+mYiV46SwGFtYrdtYN6Wm2GeEWYCVQKxLoj4HfuO3NTU1TfF/vQc+s/kXTgShFbhyIgitQoSr1vmdM0JJkvK1fTXxvqFdxquCYBbAglkwqzowKxuwciNW/bG3JyYTsFJzzMLSAFZ8in5GmNzC6rP/V+6oqanJ+Aga9Mzmq5wIOhGEVratoFVwaJUxgx5dP8wXhyRJeaju+MVzewxYMKu8IAtmwawy2MJKA1ZybktMe8RamIFZBTsj7BCxenJGOLNXZ4S7fv64kdn/fg94asveTgRtW0EraOVEMDy0yvgdrMc2zPXFIUlSr4t2qDt+8W/r8gFYMAtmwSyYlQ/AykCs29pNJmAlp76riJVvwGqdAp8Rjrjof1sWZnP9Kz7omc0/dyIIrcAVtLJtFR5cxWZtzYxoR98dkiT1ovrJiw9swavsgVkwC2bBrBDOCHMBVn0CrJKTCVipGX9rAQCri4g1tjBnhH2Gnbkg+3ww3eCnN8+AVk4EoRW4glbBoVXG7PfohgN9eUiS1Ivqjl88LxdgwSyYBbNgVmhnhB0hVtvEASs+BT4jzAVYY26I6sbk74xwt36TR3T07/iAZzd9xomgbStoBa2cCIaHVhmA9diG+b48JEnqaTNm7Fh3/OJXtwdYMAtmgSyYFdoZYS7AqjtmQeu0R6wYZBUJsBKI1QJYienFGeGIC/+npqamtrN/zgc9vfmntq2gFbgqb7SybVWZcNU6j254bWJztJMPEEmSerJ9NXnxiO7gFcyCWTALZoV4RpgTscbf2jqZgDW/+4CVjy2s0ektrJlR3ahunhEOO+uW7f17PuiZzZdBKyeC0MqJILQKEq5aZ+CqjSN8gUiS1BPAOv7ehb0BLJgFs2BWOWNWZZ4R5gKsNsianwOx0lPgM8L4Ftao9BbWNcnZzhnh7v0mDd/ev+eDn9r4aSeCtq2glRNBaBUeWmXMYxsX+gKRJKm7TWzeqe74xevyBVgFgSyYBbNgVoViVnHOCHMhVt34+YlpD1ipbayjbsn/GWErYl3XfgsrDVhHXJWc7DPCQy75RU1NTZ+u/LM+6JnNP7FtBa3AlRNBcBUYWmUA1oYNI9ZEO/sQkSSpG9VOvvfQfOMVzIJZMAtmhXpGmA1YdUfPa532gHVL4bawcgFWHLFaACsxM6K6kVdEtQecPaer/64PenrTxbatnAjatoJW0CpAuIpN/1XrDvUlIklSN6o7/p5FhQYsmAWzYBbMCu2MsBWwshArObkQ6+binRHGt7BSgLV7/ylDuwxYT77+8UFPb34XWtm2glZOBKFVWGiV8TtYj61f5EtEkqSuNmLNznWT7l1fTMCCWTALZsGs7QPWHUU9I8wFWIk5KjntASs9RTgjHHllVHvYJT+rqanZvTv/vA96essrTgShlRNB21bgKiy0ypqNzgglSepitcffO7Lu+HujzIFZMAtmwaxiY1Y4Z4S5AKvuqJtbpz1iZW1jFeCMcPcDvn59d/99H/zMlguglRNB21bQCloFCVdts2r9SF8kkiR1DbDuag9YMAtmwSyYVWzMCvOMMDdizU1OO8BKzdg5+T4jfLfPfhMHdPff9wHPbfloz88InQhCK2jlRLDYaLWxetAq88fc7/JFIknS9jp10XvqJt+7qXPAglkwC2bBrGJgVvhnhLkAKzk3JSYTsObk7Yyw9tBv/ntNTc2uPflnftDTm192ImjbyomgbSvbVoGhVeZs2as52sWHiSRJndTn+PtGdR2vKhCzJsEsmAWzwsKs8jkj7AixWjGrHWKlpgdnhH0O+sY1Pf13ftAzm891IgitbFtBK2gVJFy1/Zj7oxtG+zKRJKmTao+/d3HPAQtmwawSYNZEmFXZmFWeZ4S5AKtu7JzUZAPWjYmpa0GsLp0RXv1ubb+p/XoMWM9u/kjuM0IngtAKWjkRhFalRKv9MmexLxNJkjpqYvMudcffuzk/gAWzYBbMgln5wKzyPyPMBVjxSQNWG2LN6ngL64iro9rDvvlvPT0fbEWspze/5EQQXDkRtG0FrkqPVjngKj1bP7n6l7v6QJEkKUf1kxaPyz9ewSyYBbNgVk8g6678nhH2Zgtru4DVe8SqS+BVHLCyECu2hdVnxHkzevvv/cDVm8+pKriCVratoBW0CnvbqoPZOM4XiiRJuQDr+PuWFB6wSgtZMAtmwaxy3cqqvDPCzgCrthWwUoh1ZBqxrn1nl32n7NXbf+8HPLPxQ4Oe3vSObStoBa2cCEKr0NAqNo9tXOoLRZKk7EbN27Xu+HtfLx5gwSyYBbNgVlcxK3ZSOOHOijwjbAOsJGLVJhDr+qh2VMukt7BmRrWHX/7jmpqavPxlqkFPb34BWoErJ4K2rZwIBghXbfPG0Obf7+5DRZKk+PbVpMXjS4NXMAtmwSyY1RXMigNWHLIq94ywDbGui2pHzYxqj5wZ7Tbiwm/m69/9was3neVEEFrZtoJWtq2CQ6uMGbBq/XhfKpIkxaqbfO+KMAALZoEsmAWzcs2dyTkuG7Cyzgor7IwwvoVVO2rmO7vsN+2z+fp3f9BTGz44aPWmv9u2glbQyomgbauw0CoDsB5bv8KXiiRJ6aYv3q3u+Hu3hQdYMAtmlQCyYFZ5INZxHSHWHVH9sYsq84xw5JUv1dTUvCef//wPWr1pDbQCV04EbVtBq/DgKjGrEvPWPs+uq/XBIklSy/bVpHsnhI1XMAtmwSyYlQOwOvoLhQnA6uScMN9nhEcX54xw9xEXXpTvf/8Hrd50mhNBaGXbClo5EQwIrdrgqnX6r1o/wReLJEnJ88EHywuwYBbMglnViVl35kCsO9pPK2BlnxTe3kPAurX0Z4Sjr//7rvtN/GS+//3vv/q19w1avelt21bQClo5EbRtFRZaZc2DvlgkSRq3qE/t8fe+Vb6ABbNgFsyqLszqZAsrPu1+1D02x9yWmvI5I+xz+JUv1tTU7FyIx8Cg1Zueh1bgyokguIJWJTsR7Mr80RmhJMn21aR7J1UGXsEsmAWzqgOyuglYE25vm64iVrcAq0hbWIdecm6hngODnt54qhNBaOVEEFo5EQxm26qjmeTLRZJU3YB1/L0rKxOwYBbMglmViVldPCNsBawsxEpPTsBKTXhnhG/vNnjaPxXqOTDgiTf2LOQZoRNBaOVE0IkgtOoxWsVnpS8XSVLV9oFpS2prJ9/7Vt3ke6PWgVkwC2bBrErewmrdxmr/o+51GYi1IJwzwiOuXlNTU7NTIZ8HA1dvehZagSsngratwFVwaNU2j27485DVmxt8wUiSqrLaKfdOycCr7IFZ4UMWzIJZVYlZ3QWs7SHWwtbJBKz4lO6MsPbQb36t0M+DwU9vPsWJoG0raAWtoFWAcBWbAY9unOoLRpJUldUdf++qTgELZsEsmAWzgsSsPJ0R5gKs9ByzIAdixSCrWIA1etbbuw+a/JFCPw8OePL1voNWb/qrbSto5UTQiSC0CgutMmfjKl8wkqSqa8+j7q6vm3zfn+om3xcl594IZsEsmAWzygez8nxGmA1Yx2b/ZcIFmWeFR89PTWEBq/bIa56vqanZsRjPhUGrN66GVk4EbVvZtgJXoaFVxvxlQPOWRl8ykqSqqnbykmlteJU9MAtmwSyYFTpmFfCMMBdgtU42YMWnAIh1+OVnFOu5MOjpTdOdCNq2glbQCloFCVet03/V+mm+ZCRJ1QVYx9/7eMeABbNgFsyCWaFjVpHOCDtCrGPSp4Tz229jHTUvP4A19sa/1g6a/sFiPRf6rdraNGj1pr84EYRWTgSdCJYrWg2oULTKmid8yUiSqqam6Yub6ibf95euARbMglkwC2aFillFPiPMBVjxyQCsebFNrJ4BVu2RM58t1vlg6xbW6k2POxF0ImjbyrYVtAoOreLzt6HN2/bwRSNJqorqJy+Z3n286iFmHQ+zygKzJsEsmFWOmFXCM8KOEGv8vOS0Q6zUNlZ3EOvwy79S7OfDwKc2TYNWtq2gFbRyIhj8TPdFI0mqEsC6b3XvAQtmwSyYBbNKjVlFOCPs7hZWGrDiP+6eAVjpmds5YI258S+1Q770gWI/H4Y/trF+4OpNf3IiCK2cCDoRhFZBz2pfNJKkiq9x6vK+dZPv+2t+AQtmwSyYVVLMmljNmBXYGWEuwErMzcnJAKzYZAFW7aiZTxX7fDC2hbUKXDkRtG1l28pfEQx6/jb4kT+815eNJKnCt6+WnFI4vPJ7WTALZsGsYmNWwGeEHSFWu3PCNGLdlJrZUZ+Rl59SqufEwKc2ToFWtq2gFbSybRX29F+14RRfNpKkiq5u8n3PFgewYBbMglkwqxiYVSZnhLkAK/vH3VOAVTt2zp/q+k98X6meE/s8u6524FOb3oJW0MqJoBNBaBX0POvLRpJUudtXU1bsWTf5vreLD1gwKyTIglkwq/Iwq8zOCLMBqxWyUoA16vrHa2pqdijl82LgU5tWgisngratbFs5EQxwHlmfnrf3eWTd+33hSJIqE7Am33tqafEKZsEsmAWzCoFZZXxGmAOxakdeeXKpnxeDnto8CVrZtoJW0Mq2VXBolTmr1p/qC0eSVJHVTb7v+bAAC2bBLJgFs/KBWRVwRpia2qPm/Kl+8Ekl/2HeAU+s7RPkGSG0ciLoRLCs0cq2VZ7gqm2e94UjSao8vJp4z/tKfz4Is2AWyIJZhcKsCjkjHH39qlKfD7Yi1lMbHwRXTgRtW9m2glbBoVV8/j7ksfUf8KUjSaoswDr+3tPKA69gFsyCWSWHrEllvJFV5meEtaOuOSGU58bApzZPgFa2raAVtHIiGBxaZcyAh9ef7ktHklRZgDV5yZryBCyYBbNgFszq5knhcekptzPCm96s6Te9KZTnxog1/7vbwKc2bYNW0MqJoBNB21bhwVV6+j+yYY0vHUlSxVQ7cfEH6ybf9/fyByyYBbNgFszqyhZWfHJsYwV6RthnzKyHQjkfjG1hrQBXTgRtW9m2glZhoVXWvNP/sY0f9sUjSaqM7asp951VWXgFs2AWzIJZ3QWsGGSFekZ45FWTQ3t+DFi9aTy0ciIIraCVE8Hg0CpzC+vhDWf54pEkVQZgTb73hcoGLJgFs2AWzOrojPDO9jPhjtQEtIU17qY3aoac0BDa8+OTq3+568CnNr1e/mi1CVqBKyeCtq0qDq5i86IvHklS2dfnxKUfqpt83zvVA1gwC2bBrOrGrK5sYWUj1qKSA1bt2FkPhHY+mG7gU5uW2LZyIgitbFtBq+DQKj7vDmhe+1FfPpKksq52ypJzqhOvYBbMglnViVnd3cLKPilcVJozwtHXTQj1OTJo9cZx0Mq2FbSCVuAqOLTKnIfXnePLR5JU1tVNXvJS3eQlAAtmBYVZ9TALZgUNWIui+mNvT00RtrCOnvt6zV4T60J9juzVHO0y8KlNm50IQitw5UQQWgUIV23zki8fSVLZtvvkez5SN3nJu0nAig/EglkwC2ZVMmb19IwwF2C1bWMVCrBqx9ywLPTnyYCnNi12IuhEEFrZtoJWwaFVxhlh/4fXfswXkCSpLKudsuTc9ngFs2AWzIJZlY5ZhdjCSiNWavJ4Rlh/5DXHhP48Gbh6yygngtAKWkErJ4Jhz4CH15/rC0iSVJ6ANXnJy9sHLJgFs2AWzKo0zMo3YN3eHrASiLUwNb3Ywjrq5q01+0yrDX4D65XoPQNXb9oErZwIlh9aORG0bVX5cJWe/o+sf9kXkCSp7Np94pKP5j4fhFkwC2bBrGrArEKdEeYCrPh0D7Bqx954X7k8VwY+ufEuJ4K2rWxb2baCVoFvYa1a/wlfQpKksqp+ypILeo5XMAtmwSyYVe6YVYwzwlyAFdvG6gJi9Rk9c2y5PFcGPLF5pG0raAWtoJUTwcBn1foLfAlJksoLsCYvfSV/gAWyeoVZx8OsssCsSTCrsjCr2GeEORBr/K2xyQFYR92yqeYfR+xWLs+VEWuinQc9sWk9tHIi6ETQiSC4CnQeTswrvoQkSWVT49TlH+/d+SDMglkwC2ZVAmaV6owwF2DFzgpTgFU79sZ7yu35MvDJzYucCNq2sm3lRBBaBQlXrdNv5YZP+SKSJJXH9tWUJRcXFq9gFsyCWTArMMwK9oywI8SaH9WOvu7Icnu+DHpi06G2rWxbQSsngtAqPLTKnHWX+CKSJJVFdVOW/qRuypIoMZOLPQDL72XBLJgVCmaFdkYYA6yjbtlQ88lRu5bb82Vic7TTwCc3rbNtBa2qHq6cCIKr4NCqbQasXP8TX0SSpPC3r46/79OteJU9MAtmwSyYVXWYFeYZYf3Ym+4o1+fMoCc3LYRWTgRtW0EraBUeXGXMI2s/68tIkhT29tXU+y7rELBgFswCWTCr6jDrrrYJ6IywdvSsw8v1OTPwiY0jnAjatoJWTgShVYBoFd/Cenj9Zb6MJElhA9aUJT/tEmDBLJgFs2BWVWBWDLBaTwpLfEZ49Lz1NXtN3KVsHzQzoh0HPrnpVSeC0MqJoG0rcBUWWmXNz3wZSZKCrX7K4s90G69gFsyCWTCr4jErG7BSiJWeYp8Rjr3ptnJ/3gx8ctM8J4LQyrYVtIJWQcJV6/Rvfu1zvpAkSWFuX029b0avAQtmwSyYFTBmAayeYVYHW1jZc1yRzgjHzDq43J83+z254UDbVk4EoZUTQWgVIFrFZr+H18/whSRJChOwpiz5eV4BC2bBLJgFsyoCsroBWK1TqC2s+a/WDBjwnrJ/4ETRDgOf3PhbaGXbyomgbStwVXq0yoartln3n76QJEnBVXvCsr0LhlcwC2bBLJhV9pi1nTPCdoi1KHPyBVhH3Ty/Up47A5/cONeJILSybQWtoFUY21YdzYBH1+3tS0mSFNb21eSlVxUNsGAWzIJZMKvsMKuHW1jtIKt3Z4T1Y244sFKeO4Of2DzUthW0glZOBKFVeGiVORuu9qUkSQoLsKYs+UVJAAtmwSyYBbPKYroIWJ1tYaUBq3W6uYV19Pw/1NRM3KliHjzJM8LfQCtwBa1sW4GrUp0Idmn+25eSJCmYaqcu7ldyvIJZMAtmwaxy2cjq6RlhLsCacFtUl57tAdZRc2+utOfPoCc3znYiCK3AFbSybRUcWmVMv1Ub+vlikiSFAVhTls0MDrBgFsyCWTAr5JPCienp4RlhDLAyEWthcnIAVv3YG4dW2vNn4BObBtu2glbQClxBqzDhKvZj7jN9MUmSgqhu8tJf1k1ZGrUNzIJZMCtEzKqHWQECVgfbWD3dwoojVgyzasff+puKOh/MQKyNv4JW4MqJILRyIhgaWsU2sB5e/+uWs29fTZKkktZn6vIBmXiVPTALZsEsmAWz2p8RdoRYqcknYB27MKoff/PsSn0ODXxi4ywngtDKthW0sm0VFlplz36rNg7w5SRJKmm1U5bN6hywYBbMglkwC2Z1fQsrDVh3xqaHZ4Sx2X38rMGV+hza78mNA2xbQSto5UQQWoWHVllbWLN8OUmSSlrdlKW/6jpgwSyYBbNgVrVjVhcBKwOxcvwmVje2sGqPvfX/q6mp2bGSn0UDn9j4S2gFrpwI2raCVuHBVf+VrfNbZ4SSpJLVMHX54J7hFcyCWTALZlUzZnX1jDAXYKVmQte3sOrH31Lx/6/3gCc2zHQiCK1sW0ErcBUcWmXMvs2vDfYFJUkqSfVTlszOD2CVAWZNhlkwC2bBrFKeEXaEWItyb2HFAKvP+Osq/ndHBj21oZ9tK2gFrZwIQqsSolUncNU6D62f7QtKklSCoh3qpyz9Tf4By1YWzIJZMKvSMau3Z4TZgNW2jVWXmDbEqj92wf9U+vlguoFPbPwFtAJXTgTBlRPBwNAqYzb8zhmhJKkE21f3DS0cXsEskJVnzDoeZpUFZk2qJszK1xnhoqxzwjRi3R7VHXtb1HD0/Guq5bk06ImNVzkRhFZOBKGVbavQ0Cpz+j20fpgvKUlSUaubsmRu8QALZsEsmAWzKg2zCnFG2B6wao+Zs2+1PJcGPLVub9tW0MqJILSCVmHCVRtgbZjrS0qSVMSiHeqmLv1taQALZsEsmAWzKgGz7i7YFlYasOqPXfjfNTU1VXWqMeDJjT+HVuDKiSC4ciIYFlplzdqaGdGOvqckSUWpfvLSA0uPVzALZvm9LJhV7phV4DPC8Quuqrbn08AnNs5wImjbClpBK9tWwaFVxuz30IYDfVFJkopS3ZQl88IDLJgFs2AWzCo3zCrwGeExt3y+2p5PA57Y9BnbVtDKiSC0sm0VJly1zbr5vqgkSYVvxowd66YsfTVswIJZMAtmhQ5ZMKuwZ4T1x9z202o7H2zbwtr0U2jlRNC2FbiCVqGhVca8NrE52smHlSSpsNtXk5eOKB+8glkwC2bBrNAxq0C/gzV+wRXV+pwa8OTGy6CVbStoBa2cCAaHVlk/5v7aCF9WkqRCA9bC8gUsmAWzYBbMCg2yCnRGOG7+Z6r1OTX4qY2fdiIIrZwIQivbVmHCVWwW+rKSJBWuic071U1Zuq4yAAtmwSyYBbNCwKz8nxHWTbj9J9V6Pti6hfXExp/YtnIiaNsKXEGr4NAq/jtYG0asiXb2gSVJKki1k5cdWnl4BbNgFsyCWaXGrDwAVgyx6o5ZcGm1P68GPLHpYmhl2wpaQauqPREMFq7WZc5D6w71hSVJKkh1k5cuqnzAglkwC2bBrGJjVp7PCI+59dPV/rwa9OT6jw94YuO7TgShlRNBaGXbKjC0ik2/lesW+cKSJOW/EWt2rpuydH11ARbMglkwC2YVC7PydUZ42yvVfj7YuoX1+MZXwJUTQdtW4ApahQdXrfPwuo3OCCVJea/2+GUjqxevYBbMglkwq9CYlaczwmMWXuiJlWzgY5sugFbgClpBKyeCgaFV1uz70PqRnliSpPwC1tSld9VOXRa1DMCCWTALZsGsfGNWXs4I320cP+8TnlipDawntnx0wOMb34VW0ApcQSvbVmGhVdbc5YklScpfpy56T+3UZZvSgBUfgAWzYBbMgln5wqxebmEde/vLzgezEOvxjS+DKyeC0MqJILQKDK4eis/6LXs1/3wXTyxJUl7qc8KyUbnwCmbBLJgFs8oNs+qDxqxeAtYxt5/niZUFWI9tPBda2baCVratoFVoaJU9r43yxJIk5aXaqcsWdwWwYBbMglkwC2b1FrJ6fEb4btP42/7REyuzQY9u/khwZ4TQyokgtLJtBa4yZr+V6xd7YkmSet/E5l1qpy7b3F3AaoUsmAWzYBbMglnd38aaeE/3trAmLPqBB1buBj6+4SVw5UTQthW0glZhoVXWbP3k6l/u6oklSepVfaasGNdTvIJZMAtmwSyY1RvAikNW51tYDccuOscTK3f7Pb7xHGhl2wpagSt/RTA4tMrawlo3zhNLktSraqcuW5IvwHJiCLNgFsyCWd34cfeJ2ZtYsY2sTMB6Z/ejF3zEEyt3Ax7e+KEBj298B1pBKyeC0Mq2VQH+iuBDeZqVry3xxJIk9bxRq3etnbrs9UIAFswqQ8yaDLNgFswqDmZ1tIWVNcelIGvCou95YG0HsR7f+CK4ciJo2wpaQaswtq1ybmA9tO6Noc2/390TS5LUo/pMWTq+0HgFs2xlwawCYtbxMKs8Mas7gHVXVHfcHWd5Ym0PsDacBa2cCEIrJ4LgKiy0yp5+K9eP98SSJPWo2hOWrSg2YMEsmAWyYFZVY1aXzwhbAeud3Y+d9w+eWJ036KkNHxzw+Ma/QysngtDKthW0Cg+uYrPCE0uS1P2mL96tduqybaUELJgFs2AWzKpezOriFtbEu77jgdXVLayNa8CVE0FwBa2cCAaHVvF5a58l62o9sSRJ3apuytIJoeAVzIJZMAtmVR9m3dOGWJM6Bqy6iYtO88TqKmBtOt22FbSCVk4EbVsFh1ZZP+a+foInliSpW9WesOzBUAELZsEsmOXH3ysfs+5pj1iT7k5OG2D9vXb0gg96YnWt/qtfe9+Axze+Da2cCEIr21a2rQKEq/TvYD207kFPLElS1zt1UZ/aqcveKgfAglkwC2bBrMrFrGzAiiHWpJbtqzuf88DqXgMf3/i8E0HbVuAKWkGroOePzgglSV2ubsrSSeWGVzALZsEsmFVukFXXS8Cqn7joVE+s7rXf4xtPtW0FraCVE0EngmHPfitfm+SJJUnqUn2mLl9Z7oAFs2AWzIJZ5Y9ZnZwRTrr77bpjbnu/J1b3GvDE2j0HPLbxbWjlRBBa2baybRXwNL+20hNLkrT9pi2pLcfzQZgFs2AWzKpMzMq9hVU38e5nPLB6iFiPbnjWiaBtK3AFraBV0PPnIcs2N3hiSZI6rXbK0imVilcwC2bBLJhVfpjV0RnhXf/iidWzBj6+4RTbVtAKWjkRhFaBz8p1UzyxJEmdVjd1+apqASyYBbNgFswKH7PuaZs2wPpb/TG3vtcTq2ft/eTrfQc8tvGv0MqJILSybQWuQjwfTM5+zetWeWJJkjpsz3+5u7526rI/VSNgwSyYBbNgVriY1QZYLVM76a6nPLF6136PbVztRNC2Fbiqkm0raFVWcBWbvwxo3tLoiSVJylnt1OXTaqcuj6odsGAWzIJZMCsszMoGrHtO9sTqJWA9vmG6bStoBa2cCEKr4NAqa9ZP88SSJHUEWI8nASs+EAtmwSyYBbNKi1kZZ4R/aRo/t8kTq3f1W7W1acBjG/4CrcCVH2S3bQWuQkOrjHncE0uS1K6m6Yubaqcu/0t7wIJZMAtmwSyYVXrMSgPW3Y95YuWnAY9teMKJILSybQWtoFWQcJWev+7V/Ps9PLEkSdnbV9M7xyuYBbNgFsyCWaXDrCRg1U6650RPrPw08PH102xbQSto5UQQWgWHVlG/jHltuieWJCkbsFZ3D7BAFsyCWTALZhUPsxKA9ec9TljW4ImVn4Y/trF+wGMb/gStwBW0sm0FrkqPVu3hKj3rV3tiSZJaa5y6vG/t1OV/7RlgwSyYBbNgFswqEmY97ImV3wY8unGVE0HbVtAKWkGrULatcs7fBj/yh/d6YkmSEvWZuvyU3uMVzOoQsmAWzIJZMCsvmHXXZE+svAPWVNtW0ApcORGEVsGhVcb0b153iieWJClR7dTlz+YfsGAWzIJZMAtm5RGz/vi+iQvqPLHy2z7Prqsd8NiGt6CVE0FoZdsKXJXqRLBL86wnliSppn7Kij1rpy5/u7CABbOcGMIsmAWzejf3NXtiFab9Ht2w0omgbStwBa2gVRjbVh3M2/s8su79nliSVOX1mbr81OLhFcyCWWWOWZNhFswq0Uy+7zhPrAIB1uMbJjkRhFbQClxBq2C2rTr6MfdTPbEkqcqrnbr8+dIBFsyCWbayQFaBMasyAOuPH5i2pNYTqzANeGJtn+2eEToRBFdOBG1bOREsAVq1zb7N6573xJKkKq5uYvP7ins+CLNgFsyCWTCrB3O/J1aBEeuxDQ86EYRWtq2glW2rsNAqa/7++RXrP+CJJUnVClhTl59We0JoeAWzYBbMglkwKz71k+87xhOrsA18fP0EJ4LQClo5EYRWQcJV7K8Rrj/NE0uSqrTaE1asSQBWfGAWzIJZMAtmhTRv1Exs3t0Tq7CNWPO/uw14dMM2J4LgyomgbSsngmGhVdas8cSSpGrEq+nNH6w9Yfnf2wEWzIJZMAtm+fH3kGaZJ1ZxGvDY+hW2raCVbStoZdsqOLSKzzv979/4YU8sSaqy6k5cfmaneAWzYBbMglkwK4DzwXuP8sQqEmCtWj8eWkEraOVEEFoFCVdtZ4QPrDvLE0uSqm0D64QVL3QLsGAWzIJZMAtmFXu21UxfvJsnVnH65Opf7jrg0Q2vOxEEV04EbVtBq8Dmwbbp37z+BU8sSaqi+py49EO1Jyx/p8eABbNgFsyCWTCrCNtXi+/1xCpuAx/buNS2FbSybQWtnAiGhVZZ8+6A5rUf9cSSpKrZvlp2Tl7wCmbBLJgFs2BWwaZh8r1jPLGK236PbhwHraAVtHIiaNsqSLhqmwfWneOJJUnVsoF1wrIfFASwYBbMglkwC2bla7bWTGzexROruO3VHO0y4NH1m50IgisnguAKWgWGVpnzkieWJFVBu0++/yO1Jyx/t+CABbNgFsyCWTCrx1M7+b67PbFK04BHNyy2bQWtnAhCKyeCwaFVxhlh/4fXfswTS5IqvNoTVpxbe8KKqG2WRzALZsEsmAWzwsKs2klLjvDEKk0DH90w2rYVtHIiCK1sWwUJV20/5v7g+nM9sSSp8gHr5UzAglkwC2bBLJgVGGZtcT5Ywg2sRdF7Bjy6YRO0AldOBMEVtAoLrbLmZU8sSargdj+p+aO1J6x4t2PAglkwC2bBLJhVcsyafN8dnlglRqzHNtwFrWxbQSto5UQwOLRKzWuJGfDA+k94YklS5W5fXdA1vCohZMEsmAWzYFaVY1btpPsO88QqMWCtWj8SWkErJ4LQyrZVSHD1Wq65wBNLkioXsF7pPmDBLJgFs2AWzCoiZm2sGbFmZ0+s0jZiTbTzfo9uWA+unAjatgJX0CqMbasO5hVPLEmqwHabuvzjXT8fhFkgC2bBLJhVIsy6zRMrjPZ7bP0iaGXbClpBKyeCwaFVxuzXvOGTnliSVHnbVxfnD6/8XhbMglkwC2YVBLMm3XewJ1YY9V+17lBoBa2cCEIr21YlPRHswqy72BNLkioPsH5SOMCCWTBrO5AFs2AWzOoKZq2rmdi8kydWGE1sjnbq/+iGdeAKWtm2AlfQKkS4agWsn3hiSVIFVX/SA58uDl7BLJgFs2AWzOoFYN3qiRXYFtZjGxdCK3AFraCVE8HQ0CrrjPCBtZ/1xJKkCqnP1Pu/WRrAglkwy4khzIJZXZ5J9x7kiRVWA1dtHAGtoBW4gla2rcJDq/j0f/C1yzyxJKlCqj1hxU9LD1gwC2bBrIrArMkwq0Cz1vlggM2Idtxv1YZXwZUTQdtW4ApahQdXMcD6qQeWJFVA9VNWfCYsvIJZMAtm2coCWe1myn03e2KF2X6rNsyHVratoJVtK2gVFlq1Q6zm1z7niSVJZV7dictnhA1YMAtmwSyYBbPqJ9073BMrUMB6dMOB0ApaORGEVuAqPLRKzAOpuf+1GZ5YklTm1Z6w4uflA1gwC2bBLJhVlZj1+5oZM3b0xAq0KNphv1XrfwuunAjatnIiCK0ChKvU7PvAa//pgSVJ5bx9Ne2Bz5cnXsEsmAWzYFb1YFb9lPvmeGIFvoW1asNcaGXbClrZtoJWYaFV9uzdvG5vTyxJKlfAmnr/VZUBWDALZsEsmFW5mNUweckQT6yw6/fo+mHQClo5EYRWTgTDQ6uMLawHX7vKE0uSyrTaE1b8ovIAC2bBLJgFsyoKs35XUxPt4IkVeIkzwo2/AVdOBG1bQSvbVuHBVWz+2wNLksoRr6Yu71fZeAWzYBbMglnlj1m1U+67wROrPOq/av1saGXbClo5EYRWwaFV5jT/oZ8nliSVWXVT77+2ugALZsEsmAWzyg+z+kxeMtATqzwauGrTYGgFrZwI2rZyIhgoXLX+NcK1Mz2xJKncNrBOWPE/1QtYMAtmwSyYFT5m1U6+7/9zPlhe7bdqw6/AlRNBcAWtbFsFhlaZ8+uWs29PLEkqk/pMXT6g9oT7o+RALJgFs2AWzAoRs2qn3HedJ1a5AdbGWdDKiSC0ciIIrYJDq4zZr3ntAE8sSSqb7asHZrUBVnwgFsyCWTALZoWCWX0m39ffE6vsAGsAtHIiCK1sWzkRDA+tsmaWJ5YklcsG1on3/yo3YMEsmAWzYBbMCgSzfuVpVa6IteGX4MqJILiCVratgoSr9PzWGaEklUG7T10+uPbE7eEVyIJZMAtmwaySYtaUe6/xxCrP+q/aMNO2FbSCVk4EoVVwaJUx+za/NtgTS5ICr3baA7MTgBUfmAWzYBbMgllBYVbtlPv28cQqz/qt2tAPWjkRhFa2rZwIhodWGYD1wGuzPbEkKeiiHWpPvP837QALZpUXZMEsmAWzKhuzptz3X55X5d1+j274TyeCtq3AFbSybRXu9H/gtd85I5SkgNv9pBVDO8WrHkEWzIJZMAtmwaw8Y9YMT6zybsCqDVfbtoJW0MqJILQKHLGa1w/1xJKkQKud9sDcLgMWzIJZIAtmwazSYNaUe/fyxCpzwHp03d7QyokgtLJtVRUngmUIV22zbq4nliQFWeJ88Lc9AiyY5feyYBbMglnFmv/0vKqM9ntk/c+hlW0rcAWtbFsFPA++trZmRrSjJ5YkBVb9SSsO6DVewSyYBbMKB1kwC2a1zPFLLvfEqhDAenj9DHAFraCVE0FoFfbsc//aAz2xJCmw+kx7YF7eAQtmwSyYZSsLZuUbsD7riVUZDVi56TPQyokgtLJt5UQwwLm/bfZ94LV5nliSFFIzZuxYe+L9rxYUsGAWzIJZMAtm9Xb+3QOrwrawHln/MyeC0ApcQSvbVuHBVStg3f/aaxObo508sSQpkOpOvH9E0fAKZsEsmAWzQFaPpn7y0ks8sSpsC+vh9ZfZtoJW0MqJILQKC61ieJWYfve/NsITS5ICqc+JDywoGWDBLJgFs2AWzOrSNExd/ilPrMpq30c2fhpaORGEVuDKiWB4aLVvJmAt9MSSpBCa2LxT7Yn3rwsCsGAWzIJZMAtmdTT/5oFVoVtYj6z/iRNB21ZOBKGVbavSwdW+258NI9ZEO3tiSVKJqz3h/kODwyuYBbNgFsyCWdnngxd6YlVm+z287hLbVtDKthW0glZhbFt1NPvcv+5QTyxJKnF1J96/KHjAglkwC2bBrCrHrMbj7/2EJ1ZlNujh9R/f75H170IrJ4LQyokguAoLrTJn3SJPLEkqZSPW7Fx74v3rywqwYBbMglkwq8owq37qkh97YFX4FtYj619xImjbClrZtoJWJTsR7MpsdEYoSSWs9oQHRpYtXsEsmAWzYFaVYFbt5KXneWJVOGCtWn+BbSto5UQQWkGrULatOpgH1o70xJKkUgHWifffVTGABbNgFsyCWZWJWe82TV78j55Yld2A5rUf7fUZoRNBaGXbyomgE8H8o1XGrL3LE0uSStGpi95Te+L9myoSsGAWzIJZMKtSMGvyfT/0wKqO+j+y/mUngratoJVtK2hVshPBrsyWvZp/vosnliQVuT4nPDCq9sQHosyBWTALZsEsmBUSZtVOXvJ1T6wq2cJ6eP25TgShlRNB21bQKpRtq9yz9wOvjfLEkqQiV3vCA4vbAxbMglkwC2bBrIAw693dJy75qCdWdTTo0Vc/0ukZoRNBaGXbClo5ESwJWmXNYk8sSSpmLeeD0x7Y3DlgVQlkwSyYBbNgVriY9aIHVnW13yPrX3IiCK5sWzkRtG0VHFrFfsh93dZPrv7lrp5YklSk+pzwwNiu4RXMglkwC2bBrJJh1uQlZ3tiVRlgPbzuHCeC0ApaQStoFSBcxWafFevGeWJJUpGqPeGBJT0DLJgFsmAWzIJZRcKsd3afeN//8cSqrgY8vPFD+z28/h0ngtDKiaATQSeCQc8STyxJKkZnrd619sQHXu89YMEsmAWzYBbMKiBmfdcDq1q3sNa/aNsKXEEr21ZOBAOeFa+9MbT597t7YklSgetz4oPj84tXMAtmBQhZMAtmlT1m3Xe6J1Z11v/hDWdBK2jlRBBa2bYKGrCifivWjvfEkqQCVzvtgeWFBSx/yRBmwSyYBbN6Oe/0OXHphzyxqrNBzRs+uN/D6//uRBBa2bZyIgitwkKr+PRbsXaFJ5YkFbLpi3erPfGBbcUDLJgFs5wYgiyY1YP5tgdWlW9hPbJhjW0rcAWtbFs5EQwLrbLmrX2WrKv1xJKkArX7iQ9O6HPiA1F6aks2MAtmwSyYBbM6ma94YlV3Ax5efzq0glZVfyLYDK1sW4UIV2tbZ58Vayd4YklSgao98f4H44AFs2AWzIJZZQVZ1YFZf6+btuT9nlhVvoHV/Nr79nt4/dtOBKGVbSsngtAqiG2rDLhqm1cf9MSSpEJ06hN9+pz4wFsdARbMglkwC2bZygpivuWBpQRiPbL+eWgFrvwgu20rJ4KhoVVslq/9ozNCSSpAu5/44KSu4BXMglkwC2bBrNJN/ZSlX/LEUkv7Pbz+VGgFrZwIQivbVqU7EezavDbJE0uS8lyfEx9Y2RPAKj1kwSyYBbNgVtVg1t/qT7rvvZ5YamnAE2v37P/w+redCEIr21ZOBKFVANtWHc9KTyxJymfTltR29XwQZsEsmAWzYFbJtq+e9sBSxhbWI+uftW0FrqCVbSsngsGhVXz+PGTZ5gZPLEnKU7uf+OCUPtMeiFrnxPwNzIJZMAtmway8AdYXPbEUr//D606BVtDKiSC0sm1VyhPB7c8+K16d4oklSXmqz7QHVmUAFsyCWTALZsGs4M4HGyY27+GJpXh7P/l63/4Pr/+rE0FoZdvKiSC0CmLbqqNZ5YklSXloz395rL7PtAf+1CFgwSyYBbNgFswq+dROXvKEJ5ZybmGtXL/athW4ciIIrZwIBodW8fnLgOYtjZ5YktTLak968MQu4RXMglkwC2bBrNIB1tSlJ3liKVf9Ht4wHVpBK9tW0Mq2VelOBLs096+d5oklSb2sz7QHHu8RYMEsmAWzYBbMKtb8pe/EZv/PrXID1qqtTf0fXv8XJ4JOBKEVuIJWAcJV67z2uCeWJPWipumrmvpMe/AvfaY9GCXngQhmwSyYBbNgVmCYNXnZo55Y6hSxVm54wraVbSsngtDKiWBoaJUxf92r+fd+y1KSelrttObpbXgVnwdgFsyCWTALZgWCWbWTl031xFJn9X94/TRoBa1sW0Er21bBoVXG9Fv+2nRPLEnqYX2mPfhUbsCCWTALZsEsmBUIZv15jxOWNXhiqbP++bGN9f1Xrv9T2aPVSmhl2wpcQauK2LbqALDWrvbEkqQe1Dh1ed8+0x786/YBC2bBLJgFs2BWyTBr8rKHPbHUlfZbuX6VbSvbVtDKthW0Cnr+Nvi+P7zXE0uSur191XxK9/AKZlUtZMEsmAWzSodZk5cd74mlrtTv4XVToRW0ciIIrZwIBjjL22af5a+e4oklSd0FrBObn+0dYMEsmAWzYBbMKihmTV36x/dNbK7zxFJX2mfJutr+K9e/Ba2cCEIrJ4K2rcKDq9g864klSd2ofsqKPftMe/Dt/AEWzIJZIAtmwaz8Y9ayZk8sdaf+K9evBFe2rZwIOhGEVsGhVXze3mfJuvd7YklSV7evpjWfWhi8KgBmnQizYBbMgllVilmTlx3niaXutN/KDZOgFbRyImjbyolgcGiVMf2Wrz3VE0uSutjuJzU/XxzAglkwC2YFC1kwK/T5Y820JbWeWOpOA55Y26f3Z4TQyomgE0FoZduqEHDVNq8974klSV2o7ovN7yvc+SDMgll+Lwtmwaz8zNL7PbHUk/qtXPcguLJt5UTQiSC0Cg2tMubvn1+x/gOeWJK0nfqc2HxaafEKZsEsmOXEEGRtb3Y/YdkxnljqSf1Xrp8AraCVE0HbVk4Eg0OrrL9G+NppnliStJ12n9a8JizAglkwC2bBLJiVNW/UTGze3RNLPWnE4v/drf/K9duglRNBJ4LQyrZVeHDVOivWrvHEkqROqp3e/ME+0x78e7iABbNgFsyCWTCr9oRlSz2x1MstrBXgyomgbSsngtAqMLTKnHf63/+7D3tiSVJH21cnNp9ZHngFs2AWzIJZ1YtZfU5cepQnlnpTv5Xrx0MrJ4LQyraVE8Hg0CprC+vVszyxJKmjDaxpzS+UJ2CFi1m1MAtmwSyYld/ZVjN98W6eWOpNn1z9y137r1z3OrhyIgiuoJVtqwDhqu2M8AVPLEnKUZ8TH/5Qn2kPvlP+gAWzYBbMglkVjFlTlt3riaX8bGGtW2rbClpBKyeC0CowtMqcdwcsWftRTyxJymr3aQ+cU1l4BbNgFsyCWZWHWX2mLh/tiaV8tN/KdeOglRNBaGXbyolgcGiVMf2WrT3HE0uSsjewpjX/oLIBC2bBLJgFs8oes7bWTGzexRNL+Wiv5p/v0n/lus1OBG1bgStoZdsq3Nln+WsveWJJUnz76ov3f6TPtAffrR7AglkwC2bBrDLErCnL7vbEUn63sNYvtm0FraCVE0FoFfS823/52o95YklSqtppD55bnXgFs2AWzIJZ5YRZy4/wxFI+67fytdHQyokgtLJt5UQw8Fn22rmeWJKUqs+05pf7TGsGWDALZsEsmBUuZm2qOXXRezyxlM8GLIre0/+hdZucCNq2AlfQyrZV0POyJ5YktZwPntT80T7Tmt9NAlZ8IBbMglkwC2aFgll1U5bd4YmlQtR/5bq7bFtBK2jlRBBahfobWGujfZatjT7/wPpPeGJJqvpqpz10QXu8AlkwC2bBLJgVFmYtP8wTS4Vo34fWj4RWTgShlW0raBUeWsVn72WvXuCJJanq6zOt+ZXOAQtmFQyyYBbMglkwq2uzsWbEmp09sVSIRqyJdu7/0Lr1TgRtW4ErJ4LgqsRolQOuYvOKJ5akqm63qQ9/PPf5IMyCWTALZsGsUDCrbuqy2zyxVMj6rVy3yLYVtLJtBa2gVXBolTF7Lf39Jz2xJFVttdMeurhneAWzYBbMglkwq1iYVTd1+cGeWCpk/R9adyi0ciIIrZwIQqvSnQh2cS72xJJUtfU5sfkn+QEsmAWzqhyyYBbMKhRmnbDstZqJzTt5YqmQTWyOdur/0Lp1TgRtWzkRtG0FroJDq/j8xBNLUlW260kPfLrPSc1R60wrxEAsmAWzYBbM6g1m9Zm6fL4nloqyhbXytYW2raCVE0FoBa2ChKvW+fyStZ/1xJJUfdtXJz/0zQzAglkwC2aVGLMAFsxqP3VTlx/kiaVi1O+h10ZAKyeCTgSdCEKr8NAqPvsufe0yTyxJ1QdYJzX/tEPAKihkway8Y9aJMAtmwawKxay1zgdVtGZEO/Z/aN2rTgRtW0Er21bgqvA/yN6L+akHlqSqqn76ys9sF69gFsyCWTCr2iGr9Jh1syeWiln/levm27aCVk4EoRW0CmPbqqPpv+y1z3liSaqi7asHZ3QbsGAWzIJZfi8LZhV16iffP8wTS8Vsv4fWHgitnAjatnIiCK3CQ6uMWfrqDE8sSdUDWCc3/7xXgAWzYBbMgllODAs9v6+piXbwxFJRS54R/sGJILiCVratwFXJTgS7Mv/pgSWpKqqb9sDn84ZXMAtmwSyYBbMKNXM8sVSK+j20bq4TQWjlRBBaQatAtq06mL2XrdvbE0tS5W9fnfTQVQUDLJgFs2AWzIJZeZndJ98/xBNLpQGs9cOcCEIr21ZOBKFV2LP38rVXeWJJqgLAav5FUQALZsEsmAWzYFZP53fOB1WyomiH/g+t+40TQXAFrWxbOREMeJav/W8PLEkVXe305n5FxyuYVfWYVQuzYBbM6t6csOwGTyyVsv4PvTYbWkErJ4LQyrZVyPNq1G/5H/p5Ykmq4O2rh64tOWDBLJgFs2AWzOp0+ky+f6AnlkrZvs2vDXYiCK1sWzkRhFbhoVXm/GGmJ5akyt3AOqn5f4ICLJgFs2AWzIJZ2fP/OR9UEFtYzet+ZdsKXEEr21ZOBEOEq1bA+nXL2bcnlqTK2746uXlAsHgFs2AWzIJZMCt9PnidJ5ZCqN+D62dBK2jlRBBa2bYKDa1SszQ5ey9fO8ATS1LFtfvJD84qG8CCWTALZsGsKsWsPpPv7++JpRDar3ntACeC0Mq2VZWcCK6AVuWEVvHZd9mrszyxJFXeBtZJK3/V56SHouQ0RzALZsEsmAWzwsKsPicu/5WnlYLawmpe90vbVuAKWtm2ciJYQrhaut35rTNCSZW1fXVS8+A2vMoemAWzYBbMglkhYFbdCcuv9sRSUID14LqZ0ApaVfWJoB9kt20V0LZVR7Pv8t8P9sSSVDmAdfJDszsGLJgFsmAWzIJZQWDWlBX7eGIprA2sDf2cCEIr21bQClqFh1YZs2TtbE8sSRVStEOfkx76TdcAC2bBrCJAFsyCWTAr1/yX55VCbN/mdf9p2wpcQStw5USwZCeCXQCsV3/njFBSZWxfndQ8tPt4BbNgFsyCWTCrmJhVd+LyGZ5YCrH+D667GlpBK39FEFrZtgpk26qD2fu+Pwz1xJJU9tWe/NDc3gMWzIJZMAtmwaxCYlbdlBV7eWIpxPZuXre3E0Fo5UQQWkGr8NAqcwvrD3M9sSSVeYnzwd/mF7BgFsyCWTALZuUXs1b8zPNKIdeved3PbVs5EbRtBa6cCJboRLArG1hL166tmRHt6IklqWzb/aTmAwqHVzALZlU3Zu0+fVW061eeid5zxproPWe+EO189g+inb7+o+qec7ozPzSp2eHcV35dc9HPnjP5mp+2nwv+4/nk/Hvnc/7/bT/nvfLtTufcH3c83/jRdxLz9R92MD/InK+9uCbnnPVCar733bZZ892aM7/TNmc8/72a01vmW6l59ns1X33mheQ8nZyvPPVCzalPvNg6X348OV969PuJOeWR79d8ceUPar7Y/IOak1e8VHPish/WnHDfj/7PzB/+AVo5EYRW0Mq2VSDbVh3O2gN9AUsq2/qc9NC84gEWzIJZlY9Zu335qWjnr/0g2uH8f49qLvp/xpgg52dtc+FP288F/5Gaf2+b83+Smv/bNuf9W/s595XY/GtyvvHj2LycnK//KHPO+WFqXkrND5Lzte+n5sXknJ2eF5Jz1vdS893knLkmNd9JzhnfjmpOfz6qOf25qOa0b0U1pz0b1Xy1ZZ6Jar6yOqr5ylNRzalPJufLT0Q1X348qvnSY1HNKauS8y+PRDX/8nBU88WVUc0XH4pqpjdHNSc/ENVMWxbVnHBvVDPl7qjm+Dui3U5Z4kTQiaATQWgFrYJEq9gW1pJX5/kCllSezZixY5+THnq1NIBV5pg1DWbBrLZp+e/4Pad/J9qh5eMWDhhTXojVKWD9Rw7A+kmZAVYMsbIB66tPJxErF2B96dGOAWv6g1HNScujmhOXRDVT7olqJt8Z1Uy6LfrMnf9j2wpa2bYCV04EA0OrrHltYnO0kw9hSWVX3fSHRpQer2AWzCoSZp1YCMx6MNr11GeiHVo+coGAMZUNWD3awvrXHIj1cnER64wcW1jZgJWxhZUFWBmIlQas5qjmpBVRzYlLo5qp90Y1k++KaibdHn3w8u9AKyeC0Apa2bYKE65ap9/S34/wJSypHM8HF4QHWDALZpUHZu32xVXRjuf+GwQwxhmhM8LUGeGuX1zqRNC2lRNBcAWtgp+1C30JSyqvJjbv1Ofkh9aFDVgwC2aFiVm7nvp08gMXAhjjjLBSzgjTiNXLM8J/vuO/bFtBK9tW0MqJYNizYcSaaGcfxJLKptqTHzq0fPAKZsGscDCr5S8K+ug3pgoAK29bWNV1RviBy74NrZwI2raCVratQp9lfzjUF7Gk8jkfnLZyUfkCFsyCWaXBLHhljDNCZ4SdnxHu8sX7on4PQCvbVtDKthW0Cnn2XfqHRb6IJZVHI9bs3Oekh9ZXBmDBLJhVHMza5avP+dg3xhmhM8IunBF++vb/AlfQyomgE0EngiHPklc3OiOUVC7ngyMrD69gFswqHGbt+uXVPvKNcUbojLCLZ4Tvv/Q5aOVE0LaVE0HbVuGhVcbse+/akb6MJYV/PnjyyrsqH7BgFszKD2btfvJD0Q7n/7uPfGOcEToj7PCMcHnmGeHJ93bxjBBa2bZyIgitoFWx4So2d/kylhR2py56T5+TH9rU5+RqAiyYBbN6jlk7fe0lH/jGOCMs8zPCNfk5I0wgVidnhFMXt50R3vYLcAWtnAg6EXQiGB5axWfLXs0/38UHsqRwt69OemhUAq+yB2bBLNMOs3b98lM+7I1xRljZZ4SnFeCM8PhF0fsveQ5aORF0ImjbyrZVeGiVMXvf99ooX8iSQj4fXNzn5JVRTsSCWTALZmXMji0fmD7ujXFG6Iyw22eE7zlpcRJboJVtKyeC0ApaBQdXrb+DteTVxb6QJQV8PrhycxKw4gOzyhqyYFZBxvaVMbawnBH27ozwUwv/H7iCVk4EnQg6EQwMrbJm6yfn/XJXH8qSQjwfHNser2AWzIJZuWanlg9HH/XGACxnhD0+I3zfxc9CKyeCTgRtW9m2Cg+tsmecL2VJwbX7SSuXbB+wYBbMglktf3mw5sKf+aA3xhlhhZ4RfqdIZ4T3RP0eXAutbFs5EYRW0CpMuErNH5b4UpYUVmet3rXPyStf7x5gwSyYVZ2QtetXnvExb4wtrMo5I+xsC6vQZ4QL/h+4qqZtKyeCTgSdCJYJWmXMG0Obf7+7D2ZJ4ZwPTl85vud4BbNgVnVh1k5f+4EPeWNsYTkjjG9h9fSM8KJnoJUTQWhl28q2VXholfnXCJeuHe+LWVJI54PL8wdYMAtmVTZm7dDyAepj3hiA5Yyw92eE0+6J9n1gLbRyIgiuoBW0ChCuWue+V1f4YpYURtMX79bn5JXbCgNYMAtmVRhmndQc1VzoQ94YZ4TOCPN1RvjJW3/qrwg6EYRWTgSdCIaGVpnz1j5L1tX6cJZU+u2rk1dOKDxewSyYVRmYtdsXH/UBbwzAckbY0zPCk+9vd0a4Z2dnhE4EbVtBK9tWTgTDmKVrJ/hyllTyak9e+WDxAQtmwazyxKxdv/yUD3hjAJYzwgRi9eaM8L7WM8KdT7w72vf+V50IQitwBa2cCAY8e9/36oO+nCWVtlOf6NPn5JVvlRawuoBZJ8EsmAWwjDHOCAsDWN8r+RnhJ+b/B7RyIgitnAhCq1DxKjl/dEYoqdTng5PCwSuYVVGYNa0yMQtgGWOcEfbkjHBlp2eE771gtRNB21bQyraVE8Hw0CpjPr/0D5N8QUsqWX1OXrkyXMCCWTArPMwCWMaY3gHWT5wR5jojPOGuaN8Vr9q2glbgClqBq8DQKgOwlvxhpS9oSaVp2pLasM4HYRbMCh+zdjvlcR/vxpjKOSPs9hZWAc8Ib/kP21ZOBKGVE0FoFSBc7Z38DayW+fMnl21u8CEtqRTng1PKD69gFswqLWbtfvJDPtyNMc4IC3FGeP5qaGXbClrZtoJW4aFVxuxz76tTfElLKsX54KryByyYBbOKj1k7tHyI+oA3BmA5I+z8jDCNWF08I9xp6p3hnhE6EQRX0Mq2VRWcCHaEVhlz76urfElLKmp7/stj9X1OXvmnygIsmAWzioNZO7V8KPqAN8Y4I8z7GeHHb/6JbSsngk4EoRW0ChGu2uYvAxb9utEXtaSiVXvSyhMrF69gFswqLGbtctrzPtyNMc4I83FGOG1ZxhnhHuc9Ba1sWzkRdCIIrcJDq4z5/JK103xRSypau5+88vHqASyYBbPyi1m7T1/lw90Y44wwr2eE9yTPCE+4M9p3+atOBKGVE0HbVuAqMLTKAKx7X33cF7WkotQ0fVXT7iev/MvuJ6+M0gOzYBbM6h5m7Xjuv/l4N8YU94ww1xZWrwHrxRKeETbnOCO8Pfr43P9r28qJoBNBaAWtAoSr2Px1r7t+v4cva0kFb7fpD0+P41X2wCyYBbO2j1m7fOU5H+7GGGeEhTgjPPcJaOVE0LaVE0FoFR5aZc6SP0z3ZS2p8IB10sNP7X7yw1HbgKztQhbMglntEKs52uF8f43QGPOzyvkx90DOCHeceke0z/I/OBF0IgitbFuBq9DQKmP+sNqXtaSC1jj1yb67n/zwXzMBC2bBLJjVE8x6z2nf9vFujHFGWIAzwn+a82+2rZwIOhGEVtAqSLhKz9q/fea+P7zXF7akwm1fnfzwKR3jFcyCWRUKWQXDrIeiHVs+LH3AGwOwnBHm9Yyw7zeegFZOBG1bORGEVsGhVev2VWI+v+TVU3xhSypYfU5+5NmuAxbMglkwa3uz2ylPpD5cfcQbA7CcEebtjHBKN88InQiCK2hl28qJYNHgqm1+/6wvbEkFqX7KE3vufvLDb/cMsGAWzIJZHc17zviuD3hjIFZ5nhF+rRRnhI906YzwH2e/4kTQtpUTQWhl2yqQbasO5u19lqx7vy9tSQXYvnr41N7jFcyCWTAr1+z0tZd8wBsDsKr4jPDZvJ8RNn39MSeC0Mq2lRNBaBUeWmXOvX841Ze2pLy3+8mPPJ9/wIJZMAtmJeakh6Kdvv6yj3hjAJYzwnycEU6+M9pxyqJon+W/dyIIrqCVbSsngiHCVds870tbUl6r+2Lz+/JzPgizYBbM6mha/hv3o+7GQKy8A1ZXt7C6DVjfD+yMcEX7M8Ib/9WJILRyIgitbFuFh1bx+fvnV6z/gC9uSXk8H1x5WvHwCmbBrCrGrJNXRju1fDj6mDfGFpYzwp6dEZ4QOyP82qNOBKGVbSsngtAqPLTKmH3u/cNpvrgl5e98cPoja0oHWDALZlUbZj0U7dTyweiD3hiAVclnhAnEKvAZ4fG3R59f+jtoBa6glW0raBUgXMV+B2uNL25Jeal2evMHd5/+8N93n/5w1DowC2bBrMJi1knN0c5nf98HvTHOCJ0R9vKM8GM3/NiJILRyIgitwFVoaJWEq/S80//u333Yl7ek3m9ffXHlmRl4lT0wqzww6ySYVY6QtfOZL/igN+b/b+9OvOys63zfP5lqVyUMioqKijagZMJjN+fq8qz2LO7hXs/VY9/Lul5kEEhNqUpFwmzqCaJWiwO2EySEpEgYFRtikkpSSSWVFERm0SAmeXZEIUMlgNo2ijODZN+VCiRVSSWpYQ+/vffrvdZ3nX/gNHvvl79PxSssM8J9iDX4GeGxl7R5bQWtTARNBKFVeGjV5ybftmuGX96SsjEffOCwgAWzYBbMyilmjZl+nx/1zgEsM8IhzghHnDs/M/nOndAKXJkIem0FrQo3ERzA7XrAL29Jw2rsBUveXlW95NUBAxbMglkwKydX0dTlh71zZoRhzQiz/gordzPCE7/+YxNBaGUiCK3AVSCvrQ5xuyfd+dyJfoFLGsbrqyWXDQmvYBbMglnZR6zGzkzU7Me9c15hmREOdkZ4zIw2r62glYkgtIJW4aFVn3v/bc9c5he4pOEA1sNZASyYBbNgVlYu1bhm7w9YP/KdA1hlMSPsyM6M8Jx5mcl3dEMrcGUiCK5MBANDqwPuEb/AJQ0Nr2qWvauqesnurAMWzIJZMGt4iDV1VSaaCbGcMyM0Izz8jPC7fWaE77ruRyaC0MpEEFp5bRUmXO2bEU5Y+Ny7/RKXNHjAmrLkypziFcyCWTBryFdZ154ZsefHqx/6zpkRmhH28wqr14zwvFv2zggvXuK1lYmgiSC0glbhoVXff43w9meu9Etc0lDmg4/lFbBgFsyCWYNDrNrlmREzn/BD3zkzQjPCAwGr+p5+ZoStmUnZnBGaCEIrr61MBE0EcwFYj/klLmlweHXRohNzPh8sGsxaDLNgVrCYVVXTlhmx50eqH/zOmRH2B1jDeYV1RMDK4SusXM0Iv/aoiaCJILSCVl5bBQhXfRFr58l+kUsaxHywbWZV9dLM3lsSzsEsmAWz+kGspZmRe36I+sHvnBmhGeFhZ4RHX7zYaysTQRNBaAWtAkSrvvfsTL/IJQ1iPrh0w37A6n0wC2bBrBAxa8//nxx5xU/84HfOjNCM8HAzwnNbM5Nu3+G1FbTy2gpcDR2t7jQRzMNt8Itc0oCqrF1yUlX10t39AxbM8veyhghZMCv3V704M+ryx/zod86M0IzwMDPCd371UWhlIgitoJXXVmHC1b6b9N1dp/hlLunIgFXTNuvIeAWzYBbMChOzfpAZtefHpR/+zpkRFtOM8OL8zQiP+sxiE0GvrUwEoRW0Cvwm3/7MLL/MJQ1kPvjE4AELZsEsmBUMZE1ZlBl9yUN++DvnFZYZYb//GuH8zKTbt3ttBa28tjIRNBEM+N5/+zNP+GUu6bClLlr6vuHhFcyCWTArFMwaPeMBP/ydA1g5nBE+WrgZYQ9iDWNG+JWHoZWJILTy2sprq9BfYd353AS/0CUdbj54TXYBC2bBLJhVSMwaM/0+P/6dMyMcImD9uERnhDdnjpq+CFp5bWUiCK2gVeh32zOf9wtd0uHmg5tyB1gwC2bBrEJgVkVTFwBwzius8p4RXtR3RrjnFdbEW7eBK2jltVU5TgTvMBEsErzac5v8QpfUbxXVi8fnB69gFsyCWfnGrIrGzkzUDAGcMyPM0owwV4iV8xnh7fsA6x1ffghamQhCK6+tvLYKD6363KRbfzXRL3VJBzW2eklLYQALZsEsmJUPzEo1rnntRzAMcM6M0IxwXNM90MprKxNBaAWtAoWr1+/9t+1q8UtdUj+AtTRdeMCCWTALZuUSs1JTV2WimZtggHNmhGaEe2aEt2wDV9DKaytoZSIYGFodcD/3S11Sn46qWzo5LLwKFLOmwCyYVfyYVVnXnhmx50cuEHCutAEra6+winRG2INYh58RnvClB6CViSC0AldeW4WHVgfcrtP8YpfU6/VV25fCBiyYBbNgVjYxq7J2eWbEzCeAgHNmhEU2I1yT3RnhtLuhlYkguIJW0CpYuNp3X/KLXdJ+wKpZuqV4AAtmwawhYtZFMKv3VdW0ZUZ8FmI5Z0ZYxjPCc+ZlJix8GlyZCEKrYkKrO00EywStet8v/GKX1NO46rYPFCdewSyYBbOGi1lVNUszI/f8YAUDzpkRluuM8F/vh1YmgtDKayuvrcJDq77/GuFtz3zAL3dJe/54+1dKA7BgFsyCWUPBrD3//2TkFT8BA86ZEZbljHBsw79DKxNBcAWtoFWgcLXvXyO8/Zmv+uUuKaqqXvrL0gMsmAWzYNagMKt6cWbU5Y/BAefMCAOcEXZlf0Z4wZ29/jXCeZkJC34JrkwEoZWJILQKDK0OuK1RJjPCr3epnF9fTWk7vbTxCmbBLJg18FucGbXnRyggcM6MsGxmhAt7ZoRvb7kfWpkIQiuvrcBVeGjV925/7nS/4KVyfn1Vs+Tr5QVYMAtmwazD3pQfZEZf8jAgcK7sZ4QbinhGuPwIM8K7D5oRVk39vomgiSC4glbQKlS4ev1u3fV1v+Cl8p4PPl2+gAWzYBbMOtSNnvEAJHDOjLCsZoTjFzxlIui1FbQyEYRWoaHVazd573WbEUrlilcXtX2wqroNXoUIWTALZgVwY6bfBwmcMyPsf0aYL8TK54zwiz80EYRW0MprKxPB8NCqz026Y9cH/ZKXynI+2PbNvYDV+yAWzBo4ZMGs0sesiqYuUOCcGWF5zAjr7zIRNBEEV9DKa6sA0arP3frMN/2Sl8quzIiqmrYdVTVtmX0Hs2AWzIJZ/SFW49pM1AwMnDMjDHhG+DpiDXdGOP8X0MprK2hlIgitQoSr/bfTjFAqt9dXtUs/3AevDjyYBbNgFszqdanGNa/9WIYGzhUFYGXtFVZ5zQjf9oX7TAShFbTy2spEMDy06nOn3fHMh/2il8oJsKrbvnNYwIJZMMvfy8o+ZBU5ZqWmdmSimZuggXNmhCU7I6ysu8trKxNBcAWtwFWAaNUHsG575jt+0UvlNR/sHjBgwSyYBbNg1mtXWbcyM2LPD2J44JwZYYnOCE+d/yS08toKWpkIQqsA4Wryra/dbc88F7VkRvpdL5XHfPCfh4RXMAtmwSyYtQexaldkRsx8Ahw4Z0ZY2BlhUw5mhOe0Zt72+XtNBKGViaDXVtAqNLQ64N5/23Mf8cteKgvAapudFcCCWTALZpUtZlXVLMuM+CzEcs6MsBRmhHf1mRGmau/02spE0GsraAWuAkSrPnfLs7P9spdKvZaWkVU1bc9mHbBgFsyCWWWHWXv+733klY8DBOfMCHMMWOuzMyPsQazDzAjPv23/jHDek9DKaysTQRNBaBUiXO27Z3919qLMKD/wpRKusrrtjJziFcyCWTCrrDCrasrSzMgrfgIQnDMjLKkZ4VuvuddEEFqZCHptBa2CQ6sD7rZdZ/iFL5X2fHBuXgELZsEsmFX6mFW9JDPq8scggnNmhPn5Y+75mBHW3Om1lYmgiSC0AlchotWtu3rdMzf5hS+VamcvGlVV0/brggEWzIJZMKuEMWtxZtSlj4IE58wIS2ZG+L6bfg6tvLYyETQRhFZBwtW++48zWjKj/dCXSnE+OKXtzCDw6rCQBbNgFswqWsya8oPM6EseBgnOlewrrGKcEbYPeUZ4/Oe6TAShlddWXltBq/DQqs+9//ZnzvRLXypFwKppaw0OsGBW8WHWFJgFsw5/o2c8ABOcMyMs+hlhRfUdmf/yPRNBcAWtoJWJYGho1fsm3bqr1S99qdRqWT+6qqbtN0EDFsyCWTCrZDBrzPT7gIJzZoTZAazDvcLK9Yxw7hYTQWhlImgi6LVVgHDV635rRiiVWKnato8WDV7BLJgFs3KHWXlErIqmLqDgnBlhcc8IZ601ESxVuDIR9NoKWhUzWvW9W3Z+1C9+qYQaW922sGgBC2bBLJhVtJhV0bg2EzWDBefMCItpRnjH/hnhlNsHNCOEVuAKWkErE8E8o1Xvu23XQr/4pVKpoXVMVU3bf5YEYMEsmAWzig6zUo1rXvtRDRicMyMcLGDdX/AZ4XtvTEwEoZWJoImg11YhwtX++92kRekKP/ylUnh9Vdv2sZLDK5gFs2BWUWFWampHJpq5CS44Z0YY4Ixw8f4Z4ZR/P2hG+JZeM0ITQWjltRW4glbBoFWfO+2WXR/zy18qjfngbSUPWIfFLIAFs2BWCJhVWbcyM2LPD2fI4FyggPVE6cwIexArOzPCMRfdVpovrby2glbQykSwyNGqz79GeNszt/nlL5XGfPD5sgIsmAWzYFawmFVZuyIzYuYTkME5M8KimhGeMjsxEYRWJoLQymurAOGq1/3+lNlPpQCAVMyvr2qWfqKqZllm/7VlYBbMglkwq5CYtee/RSM+C7GcMyMsnhnhm+NOr62glddW4ApahYdWB7zCevZfCIBUxFXVLruzL2DBLJhVJJAFs0oas/b83+HIKx8HDc6ZERbHjPDCW1+DIGgFrqCV11bQKsi7pefuJABSsTajI1VVs+yFQwMWzIJZMGu4kAWzho5ZVVOWZkZe8RPY4JwZ4aEBa9CvsHI3Izz5hs0mgtDKRBBagavw0Kr3/fHDi3ZVgQCpGOeD1W1nDQyvYBbMglkwq0CYVb0kM+ryx2CDc2aE4c8Im9d4bQWtvLYyEYRWYcLVvjtt4c6zSIBUjPPBmmV3DQ2wYBbMglkwK5+YtTgz6tJHgYNzZoT5nRG+jlgDnBGOvuDWzGnffRZagSto5bUVtAoMrfoA1i27vk8CpGKren3l2Jplfxg+YMEsmAWz/L2sLELWoTBryg8yoy95GDo4V6wzwv5eYRX1jHBRPzPC+ZmTrt9oIgitTAShFbgKDK0OuD+//85fjwMCUjG9vqpt+2R28QpmwSyYBbNyj1mjZzwAHZwzIwxnRnjh9/rMCN80c43XViaCXltBK2gVJlztu0m37PokEZCKaj64/J7cAhbMglkwC2blBrPGTL8PPDhnRhjYjPDW12aEt2ROu/MZaOW1FbQCV9AqMLTqezvvIQJSsdTQPraqZtmf8wdYMAtmwSyYlV3Mqmjqgg/OmREO4xVWDmeE39loImgiaCIIrcBVcGjV5/5iRigVz3zwU4XBK5gFs2AWzMoeZlVMW5uJmgGEc2aEYc0Ij/tsh9dWJoJeW0EraBUmXPW6Zz5FBqRiAKzqZYvDACyYBbNgFswaHmalGte89uMbRDiXW8DaaEY40BnhpxcOYkZoIgitoJWJILTKH1r1ucVkQAq9CzvHFW4+CLNgFsyCWdnHrNTUjkw0cxOIcK7cZoSXhjsj/Idv/8xE0ETQRBBagavw0Kr3/e2U7z11DCCQQn59VdN2Xth4BbNgFsyCWYO/yvpVmRHNG0GEc2aEQ5gRdmZ/RnjVKq+tTAS9toJW0CpMuNr/rxHeuvM8QiAF/fevlrVV1S7L9FxNsR3IglkwC2YdDrHaMyP2/LAGEs6ZERZ4Rjjq/AWvzQhNBKEVtDIRhFYhodUB10YIpFCrXX50Ve2yv+4DrN4Hs2AWzCohyCpfzKqqXZ4ZsecHNZRwzowwZzPCpf3MCL9/8IzwW49DKxNBE0GvrUwEw74XT2/deiwokAKssqbtgn7xCmbBLJgFs0oKsZZlRl75OJBwzoww/zPCT++fEb7xypUmgl5beW0Frby2Cv0WPnMhKZCC/PtXy1YMCLBgFsyCWTCr2BGrui0z8oqfQAnnzAj7nxH2IFYOZ4TnLtg7I7xjF7iCVtDKRDDLaOW1VVbv1p0rSIEUWG+obntDVe2yFwcNWEWLWf74O8yCWWWPWTVLM6MufwxMOFfoGeFAX2ENGrAeCn5G+J5vPA6tTARNBL22MhEM+16atHDXccRACmk+WNtWPSy8glkwC2bBrKK8JZlRe34AwwnnzAiHMyPsQawhzAgvb4dWXlt5bQWtTAQDv9Nu2VlNDKSQAKtu2aqsAhbMKgHMAlgwq0wwq3pxZvQlD8MJ58wI8z4jHHnezZnJt+8EV9AKWpkIem0V5N+/2nuTFu7qIAZSIB3btPKNVbXLX9rzr3PlDLFgFsyCWTAr8Bs940FA4ZwZYf5nhP+2AVqZCEIrr62gVWBodcC9PP6OZ95EDqQg5oMr6vbi1YEHs2AWzIJZ5YVZYz6zHlA4Z0aY1xnhGy5fAa28tgJX0MpEMEy42n+37KojB1IAja1d1tk/YMEsmAWzYFb5YVbF9HshhXNmhAOYEXaU5owQWkErE0ETQWjV33WSA6nAHd3Q/uaq2uWvHBmwYBbMgllFB1nV4UJW6JhVMW1dJmqGFc4V9Yww66+wcjcjfPfXfwytTAShlddW4Co8tOp9r7x/3q+PJwhSQV9frWgYHF7BLJgFs2BWeWBWqrHztR/qwMI5M8IszAj3vcLqZ0Z46TJo5bWViSC0glZhwtW+O23BMw0EQSpgVbXLuoYHWDALZsEsmFW6mJWa2pGJZm4CFs6ZEWZvRlh9zyFmhN3gClp5bVUsaOUPspcNWvW+SQt3dREEqUAdVdPxlsHPB2EWzIJZMKu8MKuyflVmRPNGaOFcUc0IHymCGeF3+8wIT7zux9DKRBBaeW0FrQJDqwPu75MXbHsrSZAKUKpmeVNlTvAKZsEsmAWzSuuPv1fWt2dG7PkRDi6cMyPM9ozwvFt6ZoTHXrLMRNBrK2gFrcBVmHC1/xbsbCIJUgGqrFmxfg9g9T6YBbNgFsyCWf3fnv+Gjdjz4xteOGdGmIMZ4YhzWzOTbtvhtRW0Alf+FUFoFRpa7Z8Q7rn1JEHKc+OqV72tsnb53w8ErPxBFsyCWTALZhUfZu35b8vIKx+HF85la0Y4nFdYBZsRrs3djPBrj0ErE0Fo5bUVtAoPrXrfq6fesvMEoiDlcz5Yt/ziQ+EVzIJZMAtmwazDIFZ1W2bkFT+BF86ZEWZ9RnjMjDYTQa+toBW0AlcFhqtJR7iJt+yaQRSkfM4H65Y/MFDAglkwC2bBLJh1wNUszYy6/DGA4ZwZYfZnhLd2mwhCK3BlIgitwnhtdah7gChIeWpsw5K3V9Yuf3UogAWzYBbMglkw6/Vbkhm154cyxHAAK8AZ4aNFOyN811d/ZCJoIgitvLYqX7gKF6163+5Jrc+dSBakPFRVu+Ky4eJVyWFWDcyCWTALZg3hqhdnRl/yMMRwAKvUZ4QX53FGePFSE0GvraAVtPLaKjy06nu3PHMZWZDyMR+sXf5wtgELZsEsmAWzyhmzRs94EGQ4iGVGOLQZ4UUHzgjnZybdsh1aQSsTQXAFrUKEq/33CFmQcv36qmbZuyprl+/OJWDBLJhVeMiCWTAr/5g15jPrQYYDWGaEvRBrsDPC2/fPCL/yqImgiaDXVtDKRDA8tOozI5yw8Ll3EwYpp/PB5VfmC69gFsyCWTArXMjKDWZVTL8XZjgzwrzNCH9cojPCmzNHf2ax11ZeW0EraAWuwkOr/bdgZ2bigp1XEgYpp/PBFY8VCrDyi1n++DvMglkwqzCYVTFtXSZqhhrOKywzwmHMCM+Zn5m0cDu0glYmgiaC0CpAuOp1jxEGKVevrxraT8znfBBmwSyYBbPKFbNSjZ2v/aAHGw5g9QtY2f5j7gcCVq4QK48zwnd++RETQRNBr628toJW4aFVn5vcuvNk0iDl5O9fLZ8ZGl7BLJAFs2BWqWJWampHJpq5CWw4M8KymRGuye6McPpir628toJW0ApcBYhWfW7hrpmkQcrNfHBD6IAFs2AWzIJZpYRZlfWrMiOaN8IN5xWWGeEQ/jXC1szEBdugFbQyETQRhFYhwtX+20AapKzj1cqTKmtX7K6sXZHZfzALZsGsw2MWwIJZw8esyvr2zIg9P9YBhwNYZoQHvcI6wozw2odNBKGV11ZeW0Gr8NDqwFdYpxAHKZuAVbd8Vl+8OvBgFsyCWTALZuUKs/b8t2XEnh/pkMOZEZoRDmJGeNT0H3htBa6gFbQyEQwRrXrdxIXds4iDlMVSdcufODxgwSyYBbNgFszKJWbt+b/5kVc+DjmcV1glNSPsyvm/RjhxwVZo5bWViaCJoNdWAcLV/ut+gjhI2cKrqaveN3C8glkwC2bBrCKHrIAxq7K6LTPyip9ADgewzAgHPCN8x5ceAlfQymsrr62gVXBodcC/RrhgxwTyIGVlPth+TWXdikzP1Q7nYBbMglkwC2YNG7JqlmZGXv4Y6HBmhEMGrA1FPCNcfoQZ4d0Hzwib7oFWJoLQClqZCAaIVgfc58mDlIWq6ts37QOs3gezYBbMglkwq0CYtSQzas8PauDhvMIyI+xvRnjBnftmhHteYU24eWsRopXXViaCJoLQqizg6vXbRB6kYVbR0D6+X7yCWTALZsEsmFXYq16cGXXJw7DDAaxszwjzhVh5mREu3Dsj/NcH/SuC0MprK3AFrcJDq753a/dEAiENZz5Yv7xlQIAFs2AWzIJZMKsgN3rGg8DDmRGaER52Rjhu2j0mgtAKWkErE8EQ0arP38HqbiEQ0rD+/tWK9KABC2bBLJgFs2BWPm9X1JyOoYczIyzRGeHriDXMGeH4m7dCK3BlIgitvLYKEK72366fEwhpqPPBupWTh4VXMAtmwSyYBbPyMCVc+q2e/2jP2nxJFCe7wYcrecDK2ius8poRvr3lfhNBaOW1FbiCVoHfaa27TiMR0lBeX9W2fymrgFVmmFUFs2AWzIJZ+cCsCxd/aN9/uJuTi6I4eQV+ODNCM8IDZ4RjG+/22gpaQStoZSIY/n2JREhDmw9uyRlgwSyYBbNgFszKxnVHUWZEn/94z9pyVhQnLwIQZ0ZoRthnRnjOvMz4eU9BK3BlIgitvLYK+35BIqRBNm7qqg/kBa+yBlkwC2bBLJhVlpj19X7/I351+swoTv4EQJwZoRlhnxnhF+43EYRWXluZCEKr0O/mZz5AJKTBvL6qX/GVvAMWzIJZMAtmwaxB3dgLF//XQ/6HfGb6g9Gs5HkI4swIy3lGeFffGeHU73ttBa6glddW0CpYuNp7k2/e+VUiIQ1uPvjLggIWzCo+zKqBWTALZuUZs7YeNB886CXWlslRnDwLQpwZYYnPCHsQ6zAzwvNve+1fI5yXOXXeL722glbgClqBq8DQqs+17twaZY7wHU/S3sbWrzw9GLyCWTALZsEsmNX/66spSwb2v87Fm06K4mQrCHFmhEU2I2zKwYzwnNbM2z7/Q2hlIgitTAShVYhw1etOW9B9OpmQBlCqrv3rwQJWmf3xd5gFswoHWTArdMwaV9028L+PcPWWt0fx5s0wxJkRmhFW1X/fRNBrK2jltRW0ChCt+l7318mENKD5YPvTRQFYMAtmwSyYVb6Y9fSg/+N+efq4KE5+BEScGWFogLU+/zPCm37ptRW0MhGEVuAqOLTqc91mhNIRqqpr/2DR4RXM8sffYRbMKjPMGjtlybVD+o98S/qoqDnpAiLOjLDcZ4TroZWJoNdW0ApahQlX+2/hrg8SCulw88Ha9m8WPWDBLJgFs2BWiWPWuOplpw35P/QznkpFzZvboIgzIwz0j7nnYUZYWXeXiaDXVtAKXEGrENGq101esPObhEI6ZJkRlXXtOyrr2jN7b0UGZsEsmAWyYFZomLX0yWH/575l/egoTm4HI86MsMCAdbhXWDmeEb5v7pPQykTQRBBagavA0OqAf41wpxmhdKj5YG37h/fj1YEHs2AWzIJZMCsEzBpbvaQlW/+jRRSnrwcjziusYp4Rtg95RvjWa+6FViaCXltBK2gVIlz1/tcI5z/zYVIh9TcfrF/xnUMDFsyCWTALZg0FswBWtjGrombRxKz+xz9OmuGIA1hlOCOs/R64MhGEViaC0CpAtDrgFdZ3SIXU/3ywe2CABbNgFsyCWTCrEJhVOWXJ5px8BMzafEkUJ7shiTMjLLMZ4Y1boJWJoImg11bgKjS06nvPRS2ZkbxC6jsf/OfB4xXMglkwC2bBrHxiVmX1ks/n7IOgObkoipNXIIkzIyzRGeGUfz94Rvi5e6GV11ZeW0EraBUmXO27iQt2foRYSL0Bq37F7OEDFsyCWTALZsGsXEJWxYVLJ+T0w2DWlrOiOHkRlDgzwoBnhD2INZwZ4R37ZoSpmjvBFbSCViaC0CpAtOrzrxHe3D2bWEiv19IysrKu/dnsAhbMglkwC2bBrCxj1s/y8plwdfrMKE7+BEucGWE+AOv+gs8I3zvn59DKRBBaeW1lIhjyLdj5q7MXZUaBCymKosr69jNyh1cwC2bBLJgFs7KBWZXVS67O2wfDzPQHo1nJ87DEmRGWwoxw8WFnhMdf3QWtvLYCV9DKa6vAb/KCXWeQC2nPfLBu5dz8ARbMglkwC2bBrKFcqnrxe/P64XD1lslRnDwLTFzpANYTZoT9zQir7wRX0ApamQhCq/BvLrmQzl40qrKu/deFASyYBbNgFsyCWQO8xwvyGRFvOimKk63QxJkR5gCwBv0KK4czwtlpaGUiCK28tjIRDPv+44yWzGiAofKeD9a1n1l4vIJZMAtmwSyYdYRrLtgHxcwnT4jizZuhiTMjLOEZ4ax10MprK3AFrcBVyNe6MzNxfveZBEPlDVi1K1rDAyyYBbNgFsyCWX3mg1PaTi7oh8Xl6eOiOPkROHFmhEUyI3wdsQY4I6yYcvtehAFX0ApamQhCq+Dgav/taiUYKt9a1o+urG3/TdiABbOKGbOqYBbMglnZuMfC+MxIHxU1J13wxJkRluaM8JQbEmhlIgitvLaCVsGhVZ/7rRmhyrZUbftHiwevYBbMglkwq0wxq2bpVcF8cMx4KhU1b26DJ86MsARmhBd+r8+M8C3xWmjltRW4glbgKjy06nOTW3d+lGSoPOeD9SsXFi9glShm1cIsmAWzYFaf211Z3fae0F7vRnFyO0BxZoSlMiO89bUZ4R3hzAihFbQyEYRWXlv1fzfvXEgyVH41bBhTWdf+n6UBWF5lwSyYBbNKFLNqlj4S5odIZkQUp6+HKK5sZoT9vcIaNmA9WMAZ4aJ+ZoTzMydfvxlamQhCK3AFrUJDq773u0mL0hVAQ+U1H5y64mOV9aWEVzALZgWAWTUwC2Zl+5ZcFvSHSZw0QxRnRlg6M8I3N3eaCEIrE0FoBa7CQ6s+N/HmXR8jGiqv+WDdytt6AKv3wSyYBbNgVtlDVlCYtbvqokUnBv+B0rz50ihOdsMUFy5gbTQjHOCMcMyFt+VnRgitoJWJILTy2mpoeLXn5u+8jWiovOaD9e3PHwRYMMsff4dZMAtmhYNZU5Y+WDSfK83JRVGcvAJUnBlhCcwIv7MJWpkIQitwBa1CQ6u+9/tTZj+VAhsql/ngJw6LVzALZpU1Zvl7WTArFMxaMqOoPlxmbTkripMXgYozIyzyGeHMNSaCXltBK2gFrsJDqz43+ebuT5ANlcd8cGr7nZX1KzODQiyYBbNgFsyCWfnErFfH1i4/oeg+YK5OnxnFyZ+gijMjLN4Z4egLb8mcdvsur62gFbiCVtAqQLh6/Sa17rqTbKj0m9GRqqpf+cJewOp9MAtmwSyYBbMCwqwfFu3nzKz0h6JZyfNgxZkRHgGwLi3EjHDpgGaEJ317I7QyEYRW4ApaBYZWfa/7j+/89q4qwKGSbmxd+1kH4xXMglkwC2aBrJAwa2z1kulF/WFz9ZbJUZw8C1acGWE+ZoSdWZ8Rvumzq00EvbaCVtAKXOXyXxLMwk1o3XkW4VBpzwfr2+86MmDBLJgFs2AWzCogZr069oIlby/6D5x400lRnGyFK86MsAhnhBfckpl82y4TQWhlIgitoFVreHD12gusPf/vXYRDpVv1+srKqSv/MDjAglkwC2bBLJg1PMwaNGDdWzKfOzOfPCGKN28GLK5oZ4QDfYU1aMB6KLAZ4fcPnhF+a6PXViaCXluBK2gVHFr1uT+//85fjwMdKsmqpq765NDxCmbBLJgFs2BWPjBrbM2SxpL68Lk8fVwUJz8CLM6MsAhmhJ8+YEYIrby2glbQyr8iGBpa9blJN+/4JOlQic4HV96TPcCCWTALZsEsmJV1zJqy9JWjLlx6fMl9ALWkj4qaky7I4swIszQj7EGsHM4Iz12QGf3pWzKTb90JraCViSC08toqQLjad/O77yEdKr0a2sdW1q/8c24AC2bBLJgFs2BWNjBrbPXSzpL9HJrxVCpq3twGWpwZYfHMCP/hG0/4VwShlddWJoLQKjS06nt/MSNUKc4HP5V7vIJZMAtmwSyYNRzMGluzrL6kP4xa1o+O4uR20OLMCPM8I+xBrMHPCI+7cpXXVuAKWnltBa3CQ6vXX1/tvXndnyIeKqlSde2L8w9YMAtmwSyYBbMGcS8ffdHSN5X+J1JmRBSnr4ctzoywCGaE5y/M+YwQWnltBa2gFbgaIly9fq3di4mHSqcLO8flZz4Is2AWzIJZMGuoV1nT1lFWn01x0gxcXNnOCLP+CiuHM8J/+6mJILTy2spEEFqFhlZ972+nzH7qGPCh0pgP1q86Lxy8glkwC2bBLJjVL2DVtlWX3QdU8+ZLozjZDV2cGWG4M8I3XrHKaytwBa28toJW4aFVn5s0f+d55EOlMR+cuqotXMCCWTALZsEsmLVnPnhM3aLjyvJDalYyJYqTV8CLMyPM9oywIyszwlHnL8hMvmUntIJWJoLQClwFCFf7b0cb+VDxV7v86Mr6lX8tDsCCWTCrNDCrCmbBrMFfe1l/Vs3aclYUJy/CF2dGGMqM8Lt9ZoTv+fpPwRW08toKWkGr4NCqz714UuvWYwGIirrK+pUXFB9ewSyYBbNgVnlhVmV124Vl/4F1dfrMKE7+BF+cGWGBZoT7XmH1mhGed8veGeHlK6EVuIJW4Kqk4KpE0OrAu4CAqNj//tWK4gcskAWzYBbMKmnMevGNDYv8L2Y9L7HSH4pmJc8DGGdGWMAZYfU9B88IP73wkDNCaOW1FbSCVl5bFRyuXr8VvkyqaHtDddsbKutXvlg6gAWzygKzamEWzCo7zFrmE6v3S6wtk6M4eRbCuILPCIfzCuuIgJXDV1g5mxFuAFfQClyBK2gVHlr1vpcmLdx1nC+TKs754NRV1aWJVzDLqyyYBbNKCLOql53vE+uA4k0nRXGyFcI4M8JwZoRvuGwFtDIRhFbQykQwPLTq+68RzttZ7YukivXvX60qD8CCWTALZgWDWTUwa3C37G/RpzuO8YnVTzOfPCGKN28GMc6MMIwZ4cjzF2Qm3bITWnltBa2glddWAcJVr1vlS6SKrmObVr6xsn7lS+UHWDALZsEsmFVUmLXEJ9Zhujx9XBQnP4IxzowwjBnhidf9xEQQWoErcAWtwkOr3vfy+BufeZMvkSq211d15Y1XMAtmlQ5kwaxSxqxl5/jEOkIt6aOi5qQLxjgzwsO9wsrTjPDS5V5bQStoBa1MBMNDqz43Yf6OOl8gVWx//6qzsn5VZv9BLJgFs2CWv5cVGGb9JZq+6CifWANoxlOpqHlzG5BxBXmFZUa4f0Z43oLMxIXd0ApcQSto5bXV/JABq7vTl0cVTUc3tL+5sn7VK30BC2bBLJgFs2BWYJh1j0+swbzEWj86ipPbgYwrjRnho4WbEfYg1jBmhF/9sYkgtAJX4ApahX2vvH/e08f78qhimQ82HBqvYBbMglkwC2YFgVm1bZ/0iTXYMiOiOH09lHHhzwh/XKIzwpszx16y3GsraAWtoJWJYOA3qbW7wfdGFQtgdQ0csGAWzIJZMAtmFQCy/hxd2DnOJ9YQi5NmMOPMCPM0I7zowBnhzZmJC3ZAKxNBaAWtvLYK+7p8YVTwHVXT8ZbDzwdhFsyCWTALZgWAWd/3iTXMmjdfGsXJbjjjim5GmCvEyvmM8PZ9M8J3feUxE0GvrcCViSC0CvkF1vzuv09esO2tvjAq6FL1HU3DxyuYBbNgFsyCWbnErLHVbWf5xMpCs5IpUZy8AmicGWF+Z4THXNzmtRW0glZeW0GrEG/e/pswb2eTL4sKfD7YsT77gAWzYBbMglkwK4uY9cfo7EVVPrGyhVhbzori5EVI48wI8zcjHHFua2bizduhlYkguIJW4CowtDoAsNb7oqhgGzd91dsqp676e24BC2bBLJgFs2DWMDHruz6xstzV6TOjOPkTpHFZA6ysvcIq0hlhD2IdYUb45R9BK6+toJWJILQKEK563aunztl5gi+KCnM+2NBxceXUVZk+B7NgFsyCWTArqBtbvexffGLl4iVW+kPRrOR5UOPMCA81I1yT5RnhUnAFraAVuIJW4aFVn5s0b8fFviQqzPng1FUPHARYMAtmwSyYBbPCwauaZX+IqtdX+sTK1UusLZOjOHkW1jgzwvzMCCf0zAihlYkgtIJW4CoktDrgHvAFUcE1tmHN2yunrnr1sIAFs2AWzIJZMKvAgNV2u0+sHBdvOimKk62wxpkR5n5G+M5rH4VWXluBK2gFrcKEq9dv96TWrSf6gqigqqpfedmA8QpmwSyYBbNgVqHmgx/3iZWHZj55QhRv3gxsnBlhbmeER39mKbiCVtDKRBBahYdWff+Y+03dl/lyqNDmgw8PGbBgFsyCWTALZuX+apf9Ljp7UYVPrDx1efq4KE5+BG1cec8Iu7I/I7zgzl4zwvmZCa3boJWJILTy2gpcBYZWff81wu6HfTFUOK+vajrfVTl11e6sABbMglkwC2bBrBy9vlq+0CdWnmtJHxU1J13QxpkR5mJGuHDvjPBLj0Arr63AFbSCVgHCVe8Z4YQbt73bF0OFAVgNHVdmHa9AFsyCWTAraMgqPswaV7Psf/rEKkAznkpFzZvbwI3L34xwQxHPCJcfYUZ498EzwumLwRW0glYmgtAqPLQ64HZc6UuhQpkPPpZTwIJZxYdZdTALZsGswDDrt1FD6xifWIV6ibV+dBQnt8MbZ0aYgxnhOfMzE+ZvhVYmgtDKaytwFRxa9bnHfCFUAK+v2k9M5WI+CLO8yoJZMAtmZQ2zKmuWt/rEKnSZEVGcvh7euILPCPOFWHmcEb7jSw9DK3AFrqAVtAoTrvbd5NadJ/s+qIJW0dAxMzV1Vab3wSyYBbPKGbJgVoiYVTml7UyfWIEUJ80AB2CZEWZ3RnhU0w9MBKEVtDIRhFYBotUBf8x9pi+CKvR8cMOBgAWzYJa/lwWzYFZImLX8P3ombAqn5s2XRnGyG+RALDPCXog1rBlha2b8vKe9tio2tCpFuIJW4ApaHfImzeve4EugCodXtStP2jMfPBxgwSyYBbNgFszKM2YdDFg3+cQKsFnJlChOXgE5ACt3r7DKa0Z4wr8+BK28tgJX0Mprq9ARa+6uU3wJVGHmg1NXzUpN7cjsvVWDOpgFs2AWzIJZ+cGsyuq2M3xihYpYW86K4uRFmGNGaEaYhRnhtB9AK2gFrUwEoVXoN797li+AKkipqR1P7Aes3gezYBbMglmlBVlFjFm/is5eNMonVsBdnT4zipM/AR2vsMwIh/+vEfbMCMGViSC08toKWoUMWE/48qcC4NWq9/WPVzALZsEsmAWzgoGsmrY5PrGK4SVW+kPRrOR5oAOwymZG2JSDGeE5rZkTvvggtPLaClxBK3AV6t20905r3T7elz/leT64+pqBARbMglkwC2bBrEJhVmX1so/4xCqWl1hbJkdx8izUMSM0IxzMjPCuPjPCcY33QCtoBa1MBKFVoHD1+k24acc1vvgp3/PBTYMHLJgFs2AWzIJZecSs56KWlpE+sYqoeNNJUZxsBTteYZXOjHB9dmaEPYh1mBnh+bf1zAj3/DH38Tc9Ba7AFbTy2gpaBYZWvW/SvO5NvvQpf6+vGjrHDw+vYBbMglkwC2blHLNq2q73iVWEzXzyhCjevBnsACwzwqHNCN/+xQegFbQCV9AKXAWGVgch1vzuib70KS9VNqxqyS5gwSyYBbNgFszKOmbVLPtvPrGKtMvTx0Wzksfgjhlhac0I78vTjPBuaAWtvLaCVtAqULjaOyHszkyc293iC5/yNR9M5w6wYBbMglkwC2ZlAbN2RlFmhE+sIq4lfVTUnHQBHjNCM8LBzwhPnfuUf0UQXEErcAWtAkOr3jdxbvfPfdlT7ueDdSsn5wevYBbMglkwC2YN477pE6sEmvFUKmre3AZ4vMIqzxlh+9BnhF+432sraGUiCK3AVWBoddDN2znZlz3ldj5Y3/GlwgAWzIJZMAtmwawBX82yD/nEKpWXWOtHR3FyO+QBWGaEA58Rjm24G1pBK6+toBW0ChWuXr+5O77ki55yPR/cUnjAglkwC2bBLJh1aLxa3m0+WGplRkRx+gbQY0ZYdDPCw73CyuWM8Jx5mVNv/IWJoIkgtAJX0Co0tOq5Ha/fL3zHU84aM3XVB8LCK5gFs2AWzIJZB13d8q/7xCrR4qQZ9HiFZUY4sBnh2675oddWXltBK2gFrsJDqz43ae72D/iCp9zMBxs6vhI2YMEsmAWzYBbMGlvfdrpPrBKuefOlUZzsBj4Ay4ywvxnhHftmhFVT/x1aQSsTQWgFrQoKVzuOeONv2vEVX+6Uq/ngL4sHsIYGWTALZsEsmFXkmLXVfLAMmpVMieLkFehjRhj2jPD+ws4IPzUv8745T4IraOW1FbiCVoG8turvJt60Y2uU8d1V2Z4P1q88vfjwCmbBLJgFs8oLs8bWLP+qT6xyQawtZ0Vx8iL08QqrvGeEi/fPCKf8+8Ezws+th1bgClpBK3AVGFod/Aqr23pAWX999fXiByyYBbNgFswqbcwaV93m7wiUU1enz4zi5E/gB2AF/8fcBzMj7EGsLM0I6+6CVtDKRBBaeW1VwInggG7edn+/VVkHrKdLC7CKDLNAFsyCWTDryOdfcinLl1jpD0WzkufhjxmhGeEAZoTgClp5bQWuoFVBX1sd4rrNCJW9+WDdmg+WLl754+8wK0eYVQezYFaer2b5tT6xyvUl1pbJUZw8B3/MCM0ID54RvvXq+6AVuIJW0MpEMDy06vuvEc7b9kFf6JSd11f1Hd8sH8CCWTDLqyyYVZyYVVG97DSfWGVcvOmkKE62AiAzQjPCvjPCytq7oBW0MhGEVl5bFXIiOJA/5j53xzd9mVMWyoxITe3YUZ6ABbNgFswqW8yqLTrMetLnlaKZT54QxZs3QyAzwiAAa9CvsHI3I3zvDVvAFbTy2spEEFoFCFf7r3unGaGGXVXj6g+nGlZnUg0de2+qg1kwC2Z5lRUgZrX4xFJPl6ePi2Ylj0EgM0Izwl4zwln3QStwBa28toJWwaHVjsyEuftv/I07PuyLnIY3H2xY8529gNX7YBbMglkwC2aFhFkVNcsm+sTSvlrSR0XNSRcIMiMs2Rnh64g14Bnh96AVtDIRhFbgKkC06nM3dX/HlzgNbz7Y0NF9MGDBLJgFs2AWzAoHs5Zt9nmlg5rxVCpq3twGg8wIjwhY/b3CKuoZ4aJ+ZoTzM++9fgu4glZeW5kIQqsQ4Wr/PRe1ZEb6EqehzQcbVv/z4fEKZsEsmAWzYFYAf/z98z6x1P9LrPWjozi5HQaZEZbljPDC7/WZER4f3wutwBW0AlfQKjy06nOT5nb/sy9wGtp8cOrq2YMDLJgFs2AWzIJZ+casivqlE3xi6XCvqaM4fQMQMiMs3xnhrT0zwlT1ndAKWpkIQisTwQDR6oC/gzXbdzcN4X+1bRmZalj97NABC2bBLJgFs2BWrjGrqnb5z3xgaUDFSTMUMiPM74zwweBmhKd8Zwu4glZeW0Err60ChKte96toUWaUL24aVJXTVp+RHbyCWTALZsEsmJU7zFpxtU8sDbjmzZdGcbIbDJkRlu2MsHkdtAJX0ApcQavw0KrvK6w528/wpU2Dmw82rp6bG8CCWTALZsEsmJUtzEpVt7/XJ5YG1axkShQnr8ChUgKsjWaEA5wRVky5E1p5bQWtoJWJYKBw1evm+sKmgXf2olGpho5f5x6wYBbMglkwC2YNA7M2+MDS0BBry1lRnLwIiMwIczYjvDTcGeHJ307AFbQCV9DKa6vw0Kr3/ccZLZnRvrBpYPPBxtVn5hevYBbMglkwC2YNFrOq6lY0+8TSkLs6fWYUJ38CRGaEYc8IO7M+I3xLNmaEXltBK2gFrqBVTm/ijd1n+rKmgc0HG1a3FhawYBbMglkwC2YdCbBSU9pO9oml4b3ESn8ompU8D4nMCMtrRnh7ZtICaOW1FbSCViaCoaFVX8Da3uqLmo5cy/rRqYbVvwkHsGAWzIJZMAtm9QNYj/nAUnZeYm2ZHMXJc6DIjLA0ZoRL+5kRfv+gGeFJg5kRQiuvrcAVtPLaqhD3WzNCDeD1VcdHw8QrmAWzYBbMglmvY1ZV7fIrfWIpa8WbToriZCsoMiMs6Rnhp/fPCN88c63XVtAKWoEraBUeWvX91wjnbvuoL2k6PGBNXb2wOADrAMiCWTALZsGs8sGs3ZV1q97tE0tZbeaTJ0Tx5s2wyIyw4DPCHsTK4Yzw3AWZiov6mRFCKxNBaAWtTARDu4W+oOnQNWwYU9Gw+j+LC7BgFsyCWTCr7DDrER9YykmXp4+LZiWPAaMymhEO9BXWoAHrofBnhN/abCLotRW4glZeW4V9v5u0KF3hC5oO8fqq42PFi1cwK1uQBbNgFswK+6pqV1zmE0s5qyV9VBQn9wIjM8KimRH2INbgZ4Rv+uwacAWtoBW4glaB38SbdnzMlzP1W0Xj6ttKB7BgFsyCWTCrJDFrd1VD+4k+sZRbxNowNoqTDmhkRljKM8IxF962F0qglYkgtPLaqtQmgiUAV/sAa273bb6Yqd/5YGXD6udLE7D88XeYBbNgVslg1oM+sJSv7wVRnL4bHJkRlvKM8B++8TNo5bUVuIJWXluFfDfu+P0ps59K+WKmA+aDnZ8ofbyCWUWNWSALZsGsTKp2xQyfWMrfS6zMyChOWsGRGWHJzgivWg2uoBW0AlfQKjy06nPjb+z+hC9l6jsfbFh9Z/kBFszyx99hFsgqKsx6dWzt8hN8Yim/ZUZEcXIdPDIjDGtG2JGVGeHoC27JTFrQDa1MBKEVtDIRDAytDrg7fR/T/mZ0pFINq18ob8CCWTALZsGswDGrfsUPfWCpYMVJcxQnuyGSGeGAACvrr7DKaEYIrcAVtDIRLOPXVoe4P77z27uqfBnTa6+vOs9KNazJ7D+IBbNgFsyCWaFBVqpuxXSfWCpozenGKE5ehUhmhEU3I9z3CuvgGeFxV64GV9DKaysTQWgVHlr1vTnbz/JFTD1VNqy5qy9gwSyYBbNgFswKDLP+Pq5++Vt9YqnwiJWcG8XJyyDJjLAoZ4TV9xw8I7zw1szEm7uhlYkgtPLaykQwNLTqdRNv3HGXL2GKour1lamGNX84NGDBLJgFs2AWzAoAs7p8YCmYZm35eBQnf4FJZoT9A9YjRTAj/G6fGeF7/u0JaOW1lYkgtPLaKkC46nV/fv83fj3Ol7Bynw9OXfPJgeEVzIJZMAtmwaxCYVaqbkWjTyyFhVjpj0Rx+gWYZEZY1DPC827ZOyO8ogNcQSuvrUwEoVV4aNX3XyOcs+OTvoCV+3ywcc09QwMsmAWzYBbMgll5wqxXjpq29HifWAquOP2PUZz8BiiZERb9jPCCPTPCHdCqaOEKWkErE8FSRau+t/0eX77KuYb2samGNX8ePmDBLJgFs2AWzMohZnX6wFKwzdx4ahQn3VCpCGeEw3mFVbAZ4drczQiv+ym08toKWpkIQqsg4Wrf/cWMsLzng5/KLl7BLJgFs2AWzMo6ZtWuqPOJpaBrTp8YxeknoZIZYTHPCN94xUpwBa3AlYkgtAoPrQ74Y+7dn/LFq0xLNaxZnFvAglkwC2bBLJg1zHv56IuWvsknloLvqo3HR3HyU7BUAn/MvUxnhKM+fcvgZ4ReW5kIQisTQRPBPAPWjsW+dJVjF3aOy/58EGbBLJgFs2BWlq/DB5aK5yXWhmOjOHkQLJX7jPDRop0Rvvtrj0Mrr62glYkgtAoQrnrd306Z/dQxvnSV23ywcfV5hcErmAWzYBbMglkDvtoV1T6xVFS1bBgbxUkHXDIjzO4rrDzNCC9baSIIrcCViSC0ujHsGz93+3m+cJXffLAtDMCCWTALZsEsmHWo+eAxdWuO84ml4kOsdEUUp+8GTGaEwc8ILzpgRnj+wszE1h1eW0EraGUiaCIY8s3d0ebLVjlVu/zoVGPnX1ONazI9B7JgFsyCWTAruKuqbW/3gaXiRazMyChOWgGTGWHeZ4Q9iDXYGeHt+2eEX90ArcAVtDIR9Noq7HvxpNatx/qyVSZVNq6+YB9eHXgwC2bBLJgFs0L51wgv9Iml4i4zIoqT6yBTKc4If1yiM8KbM2+4tB1aQStwZSIIrQK/iXO6L/A9q1zmg42rVxwSsGAWzIJZMAtmhXAvRg3r/C9LKo3ipDmKk92wyYywKGaEn16YmTh/B7jyrwhCKxNBaBUyYN24fYUvWOVQ9fo3pBrXvDggwIJZxQVZMAtmwaySwayqupXLfGCppGpON0Zx8ipsCgCwsv3H3A8ErFwhVh5nhCd+5SfQClxBKxNBcBXizdl3L0369i5/K7bk54PTVlcPGq9gFsyCWTALZuUZsNrP94ml0kOs5NwoTl4GTmaE2Z8RrsnujPCS5dAKWoErE0FoFSZc9dz4PTd7u3+tu/Tng52rhg1YMAtmlThkwSyYVWDM+lv06Y5jfGKpJJu15eNRnPwFOpkRhjwjHHn+gnBnhCaC0MpEEFyVM1r1ulPnbF/li1Up17TyjanGNS9lFbCChSyYBbNgFswqTsxK1bUv9oGl0kas9EeiOP0CdDIjLNiMsAexjjAj/PKPoRW4Km+4MhEEVwGi1fg523vfy+NvfOZNvliV6nywcXVdTvAKZvnj7zCrBDALYIWCWVX17ef4xFLJF6f/MYqT34AnM8JQZ4THzlgOraCV11bQCloFAVfbD3kT5uyo86WqZOeDqzvzAlgwC2bBLK+yYNZQ7y/R9EVH+cRSWTRz46lRnHTDJzPCoc0Iu3I7IzxvQWbC/O3gClpBKxNBaBXGa6tDXacvVCXY0Q3r35xq7Hwl1diZyTtiwSyY5Y+/wyyQNbCrX3mPTyyVVc3pE6M4/SR8MiMMcUb4rmt/5LUVuDIR9NoKXIWHVr1uxysnz3v6eF+oSm4+2NmwF68OPJgFs2AWzIJZoWBWVe2KT/rEUtl11cbjozj5KYAqhhnhhiKeES4/wozw7n5mhMugFbQyEYRW0KqAE8EB3Y3bG3yZKrn54Jqu/gELZsEsmAWzYFYgmPXn6MLOcT6xVJ4vsTYcG8XJgxDKjLDgM8IL7uw1I7w5M2HeNhNBaOW1lYkgtAritVX/d+rsbV2+SJVQR9V0vGX/fHCgB7NgFsyCWTArr5hVu/L7PrFU1rVsGBvFSQeEKuIZYb4QKy8zwoU9M8J3fulHXluBK2jltRW4CgytDri/T75+21t9kSqV11cNnU2DwyuYBbNgFsyCWfnGrLF17Wf5xBLESldEcfpuEGVGGMqM8JjPtEEraGUiCK2gVSEnggN5hXXj9iZfokpmPrh2/fAAC2bBLJgFs2BWjjHrj9Hli6p8Ykl7ECszMoqTVhhlRjjsGeHriDWMGeGIc1sHNyM0EYRWJoLgClrlDa563XpfoEqgcdNXvS3V2Pn37AEWzIJZMAtmwazsY9aK7/rEknqXGRHFyXUwKsuAlbVXWGU2I/zXR722AlcmgtAKXIWHVr3v1VPn7DzB96dif301bc3FucErmAWzYBbMglnZwqxUXfu/+MSS+ilOmqM42Q2lzAgLOSM8evpSaAWtTAShlddWBZwIDuhmb7vYF6einw92PpAfwIJZMAtmwSyYNZRL1a/8fTSjI+UTSzpEzenGKE5eBVNmhIWcEY6/aZuJILQyEQRX0CpEuHr972DN2f6AL01F3NiGNW9PNXa+mn/AglkwC2bBLJg1iLvdJ5Z0JMRKzo3i5GUwZUZYqBnhO1oe8doKXJkIQisTwcDQ6sAZ4fvm7XqHL03F+vqqYc1lhcUrmAWzYBbMgllHfoHV/nGfWNIAmrXl41Gc/AVOmRHmZ0Z4V98ZYdMSaAWtTAShlYlg4Dfhxu2X+cJUpFVM63w4LMCCWTALZsEsmHXA/S46e1GFTyxpoIiV/kgUp18AVGaEWZsR9iDWYWaE59/22oxwfmb83K0mgtDKRNBE0GurkG/29od9WSrCqqZ3vivV2Lk7XMAqMGTBLJgFs2BWGLfQJ5Y0yOL0P0Zx8htAZUZ4yBlhUw5mhOe0Zt7xxUe8tgJXJoJeW0Gr8NCq9+2ecOO2d/uyVHzzwSvDxyuYBbJgFswqb8xK1bZ/1CeWNIRmbjw1ipNuSGVGmM8Z4VHTFkMraGUiCK1MBMNDqwNux5W+KBVZlY2djxUfYMEsmAWzYFZZYdZvo5b1o31iSUOsOX1iFKefBFXlPCNcn98Z4TnzM+NvfNpEEFqZCJoIem0VJFztvQmztz/mS1IxzQcb1p1YHPNBmAWzYBbMKmvMavWJJQ2zqzYeH8XJT0GVGWG+ZoQnfPEhr63AlYkguIJWgaHVgXfK7J0n+5JUJFVMWzuzdPAKZsGsQUAWzIJZxYRZde1n+sSSsvESa8OxUZw8CKvKfUZ4X55mhD+AVtDKRBBamQgGiFZ9XmHN2T7TF6TimQ9uKF3AglkwC2bBrJLArP8wH5SyWMuGsVGcdACrMpoRHu4VVk5nhK2Z9815GlpBKxNBaOW1VYBw1es2+HJUDHjV1HVSeeAVzIJZMCuXkAWzcn2r5vnEkrKNWOmKKE7fDawK8QqrGGeE7UOeEb798w+CK3BlIgiuoFV4aGVGWGylGjuvKk/ACgCzGmAWzIJZMGug136GTywpB529aFQUJ63Qyoww1/8aIbTy2gpaQSsTwfDQyr9GWHSAte4BgAWzYJY//g6zgoasX/X8yJaUozIjoji5DlyZEeZsRnhua2b83G3ZQatWaOW1FbiCVl5b5eh+6DtRwB39ma43pRrX/j3VuDaz/yAWzIJZMKuEMKsEXmVV1bff6BNLykNx0hzFyW54ZUY47BnhlH8/aEb4rmt/DK1MBKEVuIJW4aFV7xdYr0z69q7jfCEKtIpp6z7ZF68OPIgFs2AWzPLH3wPArI/4xJLyVHO6MYqTVwGWGeF+xBrOjPCOfTPC467ogFZeW0EraGUiGBxaHfSvEZ7ly1Co88Fpa69PTTscYMEsmAWzYBbMKjBmPRe1tIz0iSXlE7GSc6M4eRlildqM8P6Czggra79nIui1FbiCVl5bBQpX+2/bt3wRCrTKaWs39ABW74NZMAtmwSyYFQxmVdW33+DTSipAs7Z8PIqTvwAsM8LBzQgXH2ZGeHPm1Buf9toKWkErcAWtZgd9P/YlKMTOXlSRmrb2pYMAC2bBLJgFs2BWMJhVNXXlf/OBJRUKsdIfieL0CwBrKID1hBlhPzPCd1/3BLQyEYRW0MpEMOx78fTWDWN8CQqsMY1r/kvF4fAKZsEsmAWzYFaBMWvVzp5/HU1S4bp6yz9FcfIbM8IymhH2IFZuZoRvu+Z+aOW1FbiCVl5bBX4Tb+ye5AtQYFVM6/z0HsDqfTALZsEsmAWzwsGs1NSV3/ZpJQXQzI2nRnHS7RWWGeFwZ4RvvHwVuIJW0ApcQavAb8IN28/15Sc4wFr3xQMBC2bBLJgFs2BWOJhVVdf+QZ9WUiA1p0+M4vSTAMuM8JCvsAYwIxzXuBhamQhCK2hlIhj4nXrDjs/54hNYqaa1Cw8HWDALZsEsmAWzCopZ3eaDUmBdtfH4KE5+akZYpDPCQb/Cyv6MsKLmLmjltRW4glZeW4V/833pCe0FVuPazoECFsyCWTALZsGs/GJWqn7Vv/mkkkJ8ibXh2ChOHvQKy4xwUDPCC7/XMyMccf6te/EEXEEraGUiCK3CnRDO3t7hC09wE8K1Px0KYOUGswAWzIJZMAtm9b6x9StP90klBVrLhrFRnHQALDPCwc8Ib82Mn7sVWpkIQisTQWgV9v3Yl53wAGvrcAELZsEsmAWzYFZOMGur+aAUOmKlK6I4fbcZYQ5mhP29who2YD1YwBnhoj4zwvfe8Ato5bUVuDIRBFdh35O+6ARWatra32YTsGAWzIJZMAtmZQ2zvuZTSiqCzl40KoqTVq+wzAgHMyM8+VtpcAWtvLaCVtAq7PuVLznhvcD6Q64AC2aVKGTBLJgFs/KCWeOmrvqATympWMqMiOLkOoBVRH/MvcAzwpO+mUArE0FoZSIIrsK+//T9pkwBC2bBLJgFs2DWoDDrFz6hpCIsTpqjONltRmhGeKQZ4UnfTEMrr61MBL22glYAS4MErBfyDVgwC2aBLJgFs4541/qEkoq05nRjFCeveoVlRni4GWFeAQtaQStwBa2gFcAqDcDq/FUhAQtmwSyYBbNg1sFX0bDqNJ9QUjEjVnJuFCcvmxGaER5qRnjyt38OrUwEoZWJILQK+nbs8oUmOMBa92QogAWzYBbMKiBkwayQMOvnPp2kEmjWlo9HcfIXM8KAZoSXFmJGuLTfGeH75jwFrby2glZeW4GrsC/xZSY0wGpa+6MQAWvQmNUIs2AWzIJZJYJZDatafDpJpYJY6Y9EcfoFM8JSmxF2DntGOOGm7eAKWoEraAWtgr5tD/kiEx5grQgdsGBWiWKWP/4Os0oUsoaLWRWNHRN9Okkl1NVb/imKk9+YEZoRvv4Ka2TtD6CViSC0MhEEV6HfnO1LfYkJrDHT1s4pJsCCWTALZsGsksashlWbfTJJJdjMjadGcdJtRjgAwBroK6xBA9ZDwcwIU9PboZXXVtDKaytoFfidOnv7d3yBCaxU47qrihWwYBbMgln++HvJYVZDx+d9MkklWnP6xChOP2lGaEZ41GVrTQShFbiCVtAq9LthxxW+vIQGWE1r/++Kaesy+w9mwSyYBbNgVqEwq6KhfbxPJqmEu2rj8VGc/NSMsAhnhD2IlZ0Z4XHxA15bZRWuoBW0MhF0Obgbt37CF5fAqpy2+j19AQtmwSyYBbNgViH++Htq6qonfCpJ5fASa8OxUZw8aEZYvjPCE67dAK28toJWXltBq8Bv8tyn3+VLS3BlRlQ0rvv9oRGrNDArBbNgFsyCWYFjVkV9x9U+k6QyqWXD2ChOOswIS3hG2INY/c8IT/rWFhNBaAWuoBW0Cvue92Ul0MZM67r3yIAFs2AWzIJZMCunmNXY/l6fSFI5IVa6IorTd5sRlteMcETd0syEeTu8toJW0MpEEFyFfZ2+qARaxbR1LYMDLJgFs2AWzIJZ2cSsyqmrNvg0ksqwsxeNiuKk1YwwDzPCrL/CGtqMcOwla6EVuIJWXltBq+D/BcJt1/iSEmiV0zr/x9ABC2bBLJgFs2DWcDGroqFjpk8jqVzLjIji5DozwvKYEb7lmkegFbQCV9AKWgV+E67f9t99Pwm1GR2pimnr/pgdxIJZMAtmwSyYNehr6DjZh5FU5sVJcxQnu80Ii3lG2HHEGeF7/i0BV9AKWpkIuqBvx59Omf1UyheTgKtoWrcku4AFs2AWzIJZMGsgVzl11WM+hST11JxujOLkVTPC0pwRjmpsL76/f+W1FbTy2gpaldvrq9nb7/GFJPDGTFtbnTvAKg3IglkwC2bBrBzdVT6FJO1HrOTcKE5eNiMsvRnhsc33QytoBa6glQv971/N2XaBLyOh17Du2Ipp6/6ae8SCWTALZsEsmNXrXhlbu/YEH0KS+jRry8ejOPmLGWFpzQhPvG6ziSC0glYmgi7s++sHvrP9Db6IFEEV09bdkz/AglkgC2bBLJiVmtrR7tNHUv+Ilf5IFKdfKKsZ4XBeYR0RsHL4CmsAM8LRTSvDnA96bQWtvLaCVm7/3bD9Ll9AiqRU070fKwxgwSyYBbNgVnliVkX96v/Xp4+kQ3b1ln+K4uQ3ZoTFPyN80+cegVbQClxBKxf6zdn+P335KJZaWkZWTFv3dOERC2bBrAAhC2bBrOzfb6KzF1X48JF02GZuPDWKk24zwmKeEbZnTrn+lyaC0MprKxNBF/b9MmrJjPTFo5heYTWuvTQcwIJZMAtmwazSxayKho7P+dSRNKCa0ydGcfpJM8LinBEefdX9XluBK2jltZUL/V8fnLNjui8cxVbtQ0dXNK77fZiIBbNgFswCWSWDWX+Iqtv8gUhJA++qjcdHcfJTM8IAZoQXD25G+J5vbIFW0Mq/IgitXNj3/Pu/8etxvmwUYRXTuj4fNmDBLJgFs2BWcWNW5dTVX/VpI2nwL7E2HBvFyYMl/wqrhGaEY69YbyIIrUwEwZUL/4+3z/Ilo1ib0XFMxbR1/1k8iAWzYBbMgllFhVl/HFe//K0+bCQNqZYNY6M46TAjHOyM8NGCzAhz/vrKayto5bUVtHLDvB2/PfXrTx7tC0YRl2rsuqL4AAtmwSyYBbOGAVkN+frbV6tjnzKShodY6YooTt9tRljoV1iHnxEe9dn7oZXXVtAKWrnQ//bV7O2X+WJR7DVsGFMxfd3PK5qKGbHKDLMaYRbMglnBY1ZDx9aoen2lDxlJw+7sRaOiOGk1IwxzRjhi+prMKdc/ZSIIrUwEwZUL+g+3b99yeuuGMb5UlECVTV3/Rw9g9T6YBbNgln/JEGYN518ePMuni6TslRkRxcl1ZoRHAKxcIdZhZoRv/sJPvLYyEfTaClq50G/O9v/pu0QJVTF93fcOQiyYBbNgFsyCWUO41ct8qkjKSXHSHMXJbjPCMGaEYy69LzN+7nZo5bVVUcMVtHKlfqfO3nGnLxCl1mXr31Axbe2uQyIWzIJZMAtm+ePvA7n/8IfbJeW05nRjFCevmhEWeka4NvOeb/zcRBBamQiCKxf2PTfp27uO8+WhBEs1rftfFU3rdh8RsWAWzIJZMAtmmQ5KKiBiJedGcfJyUQJW1l5hFXZG+KYvbPDaClqZCEIrF/btnjB7x//ypaGEq2ha928DBiyYBbNgFsyCWb1u1XyfIpLy1qwtH4/i5C9mhPmfEVZd9VAPeEArcGUiCK1cyNPB7df5slDqtawfnZrWdf+QEAtmwSyYBbPKFLMqpq5+OJrRkfIhIim/iJX+SBSnXzAjzN+McNQlP8y894anTQShlYkguHJh38P+1cEyadz09W+raOraPizEglnFA1kwC2bBrOHernHTV73Np4ekgnT1ln+K4uQ3ZoS5R6wRF6/PvOebT3ptBa1MBKGVC/u2Tb5+m79JW05VNHZNrGjq+n1WEAtmwSyYBbNK9/44pr7zdJ8akgrazI2nRnGy04wwh4A1477MO76WQCtwZSIIrVzY94fxc7ae5otBGVY5vet/r2jq+mtFU1cmq5AFs2AWzIJZpXF/q5y2+gyfFpKCqDl9YhSnnzQjzA1gHX/tz0wEoZWJILhyYd9fx8/Z7rt5OZeafu9HK5q6/rYXsV4/mAWzYBbMKnvMejk1tfMTPiUkBdVVG4+P4uSnZTkjzCFiveVLP/PaClqZCEIrF/a95F8c1OuI9S8VTV0v9kUsmFW2f/wdZsEsmPVixdQ1n/TpICnMl1gbjo3i5MHSnBHm/xXWm1t+Bq3AlYkgtHJh39/glfpUOW3dGRVNXS/0j1gwC2bBLJhVNpj1p1RDx0d9KkgKupYNY6PmZIkZ4TAA65L7M8dfu8lEEFqZCIIrF/Tt+NOEG7f9nz74dVBjpq37x4qmrucOj1gwC2aBLJhVqpjV8esxDWv+yaeBpOIoMyKKN7eYEQ4esUZc+kDmhK+lvbaCViaC0MqFfc9NnL3jH33e65CNvXjtCRVNXY8ODLFgFsyCWTCrZDDr8cr6zn/wKSCp6JqVroni5CUzwoEB1qjLH868+5u/gFbgymsraOXCvscn3bD1RB/yOnLV6ytTTV0LB4dYMAtmwSyYVbSY1RrN6Ej5j7+koq15y3+P4mSnGeHhAauq+bHMe2dvNRGEVtAKXLmwZ4M3nzL7Kd/NNbgqpq37VEVT1++GBlkwC2bBrGAhC2a9fi9UNqye4r/2kkoDsXr+uHtrQQEra6+wsjwjvOzBzHEtP8tMmOu1FbQyEYRWLuB7Yfzs7ef5QNeQq2pYd2JFU9fqoSMWzIJZMAtmBYhZU1evqqrveKf/yksqueL02VGc/KcZ4V7Aqrjqscx7vvVLaAWu/CuC0MqFfasnz336XT7ElZ3XWNPvPW/M9K5fDx+yYBbMglkwq6CQ9ZvKxo6L/FddUkk388kToji5I4qTV8t1Rjji8oczb/7XTXuxAVpBKxNBcOVCvV9PmL3Nd3PloOnrj6qYvq6loqnrr9mBLJgFs2AWzMobZr2Ualh9Q9Sw7lj/MZdUPq+xNp0exZvvL7cZ4birH8+cdP3T4ApcmQhCKxfuvTR+9vYbPvCd7W/wYa2ctmdW+NofeX8pe5DVBbJgFsyCWbnArJcqGjpu3fPfLf/1llS2zUr/f1Gc3lTqM8Kxsx7PvPtbT0EraGUiCK1cuPfy+Bu23+pfGFT+IWvG+neOmdZ1fUVT1x+zC1kwqywxqxFmwaysYtYfUo2rv+HvXElSr5rT/xzFSXsUJ7tLaUZ49DU/y7zn209DK2hlIgiuXLj/suCf9ry4AlcqfLUPHT2m6d5pFU1dT2QfsmAWzIJZMGvgVzl19WOphjWfMRWUpMNB1qbToubk5mhW8nyxzghHf/YnmTdfm2ROmb0NXEErE0Fo5cK9jafO3t50yuynjvHhq+Cq+Mx9kyqauv61Yvq9P4dZMAtmlRFmFRautlQ2rP5aRWPHRP8VlqRBdPaiUa+9ymqN4vQLoc8IR312Q+YNLZszJ37zqb2gAq3AlddW0MqFeL+YMHvHtePnbD3NB62KpsqmrpP2vsy6d0lFU9dzMAtmwSyYlaV7NtWwZkllY2dDZd2qd/uvrSRloRlPpaKrk/89itNfjOLN66I4+XOhZ4Qjr3o8M/ZzGzNv+fLP904EoRW0glbgygX6LwluXzZhzo7pp8zeebIPVJVEVdM731Uxbd0nK6bf+7mKpq7vVjSt+1HFtK5d2flj8DALZsGsEsOsl1MNa7alGjp/WDF1zR0VU9d8IdXY+S9jG9a83X9NJSkPtawfHcXJ/xbF6eooTn85mrX5nqh58+NRnPwu26+wRs18IpOa9bPM0V9MMm+6dkvmhK//MnPS9VsHAFbgClyZCDqXtz++Pnv7s+Nnb//x+Bu23zV+9vYvnDpn29kTbtzmf0xWGdaw7tjKizv/oefV1vS1HxjTdN/pQ79O51yIV3/oq2hYddqe//s/alrn8f5+lSQVQTOfPDq6evNbo3jTSdHVW/4pijed3nMzf/pfj3RVn/vZPx91zcb/ccy16f/rrV/7+XnHf/UXF+bsvpJcNJB7y5c3TjnitTxR3ee+8HjNoO/zP6rdd9c8Urfn3nz1Q/U9N+uBqS5L1+zK8d5yzeM1J1z31P8z/obu093wb9Lcp09533e6T3rfN3/xZh96kiRJkiRJkiRJkiRJkiRJkiRJkiRJkiRJkiRJkiRJkiRJkiRJkiRJkiRJkiRJkiRJkiRJkiRJkiRJkiRJkiRJkiRJkiRJkiRJkiRJkiRJkiRJkiRJkiRJkiRJkiRJkiRJkiRJkiRJkiRJkiRJkiRJkiRJkiRJkiRJkiRJkiRJkiRJkiRJkiRJkiRJkiRJkiRJkiRJkiRJkiRJkiRJkiRJkiRJkiRJkiRJkiRJkiRJkiRJkiRJkiRJkiRJkiRJkiRJkiRJkiRJkiRJkiRJkiRJkiRJkiRJkiRJkiRJkiRJkiRJkiRJkiRJkiRJkiRJkiRJkiRJkiRJkiRJkiRJkiRJkiRJkiRJkiRJkiRJkiRJkiRJkiRJkiRJkiRJkiRJkiRJkiRJkiRJkiRJkiRJkiRJkiRJkiRJkiRJkiRJkiRJkiRJkiRJkiRJkiRJkiRJkiRJkiRJkiRJkiRJkiRJkiRJkiRJkiRJkiRJkiRJkiRJkiRJkiRJkiRJkiRJkiRJkiRJkiRJkiRJkiRJkiRJkiRJkiRJkiRJkiRJkiRJkiRJkiRJkiRJkiRJkiRJkiRJkiRJkiRJkiRJkiRJkiRJkiRJkiRJkiRJkiRJkiRJkiRJkiRJkiRJkiRJkiRJkiRJkiRJkiRJkiRJkiRJkiRJkiRJkiRJkiRJkiRJkiRJkiRJkiRJkiRJkiRJkiRJkiRJkiRJkiRJkiRJkiRJkiRJkiRJkiRJkiRJkiRJkiRJkiRJkiRJkiRJkkqu/x8ZfUv8sHAB8wAAACV0RVh0ZGF0ZTpjcmVhdGUAMjAyMS0xMC0wOFQyMDozNjoyOCswMDowMAmYPcoAAAAldEVYdGRhdGU6bW9kaWZ5ADIwMjEtMTAtMDhUMjA6MzY6MjgrMDA6MDB4xYV2AAAAAElFTkSuQmCC;imageBackground=default;" vertex="1" parent="1">
          <mxGeometry x="680" y="1020" width="40" height="40" as="geometry" />
        </mxCell>
        <mxCell id="UsUYvDEnflECevkJwkC9-203" style="edgeStyle=orthogonalEdgeStyle;rounded=0;orthogonalLoop=1;jettySize=auto;html=1;" edge="1" parent="1" source="UsUYvDEnflECevkJwkC9-155" target="UsUYvDEnflECevkJwkC9-17">
          <mxGeometry relative="1" as="geometry" />
        </mxCell>
        <mxCell id="UsUYvDEnflECevkJwkC9-155" value="Public IP" style="image;aspect=fixed;html=1;points=[];align=center;fontSize=12;image=img/lib/azure2/networking/Public_IP_Addresses.svg;" vertex="1" parent="1">
          <mxGeometry x="699.82" y="1278.5" width="50" height="40" as="geometry" />
        </mxCell>
        <mxCell id="UsUYvDEnflECevkJwkC9-167" value="Private DNS" style="image;aspect=fixed;html=1;points=[];align=center;fontSize=12;image=img/lib/azure2/networking/DNS_Zones.svg;" vertex="1" parent="1">
          <mxGeometry x="991.5" y="1130" width="40" height="40" as="geometry" />
        </mxCell>
        <mxCell id="UsUYvDEnflECevkJwkC9-163" value="" style="image;aspect=fixed;perimeter=ellipsePerimeter;html=1;align=center;shadow=0;dashed=0;spacingTop=3;image=img/lib/active_directory/databases.svg;" vertex="1" parent="1">
          <mxGeometry x="1645.5" y="1295.75" width="50" height="49" as="geometry" />
        </mxCell>
        <mxCell id="UsUYvDEnflECevkJwkC9-162" value="On-prem" style="image;sketch=0;aspect=fixed;html=1;points=[];align=center;fontSize=12;image=img/lib/mscae/Exchange_On_premises_Access.svg;imageBackground=default;" vertex="1" parent="1">
          <mxGeometry x="1630.5" y="1205.25" width="28.999999999999996" height="50" as="geometry" />
        </mxCell>
        <mxCell id="UsUYvDEnflECevkJwkC9-170" value="" style="rounded=0;whiteSpace=wrap;html=1;fillColor=none;strokeColor=#2a5ba4;dashed=1;" vertex="1" parent="1">
          <mxGeometry x="1610.5" y="1230.25" width="120" height="145" as="geometry" />
        </mxCell>
        <mxCell id="UsUYvDEnflECevkJwkC9-173" style="edgeStyle=orthogonalEdgeStyle;rounded=0;orthogonalLoop=1;jettySize=auto;html=1;entryX=0;entryY=0.5;entryDx=0;entryDy=0;startArrow=classic;startFill=1;" edge="1" parent="1" source="UsUYvDEnflECevkJwkC9-161" target="UsUYvDEnflECevkJwkC9-163">
          <mxGeometry relative="1" as="geometry" />
        </mxCell>
        <mxCell id="UsUYvDEnflECevkJwkC9-185" value="Furewall" style="image;aspect=fixed;perimeter=ellipsePerimeter;html=1;align=center;shadow=0;dashed=0;spacingTop=3;image=img/lib/active_directory/firewall.svg;" vertex="1" parent="1">
          <mxGeometry x="1600" y="1344.75" width="30.5" height="50" as="geometry" />
        </mxCell>
        <mxCell id="UsUYvDEnflECevkJwkC9-205" value="4" style="ellipse;whiteSpace=wrap;html=1;aspect=fixed;fillColor=#4D9900;strokeColor=none;labelBackgroundColor=none;" vertex="1" parent="1">
          <mxGeometry x="1460" y="1284" width="23" height="23" as="geometry" />
        </mxCell>
        <mxCell id="UsUYvDEnflECevkJwkC9-207" value="5" style="ellipse;whiteSpace=wrap;html=1;aspect=fixed;fillColor=#4D9900;strokeColor=none;labelBackgroundColor=none;" vertex="1" parent="1">
          <mxGeometry x="1120" y="1183.25" width="23" height="23" as="geometry" />
        </mxCell>
      </root>
    </mxGraphModel>
  </diagram>
</mxfile>
